<svg width="171" height="103" viewBox="0 0 171 103" fill="none" xmlns="http://www.w3.org/2000/svg">
<path d="M99.4334 98.022C99.4412 98.0218 99.4488 98.0203 99.4567 98.02C99.4782 98.0194 99.4995 98.0194 99.5213 98.0181C99.5717 98.0151 99.6208 98.0076 99.6705 98.0019C100.46 97.9143 101.185 97.5016 101.803 97.0858C101.897 97.0235 101.989 96.9577 102.081 96.892C102.136 96.8524 102.192 96.8131 102.246 96.7731C102.309 96.7257 102.372 96.6773 102.434 96.6282C102.548 96.5394 102.659 96.4496 102.766 96.3587C102.773 96.3518 102.782 96.3453 102.79 96.3384C103.328 95.8766 103.772 95.3895 104.114 94.8819C104.143 94.8378 104.17 94.7919 104.198 94.7472C104.208 94.7317 104.218 94.7161 104.228 94.7006C104.27 94.6333 104.312 94.5663 104.352 94.4979C104.876 93.6048 105.174 92.6279 105.182 91.6966C105.183 91.53 105.174 91.3678 105.154 91.2146C105.146 91.1493 105.128 91.0792 105.109 91.0088C105.107 91.0012 105.105 90.9925 105.103 90.984C105.097 90.9579 105.091 90.932 105.085 90.9059L105.137 90.8018C105.186 90.7064 105.234 90.6099 105.283 90.513L105.587 90.5059C105.598 90.5061 105.613 90.5071 105.623 90.5072L121.697 90.1828C121.743 90.1818 121.796 90.177 121.852 90.1712C121.895 90.1671 121.958 90.1607 121.984 90.1584C122.035 90.1948 122.087 90.2279 122.139 90.2621C122.178 90.2929 122.217 90.3225 122.253 90.3454C122.427 90.4553 122.612 90.5582 122.802 90.6514C123.179 90.8362 123.588 90.9885 124.053 91.1175C125.532 91.5282 127.086 91.629 128.59 91.7266L129.082 91.7589C129.152 91.7637 129.219 91.7676 129.289 91.7723C129.47 91.7841 129.654 91.796 129.841 91.8078C130.621 91.8577 131.384 91.9033 132.129 91.9434C132.45 91.9615 132.781 91.9797 133.128 91.9984C134.198 92.0561 135.316 92.1018 136.451 92.1339C136.523 92.1359 136.599 92.1381 136.674 92.1402C137.837 92.179 138.882 92.2044 139.871 92.2178C140.057 92.2205 140.248 92.2229 140.442 92.2253C140.522 92.2265 140.602 92.2278 140.682 92.2289C141.53 92.2407 142.33 92.2465 143.101 92.2465C143.554 92.2465 143.997 92.2444 144.434 92.2405C145.885 92.2273 147.069 92.2017 148.16 92.1599C149.114 92.1235 150.12 92.0779 151.125 92.0015C152.577 91.9005 154.094 91.7511 155.535 91.3197C155.591 91.3033 155.647 91.2887 155.703 91.2714C155.743 91.2592 155.782 91.2443 155.821 91.2312C155.86 91.2185 155.899 91.2084 155.937 91.1952C157.526 90.6528 158.767 89.496 159.863 88.4658C159.881 88.4491 159.9 88.4311 159.918 88.4147C160.041 88.2985 160.161 88.1852 160.274 88.0587C160.278 88.0558 160.282 88.0526 160.286 88.0499C160.451 87.9855 160.613 87.9187 160.773 87.8489C160.774 87.8484 160.775 87.848 160.776 87.8475C160.777 87.8467 160.78 87.846 160.782 87.8452C160.81 87.8327 160.837 87.8184 160.865 87.8058C161.036 87.7297 161.203 87.6516 161.365 87.5705C161.393 87.5568 161.419 87.5423 161.446 87.5284C162.621 86.9321 163.596 86.2054 164.348 85.3593C164.367 85.3376 164.384 85.3142 164.402 85.2923C164.413 85.2799 164.423 85.267 164.433 85.2545C164.565 85.1003 164.69 84.9412 164.808 84.7781C164.815 84.7687 164.822 84.7591 164.829 84.7496C164.948 84.584 165.061 84.415 165.168 84.2429C165.175 84.2313 165.183 84.2197 165.19 84.2081C165.294 84.0387 165.394 83.8674 165.488 83.6939C165.496 83.6784 165.505 83.6629 165.514 83.6473C165.605 83.478 165.692 83.308 165.774 83.1372C165.784 83.1177 165.794 83.0983 165.803 83.0788C165.885 82.9079 165.963 82.7372 166.038 82.5671C166.045 82.5494 166.054 82.5317 166.061 82.5141C166.139 82.3356 166.213 82.1584 166.285 81.9833C166.31 81.9221 166.333 81.8623 166.357 81.8015C166.394 81.7093 166.432 81.6162 166.468 81.5256C166.482 81.4892 166.496 81.4518 166.51 81.4152C166.513 81.4089 166.516 81.4023 166.518 81.3959C166.522 81.3857 166.526 81.3751 166.53 81.3649C166.747 80.8069 166.959 80.2281 167.171 79.6136C167.177 79.5939 167.184 79.5744 167.191 79.5547C167.236 79.4232 167.281 79.2887 167.327 79.1537C167.473 78.7194 167.617 78.274 167.759 77.8161C167.769 77.7844 167.778 77.7534 167.788 77.7215C167.815 77.6347 167.842 77.547 167.869 77.4593C167.904 77.3457 167.938 77.2342 167.973 77.1179C168.109 76.6697 168.239 76.2135 168.366 75.7489C168.385 75.6799 168.404 75.6108 168.423 75.5413C168.439 75.4813 168.455 75.4207 168.471 75.3603C168.615 74.8191 168.754 74.2613 168.889 73.6814C168.974 73.3185 169.058 72.9493 169.14 72.571C169.275 71.9489 169.402 71.3123 169.522 70.6565C169.804 69.1471 170.045 67.5431 170.255 65.7648C170.264 65.6878 170.272 65.6113 170.281 65.5343C170.319 65.2095 170.356 64.8845 170.39 64.5592C170.537 63.1746 170.653 61.8058 170.734 60.4766C170.742 60.3484 170.748 60.2204 170.756 60.0922C170.783 59.6472 170.809 59.2009 170.832 58.7533C170.913 57.1693 170.961 55.6979 170.98 54.2551C170.981 54.1772 170.982 54.1025 170.983 54.0249C171.004 52.613 171.006 51.1427 170.986 49.6342C170.985 49.592 170.985 49.5494 170.984 49.507C170.984 49.4733 170.983 49.4391 170.983 49.4053C170.981 49.287 170.979 49.1745 170.977 49.0578C170.976 49.0165 170.975 48.9753 170.975 48.9339C170.951 47.52 170.909 46.2072 170.845 44.9473C170.838 44.8087 170.831 44.6756 170.824 44.5407C170.817 44.4074 170.811 44.2751 170.804 44.1404C170.759 43.2623 170.697 42.3459 170.619 41.379C170.589 41.0009 170.558 40.6335 170.525 40.2744C170.48 39.7834 170.434 39.3179 170.387 38.8695C170.386 38.8575 170.385 38.846 170.384 38.8339C170.377 38.7684 170.37 38.7023 170.363 38.6366C170.353 38.5425 170.343 38.4475 170.333 38.3551C170.318 38.2217 170.303 38.0876 170.288 37.9535C170.277 37.8619 170.267 37.771 170.256 37.6809C170.247 37.6093 170.239 37.5379 170.23 37.4661C170.155 36.8417 170.077 36.2474 169.992 35.6713C169.955 35.4161 169.917 35.1671 169.879 34.9212C169.868 34.8517 169.857 34.7812 169.846 34.7114C169.826 34.586 169.807 34.4604 169.787 34.3373C169.742 34.0558 169.695 33.7723 169.646 33.4844C169.633 33.4068 169.618 33.3304 169.604 33.2529C169.565 33.0268 169.524 32.8052 169.484 32.5865C169.427 32.2817 169.369 31.9789 169.308 31.6771C169.293 31.6028 169.278 31.5291 169.263 31.4555C169.084 30.5815 168.888 29.7228 168.675 28.8835C168.658 28.8164 168.642 28.7493 168.625 28.6824C168.598 28.5773 168.573 28.4697 168.545 28.3653C168.515 28.2515 168.481 28.1355 168.45 28.0213C168.372 27.7273 168.291 27.4353 168.209 27.1444C168.199 27.1112 168.19 27.0781 168.18 27.045C168.129 26.8644 168.079 26.6824 168.026 26.5033C167.615 25.112 167.196 23.8488 166.752 22.6598C166.305 21.4272 165.846 20.298 165.223 19.2857C165.182 19.2187 165.142 19.1513 165.1 19.0851C165.059 19.0219 165.015 18.9604 164.973 18.8981C164.901 18.793 164.829 18.6885 164.753 18.5864C164.738 18.5663 164.725 18.5453 164.71 18.5254C164.678 18.4828 164.64 18.4423 164.607 18.4002C164.559 18.3398 164.514 18.2773 164.464 18.2183C164.439 18.1888 164.411 18.1608 164.386 18.1316C164.349 18.0896 164.311 18.0483 164.274 18.0069C164.18 17.9044 164.084 17.8035 163.984 17.7045C163.952 17.6734 163.921 17.6424 163.888 17.6116C163.771 17.4987 163.648 17.3884 163.522 17.2803C163.502 17.2634 163.483 17.2462 163.463 17.2295C163.009 16.8487 162.501 16.4971 161.938 16.1777C161.871 16.1395 161.802 16.1036 161.733 16.0664C161.621 16.0054 161.508 15.9446 161.391 15.8861C161.304 15.8424 161.216 15.8004 161.127 15.7584C161.064 15.7283 161.003 15.6966 160.938 15.6673C160.884 15.6424 160.827 15.6196 160.772 15.5953C160.735 15.5794 160.701 15.5617 160.664 15.5459C160.639 15.5354 160.613 15.5261 160.588 15.5163C160.511 15.484 160.434 15.4522 160.356 15.4212C160.335 15.4108 160.317 15.3999 160.301 15.3886C160.193 15.267 160.074 15.1601 159.963 15.0634C159.912 15.0187 159.861 14.9744 159.812 14.9294C159.797 14.9153 159.782 14.9008 159.766 14.8867C159.766 14.8862 159.765 14.8857 159.765 14.8851C159.684 14.8099 159.598 14.73 159.509 14.6482C159.484 14.625 159.459 14.602 159.433 14.5788C159.344 14.4971 159.252 14.4139 159.157 14.329C159.14 14.3138 159.124 14.2987 159.106 14.2836C159.006 14.1945 158.905 14.105 158.801 14.0157C158.791 14.0074 158.781 13.9987 158.771 13.9904C158.76 13.9807 158.748 13.9713 158.737 13.9616C158.195 13.5 157.546 12.9869 156.796 12.6075C155.255 11.8285 153.373 11.6474 151.999 11.515C151.991 11.5142 151.982 11.5136 151.974 11.5128C151.973 11.5127 151.971 11.5124 151.969 11.5122C151.958 11.5113 151.948 11.5105 151.938 11.5095C150.443 11.3671 148.826 11.2822 146.856 11.2429C146.857 11.2429 146.856 11.2429 146.856 11.2429C146.051 11.2224 145.232 11.2082 144.412 11.2021C144.365 11.2018 144.317 11.2018 144.271 11.2015C143.349 11.1918 142.432 11.1896 141.513 11.2021L141.265 11.2056C141.015 11.209 140.761 11.2127 140.509 11.2163C140.497 11.2164 140.485 11.2165 140.473 11.2166C140.462 11.2168 140.451 11.2171 140.439 11.2172C138.984 11.238 137.499 11.2638 136.031 11.3212C136.013 11.3219 135.993 11.3227 135.974 11.3235C135.176 11.3484 134.356 11.3823 133.494 11.4259C132.553 11.4684 131.585 11.5179 130.621 11.58C130.31 11.6001 129.999 11.6186 129.687 11.637C128.194 11.7257 126.651 11.818 125.153 12.0828C125.149 12.0834 125.146 12.0837 125.143 12.0842C125.142 12.0845 125.141 12.0848 125.139 12.085C125.125 12.0874 125.112 12.0894 125.098 12.0918C124.947 12.1189 124.803 12.1479 124.663 12.178C124.643 12.1823 124.624 12.1868 124.604 12.1911C123.847 12.3573 123.226 12.5701 122.682 12.8514C122.643 12.8718 122.605 12.8942 122.567 12.9154C122.563 12.9177 122.559 12.92 122.555 12.9222C122.453 12.9782 122.354 13.0365 122.258 13.0971C122.238 13.1101 122.217 13.123 122.196 13.1362C122.172 13.152 122.146 13.1669 122.122 13.183C122.095 13.2014 122.067 13.2226 122.039 13.2446C122.022 13.2564 122.005 13.2678 121.988 13.2799C121.94 13.2834 121.855 13.2758 121.796 13.2702C121.735 13.2646 121.675 13.2596 121.622 13.2584L105.605 12.9351C105.594 12.9351 105.58 12.9357 105.568 12.9358L105.282 12.9292C105.234 12.8325 105.186 12.7361 105.137 12.641L105.093 12.5541C105.295 11.71 105.139 10.8394 104.876 10.0951C104.724 9.65364 104.52 9.2187 104.267 8.80574C104.263 8.79853 104.258 8.7915 104.254 8.78429C104.208 8.70947 104.163 8.63414 104.114 8.56088C103.832 8.14233 103.48 7.73796 103.064 7.34987C103.034 7.32241 103.004 7.2953 102.974 7.26801C102.893 7.19458 102.81 7.12179 102.724 7.04962C102.678 7.01034 102.632 6.97089 102.584 6.93206C102.5 6.86394 102.412 6.7968 102.324 6.72989C102.249 6.67329 102.174 6.61729 102.096 6.56174C102.017 6.50503 101.939 6.44804 101.856 6.3922C101.833 6.37646 101.808 6.36076 101.785 6.34496C101.774 6.33746 101.763 6.32956 101.752 6.32206C101.722 6.30233 101.691 6.28214 101.66 6.26207C101.595 6.21979 101.529 6.17837 101.462 6.1369C101.445 6.1264 101.428 6.11596 101.411 6.10546C101.356 6.07212 101.301 6.03947 101.245 6.00722C101.241 6.00526 101.238 6.00342 101.234 6.00145C101.145 5.95029 101.055 5.90103 100.962 5.85396C100.236 5.48 99.3926 5.22595 98.6468 5.56548C97.964 5.87634 97.822 6.53757 97.8489 7.15305C97.8493 7.16372 97.8495 7.17428 97.8501 7.18489C97.8546 7.27061 97.8619 7.35506 97.8719 7.43755C97.8767 7.47873 97.8823 7.51859 97.8882 7.55891C97.8944 7.60016 97.9009 7.63996 97.9078 7.67964C97.9207 7.75377 97.934 7.82541 97.9489 7.89567C97.9534 7.91701 97.9577 7.93755 97.9622 7.95802C97.9691 7.98935 97.9755 8.02269 97.9825 8.05303C98.0116 8.17959 98.0426 8.30557 98.0724 8.4319C98.1606 8.80367 98.248 9.17567 98.3351 9.54796C98.4909 10.2152 98.6509 10.8965 98.8179 11.5772C98.9162 11.9873 99.0193 12.3985 99.1294 12.8077C99.1325 12.8194 99.1354 12.8313 99.1385 12.8431C99.1392 12.8456 99.1399 12.8482 99.1403 12.8507C99.1196 12.8505 99.0986 12.8505 99.0766 12.8502L87.1961 12.8073C86.3652 12.8041 85.536 12.8082 84.7056 12.8124L84.5551 12.8131L71.5777 12.8731C71.5764 12.8731 71.5752 12.8732 71.5739 12.8732L71.3095 12.8745C71.3135 12.7436 71.291 12.6142 71.2355 12.4905C71.1785 12.3633 71.094 12.2523 70.9949 12.1548C70.9909 12.1506 70.9879 12.1453 70.9838 12.1412C70.7236 11.8769 70.3858 11.7358 70.0479 11.6312C70.0469 11.6309 70.0457 11.6305 70.0447 11.6301C70.0415 11.6291 70.0381 11.6284 70.0349 11.6273C69.9971 11.6157 69.9593 11.6043 69.9217 11.5934C69.9031 11.5881 69.884 11.584 69.8653 11.5788C69.7457 11.5446 69.6253 11.5132 69.5043 11.485C69.4995 11.4838 69.4947 11.4827 69.4899 11.4816C69.3666 11.453 69.2429 11.427 69.1186 11.4038C69.0875 11.3978 69.0566 11.3916 69.0254 11.386C68.968 11.3758 68.9106 11.3664 68.8531 11.3571C68.0619 11.2251 67.2689 11.1757 66.5583 11.1495C66.5331 11.1486 66.5067 11.1491 66.4814 11.1482C66.3833 11.1451 66.2835 11.145 66.1846 11.1434C66.04 11.1409 65.8965 11.1371 65.7489 11.138C65.264 11.1401 64.7708 11.1589 64.2726 11.1949C64.2482 11.1967 64.2227 11.1992 64.1981 11.201C64.1735 11.2028 64.1482 11.2051 64.1236 11.207C63.4417 11.2583 62.731 11.3284 62.0252 11.4554C61.8957 11.4782 61.7701 11.5021 61.6476 11.5274C61.5414 11.5493 61.4298 11.5746 61.3165 11.6023C60.8761 11.7084 60.2317 11.8953 59.9085 12.4453C59.8142 12.6058 59.7401 12.8003 59.7017 13.0009L43.9907 13.1622C43.1155 12.6058 42.0354 12.3493 40.9803 12.148C40.5925 12.0715 40.2025 12.0062 39.8103 11.9498C39.7848 11.946 39.7592 11.942 39.7336 11.9383C39.6734 11.9298 39.6131 11.9216 39.5528 11.9136C38.5532 11.7749 37.6014 11.6899 36.8233 11.6296C36.7804 11.6264 36.7337 11.6228 36.6898 11.6194C35.6398 11.5322 34.6107 11.4675 33.6144 11.4266C33.4481 11.4193 33.2815 11.4128 33.1142 11.4068C33.0714 11.4054 33.0273 11.4031 32.9846 11.4017L32.4624 11.3846C32.2115 11.3763 31.9606 11.368 31.7098 11.3597C30.7942 11.3288 29.8784 11.2978 28.9626 11.2769L23.7185 11.1583C23.3595 11.1502 23.0005 11.1409 22.6414 11.1317C21.787 11.1098 20.9035 11.0872 20.0332 11.0805L20.0092 11.0803C19.893 11.0794 19.7747 11.0787 19.6579 11.0778C19.2392 11.0727 18.822 11.0687 18.4031 11.0678C17.5956 11.0662 16.7039 11.0687 15.7792 11.0862C15.7654 11.0864 15.7516 11.0865 15.7378 11.0867C15.7181 11.0871 15.6974 11.0876 15.6776 11.0881C15.5873 11.0899 15.4971 11.0919 15.4062 11.094C14.7933 11.1077 14.1394 11.1282 13.4653 11.1667C12.4568 11.2177 11.3627 11.2853 10.3051 11.5052C9.86069 11.5853 9.41791 11.7013 9.00444 11.8858C8.9779 11.8976 8.95178 11.9102 8.92541 11.9227C8.83047 11.9677 8.7377 12.0169 8.64674 12.0702C8.61357 12.0896 8.58092 12.1096 8.54828 12.13C8.51274 12.1525 8.47536 12.1712 8.44064 12.1952C8.41087 12.2157 8.38417 12.2397 8.35504 12.2609C8.27255 12.3193 8.1926 12.3811 8.1138 12.446C8.09766 12.4595 8.08144 12.4729 8.06546 12.4866C7.57654 12.9017 7.16492 13.4335 6.8998 14.0323C6.75536 14.3578 6.65106 14.7074 6.58946 15.0706C6.58847 15.0764 6.58818 15.0829 6.58725 15.0886C6.58725 15.0885 6.5872 15.0888 6.58725 15.0886C6.56476 15.2233 6.5477 15.3625 6.53632 15.5044C6.53563 15.5127 6.53403 15.5201 6.53339 15.5284C6.52969 15.5768 6.52924 15.6253 6.52878 15.6726C6.52872 15.6801 6.52872 15.6885 6.52867 15.6968C6.52745 15.7248 6.52617 15.7528 6.5253 15.781C6.51683 15.7901 6.50754 15.8007 6.49901 15.8099C6.0432 16.2552 5.66975 16.7588 5.36183 17.255C5.35768 17.2616 5.35318 17.2674 5.34903 17.2741C5.34239 17.2848 5.33662 17.2959 5.33005 17.3066C5.24751 17.4414 5.16969 17.5742 5.09671 17.7058C5.06662 17.7593 5.0365 17.8128 5.0072 17.8667C4.98563 17.9071 4.96577 17.9459 4.94501 17.9857C4.32571 19.1534 3.89632 20.3781 3.55484 21.4564C3.5388 21.5072 3.52512 21.5584 3.50931 21.6092C3.41991 21.8984 3.33592 22.1811 3.25729 22.4554C3.22794 22.5582 3.19812 22.6605 3.16963 22.7633C3.16519 22.7791 3.16028 22.7958 3.1559 22.8115C2.83783 23.9455 2.57248 25.0758 2.347 26.1071C2.34613 26.1108 2.34521 26.1147 2.34439 26.1184C2.15405 26.9662 1.98128 27.814 1.81538 28.6665C1.68439 29.3292 1.56312 29.9696 1.45094 30.5933C1.43773 30.6649 1.42435 30.7357 1.41109 30.8074C1.18651 32.0209 0.992293 33.3174 0.828932 34.6627C0.814116 34.7821 0.799452 34.9025 0.784911 35.0235C0.77806 35.0828 0.770156 35.1406 0.763411 35.2001C0.761382 35.2178 0.759658 35.2357 0.757704 35.2533C0.728453 35.5032 0.699538 35.7555 0.671568 36.0132C0.528105 37.3309 0.416792 38.6441 0.336958 39.9251C0.332915 39.9848 0.328017 40.0444 0.324095 40.1041C0.217039 41.7244 0.153807 43.3513 0.101439 44.8681C0.0943891 45.0717 0.0879347 45.2784 0.0816938 45.4868C0.0537854 46.3931 0.0368329 47.2785 0.0255719 48.1059C0.0248852 48.1574 0.0241833 48.21 0.0234967 48.262C0.022337 48.3522 0.0211926 48.4416 0.020155 48.5302C0.0166454 48.8183 0.0134106 49.1115 0.0107555 49.417C-0.00354203 51.0453 -0.00360313 52.5399 0.0106943 53.9848C0.0106943 53.9889 0.0107553 53.9928 0.0107553 53.9969C0.0108011 54.0016 0.0108621 54.006 0.0108621 54.0106C0.0110452 54.0253 0.011091 54.0404 0.0112131 54.055C0.0113199 54.0647 0.011442 54.0738 0.011564 54.0835C0.0242593 55.6366 0.0498024 56.9967 0.0899025 58.236C0.0942207 58.3712 0.0995918 58.506 0.1042 58.6411C0.106275 58.7046 0.108228 58.7691 0.110426 58.8322C0.158643 60.235 0.219572 61.867 0.334485 63.4815C0.335904 63.5015 0.337415 63.521 0.338849 63.5411C0.419492 64.7961 0.528226 66.0861 0.666257 67.3878C0.71623 67.8591 0.771085 68.3231 0.828183 68.7831C0.964368 69.9182 1.14077 71.0971 1.35374 72.3009C1.54278 73.3891 1.7559 74.5095 1.99022 75.6473C1.99696 75.6806 2.00395 75.7144 2.01082 75.7479C2.03497 75.8648 2.05795 75.9807 2.08252 76.0978C2.08984 76.1328 2.09774 76.1697 2.10513 76.2049C2.13235 76.3353 2.1602 76.4665 2.18818 76.5979C2.18899 76.6018 2.1898 76.6057 2.19061 76.6096C2.22516 76.7719 2.26005 76.9342 2.29571 77.0975C2.43155 77.7223 2.58119 78.381 2.74495 79.0517C2.76524 79.1353 2.78557 79.2187 2.80644 79.3031C2.81913 79.3542 2.83206 79.4053 2.84491 79.4564C3.0209 80.1599 3.21681 80.8863 3.43808 81.6091C3.64448 82.2915 3.85087 82.9024 4.06573 83.4691C4.30519 84.1116 4.5767 84.7549 4.90232 85.3798C5.12596 85.8159 5.40081 86.2868 5.7333 86.7426C5.74577 86.7598 5.75857 86.7752 5.77104 86.7922C5.8526 86.9022 5.9355 87.0117 6.02426 87.1188C6.02687 87.1219 6.0294 87.1256 6.03199 87.1288C6.12567 87.2423 6.22328 87.3528 6.32434 87.4601C6.32653 87.4625 6.32953 87.4649 6.33184 87.4673C6.39332 87.5321 6.4604 87.5925 6.52507 87.6551C6.53177 87.8958 6.54998 88.1312 6.58714 88.3535C6.59175 88.3813 6.60006 88.4081 6.60525 88.4358C6.6094 88.4621 6.61085 88.4876 6.61622 88.5141C6.69214 88.8897 6.81396 89.2474 6.97802 89.5766C7.24842 90.1203 7.63168 90.5965 8.08346 90.9731C8.19738 91.0702 8.31651 91.1619 8.44064 91.2476C9.07261 91.684 9.83363 91.8693 10.5764 91.9835C10.5799 91.9842 10.5833 91.9847 10.5867 91.9853C10.5958 91.9867 10.605 91.9883 10.6142 91.9897C11.5342 92.1542 12.4808 92.2257 13.4446 92.2753C13.8713 92.2996 14.3106 92.3176 14.7679 92.3316C15.8763 92.3685 17.074 92.3826 18.4697 92.3747C18.7294 92.3734 18.9877 92.3706 19.246 92.3679C19.5011 92.3662 19.7568 92.3645 20.0092 92.3625L20.0332 92.3623C20.9035 92.3556 21.787 92.333 22.6414 92.3111C22.974 92.3025 23.3066 92.2941 23.6392 92.2865L28.8383 92.1689C28.8508 92.1687 28.8636 92.1682 28.8763 92.1679L28.9626 92.1659C29.4551 92.1547 29.9475 92.1403 30.44 92.1249C31.3123 92.0987 32.1904 92.0699 33.0838 92.0383C33.1468 92.0361 33.2115 92.0326 33.2747 92.0302C33.4817 92.0223 33.688 92.0135 33.8926 92.0037C34.7617 91.9632 35.6548 91.9064 36.5883 91.8311C36.667 91.8251 36.7478 91.819 36.8233 91.8131C37.4635 91.7635 38.2216 91.6969 39.0251 91.5983C39.7136 91.5169 40.4273 91.4113 41.1411 91.2637C42.1681 91.0627 43.1491 90.8139 43.971 90.2948C43.9731 90.2935 43.9751 90.2925 43.9772 90.2912C43.9827 90.2879 43.987 90.2844 43.9924 90.2811L59.7017 90.4422C59.7107 90.489 59.7222 90.5348 59.735 90.5805C59.7371 90.5885 59.7393 90.5965 59.7416 90.6044C59.7531 90.6433 59.7654 90.6812 59.7793 90.7187C59.7856 90.7358 59.7923 90.7526 59.7993 90.7695C59.8318 90.8498 59.8675 90.9275 59.9085 90.9973C59.9656 91.0945 60.0354 91.1768 60.1098 91.2529C60.1252 91.2691 60.1419 91.2839 60.1581 91.2993C60.2029 91.3412 60.249 91.3806 60.2977 91.4164C60.3166 91.4302 60.3345 91.4453 60.3541 91.4583C60.3602 91.4623 60.3669 91.4653 60.373 91.4693C60.4329 91.5086 60.494 91.5439 60.5568 91.5759C61.181 91.9107 61.9349 92.0014 62.6093 92.0801L62.6505 92.0851C63.0017 92.1328 63.3507 92.1714 63.6952 92.2013C63.7873 92.2099 63.8774 92.2158 63.9687 92.2233C64.0699 92.2313 64.1728 92.2406 64.2726 92.2478C64.3004 92.2499 64.3277 92.2505 64.3555 92.2524C64.5326 92.2643 64.7074 92.2735 64.8814 92.2812C64.9826 92.2858 65.0836 92.2902 65.1843 92.2934C65.3482 92.2985 65.5097 92.3011 65.6704 92.3024C65.7259 92.3029 65.7824 92.3055 65.8377 92.3055C65.8831 92.3055 65.9275 92.3036 65.9727 92.3033C66.0403 92.3029 66.1101 92.3051 66.1771 92.3039C66.8993 92.2917 67.559 92.2488 68.1709 92.1763C68.7079 92.1188 69.249 92.0329 69.7759 91.8895C69.8602 91.8677 69.9471 91.8427 70.0348 91.8154C70.0381 91.8144 70.0416 91.8135 70.0449 91.8124C70.0813 91.801 70.122 91.7869 70.1635 91.7722C70.5738 91.63 70.9797 91.4171 71.1825 91.0748C71.2668 90.9325 71.3082 90.777 71.3099 90.6162C71.3103 90.601 71.3118 90.5859 71.3114 90.5707C71.3113 90.57 71.3114 90.5694 71.3114 90.5687L72.2524 90.573L84.3952 90.6299C84.9146 90.6333 85.4342 90.6337 85.9538 90.6348C86.1584 90.6353 86.3631 90.6369 86.5678 90.6369C86.5794 90.6369 86.5909 90.6369 86.6024 90.6369C86.6587 90.6367 86.715 90.6375 86.7713 90.6373L97.3171 90.5981C97.3246 90.5981 97.3321 90.5979 97.3396 90.5979L99.1404 90.5911C99.1319 90.6224 99.1241 90.6541 99.1156 90.6855C99.0824 90.8101 99.0495 90.9346 99.0175 91.0597C98.7155 92.2113 98.4457 93.3764 98.1851 94.5118L98.003 95.3032C97.9963 95.3321 97.9891 95.3607 97.9825 95.3895C97.9766 95.4149 97.9713 95.4429 97.9655 95.469C97.9553 95.5152 97.9453 95.5618 97.9357 95.6092C97.9302 95.6363 97.9248 95.6626 97.9196 95.6902C97.84 96.1048 97.7976 96.5561 97.9204 96.9991C98.0693 97.5352 98.4875 97.8883 99.0517 97.9892C99.0648 97.9917 99.0773 97.9951 99.0906 97.9974C99.1752 98.0105 99.2628 98.0179 99.3534 98.0196C99.3654 98.0198 99.3761 98.0224 99.3881 98.0224C99.4031 98.0224 99.4184 98.0222 99.4334 98.022ZM27.3613 84.6622C25.6488 84.4391 24.3355 84.246 23.1034 84.0358C21.5939 83.7785 20.3571 83.5131 19.2109 83.2005C18.2674 82.9432 17.0567 82.5616 16.0597 81.889C15.6308 81.5995 15.2445 81.2443 14.8999 80.8305L26.3401 76.6452C26.6167 76.7638 26.8858 76.8646 27.132 76.9494C28.0766 77.2748 29.0478 77.5316 30.0178 77.7127C31.1539 77.925 32.2776 78.0417 33.1295 78.1197C34.0392 78.203 35.0402 78.2679 36.2797 78.3239C37.3351 78.3715 38.387 78.4005 39.3667 78.4248C40.3593 78.4492 41.3438 78.4628 42.3489 78.476C42.6863 78.4804 43.0236 78.4854 43.3609 78.4905C44.0264 78.5009 44.6918 78.5111 45.357 78.515C45.4719 78.5157 45.5868 78.5159 45.702 78.5159C45.8162 78.5159 45.9304 78.5157 46.0446 78.5155L58.6289 78.5146L58.6289 86.2212L58.2392 86.2194C57.8259 86.2192 57.4124 86.219 56.9994 86.2109C55.7477 86.1869 54.4959 86.1618 53.244 86.1366L51.8356 86.1082C50.7915 86.0877 49.705 86.0593 48.5135 86.0217C48.0753 86.0076 47.6369 85.9954 47.1985 85.9829C46.2737 85.9571 45.3175 85.9301 44.3794 85.8872L39.2245 85.6509C38.2776 85.6075 37.3136 85.5448 36.3814 85.4841C35.9719 85.4576 35.5621 85.4308 35.1523 85.4056C33.8152 85.3233 32.4492 85.1991 31.2441 85.0895C29.9232 84.9695 28.6168 84.8256 27.3613 84.6622ZM10.1633 59.2657C10.0989 57.7969 10.0666 56.2936 10.0412 54.9999C10.0175 53.774 10.0101 52.5126 10.0191 51.2507L10.0242 50.4314C10.0311 49.2747 10.0382 48.0788 10.0719 46.9048C10.1137 45.4593 10.1578 44.0451 10.2388 42.6383C10.3147 41.3243 10.4049 39.9101 10.5493 38.4712C10.7032 36.9382 10.8795 35.5704 11.0879 34.2899C11.3147 32.8974 11.5821 31.6341 11.9053 30.4276C12.2242 29.237 12.6068 27.9474 13.0747 26.4853C13.1395 26.2827 13.207 26.074 13.2766 25.8633L23.3962 29.5913C23.3076 29.7753 23.2281 29.9549 23.1576 30.1235C22.7612 31.0723 22.4421 32.072 22.149 33.0146C21.8544 33.9629 21.6077 34.9484 21.416 35.9438C21.2305 36.9062 21.0784 37.9209 20.9506 39.0467C20.8339 40.0748 20.7406 41.1058 20.6735 42.1106C20.6029 43.1727 20.5452 44.2763 20.5021 45.3905C20.4615 46.4408 20.44 47.501 20.4229 48.4902C20.4051 49.5086 20.3954 50.5887 20.3943 51.7011C20.3936 52.7329 20.401 53.6859 20.4171 54.6143C20.4361 55.6986 20.4591 56.8601 20.5004 58.0082C20.5387 59.0744 20.6001 60.1213 20.665 61.1891C20.7208 62.1118 20.805 63.0871 20.9153 64.0876C21.0491 65.2973 21.1903 66.2863 21.3599 67.1998C21.5581 68.2674 21.7926 69.2455 22.0766 70.1898C22.3209 71.002 22.655 72.0683 23.0747 73.116C23.1702 73.3542 23.2769 73.6022 23.3965 73.8513L13.2679 77.5643C13.0724 76.9876 12.8948 76.4045 12.7205 75.8311L12.6488 75.5955C12.2863 74.4058 11.8742 73.0219 11.5719 71.6536C11.302 70.4298 11.0645 69.0839 10.8465 67.5387C10.6815 66.37 10.5484 65.1188 10.4275 63.6008C10.3161 62.196 10.227 60.7376 10.1633 59.2657ZM17.0814 20.9873C18.1481 20.4993 19.2792 20.1947 20.6495 19.8874C22.1031 19.5611 23.5358 19.3274 24.7455 19.1417C26.2144 18.9165 27.668 18.7388 28.8962 18.5951C30.1066 18.4529 31.3756 18.3283 32.7753 18.2139C34.2035 18.0971 35.6237 18.0074 37.1992 17.9105C38.351 17.8396 39.578 17.775 41.0612 17.707C41.4348 17.6899 41.8083 17.6717 42.1816 17.6537C43.0937 17.6094 44.0368 17.5634 44.9632 17.5339L50.1136 17.3694C51.0029 17.341 51.909 17.3263 52.7851 17.3119C53.2082 17.305 53.6314 17.2981 54.0541 17.2898C54.3949 17.2831 54.7357 17.2748 55.0765 17.2665C55.7871 17.2494 56.522 17.2319 57.2431 17.2287L58.6289 17.2225L58.6289 24.9284L46.1431 24.9276C45.887 24.9271 45.6316 24.9266 45.3764 24.928C44.7776 24.9308 44.1786 24.9403 43.5799 24.9495L42.1713 24.9691C41.3519 24.9793 40.5326 24.9894 39.7135 25.0097C38.7146 25.0344 37.533 25.0665 36.342 25.1163C35.3088 25.1595 34.2649 25.2257 33.2395 25.3136C32.0928 25.4114 31.1415 25.5307 30.2457 25.6885C29.2739 25.8597 28.3057 26.1039 27.368 26.4137C27.0384 26.5227 26.6898 26.6472 26.3399 26.7973L14.9047 22.5957C15.4729 21.9306 16.2009 21.3902 17.0814 20.9873ZM78.922 17.1315L100.746 17.1315C101.539 17.132 102.331 17.1357 103.123 17.1394L105.207 17.147C106.307 17.1495 107.443 17.1523 108.559 17.1749C109.594 17.1958 110.507 17.2325 111.384 17.3198C110.6 17.6372 109.816 17.9543 109.032 18.2741C107.454 18.9186 105.84 19.6091 104.237 20.3267C102.341 21.1754 100.498 22.0219 98.7615 22.8427C97.1385 23.6096 95.5061 24.4196 93.9253 25.2043C93.7102 25.1906 93.4968 25.1787 93.2868 25.168C92.3613 25.1209 91.4223 25.0981 90.5141 25.0762L89.9839 25.063C89.3408 25.0466 88.6982 25.0386 88.0549 25.0319L79.1548 24.9389C78.8202 24.9347 78.4859 24.9306 78.1515 24.9294C77.8857 24.9285 77.6197 24.929 77.3539 24.929L76.9566 24.9294L62.5511 24.9286L62.5511 18.8634C62.5511 18.758 62.5544 18.6511 62.5576 18.5438C62.5701 18.1222 62.583 17.6507 62.4059 17.2056L78.9181 17.1315L78.922 16.7771L78.922 17.1315ZM112.402 82.1481C111.317 81.7347 110.251 81.3057 109.26 80.904C107.898 80.3519 106.78 79.8906 105.741 79.4525C104.579 78.9626 103.696 78.5833 102.878 78.2222L99.2067 76.6025C99.7095 76.2219 100.193 75.7597 100.67 75.2003C101.242 74.5293 101.787 73.7522 102.387 72.7545C102.951 71.8158 103.407 70.933 103.78 70.0549C104.16 69.1638 104.486 68.2212 104.777 67.1737C105.035 66.245 105.254 65.2734 105.446 64.2032C105.624 63.2092 105.774 62.1575 105.905 60.9882C106.013 60.0297 106.098 59.0348 106.16 58.0308C106.234 56.8333 106.279 55.8455 106.303 54.9226C106.328 53.9621 106.343 52.9454 106.349 51.723L106.349 51.7212C106.349 50.7601 106.336 49.7952 106.312 48.8529C106.282 47.7177 106.24 46.7027 106.181 45.7504C106.111 44.6129 106.024 43.5645 105.915 42.5453C105.805 41.5206 105.661 40.483 105.485 39.4613C105.309 38.435 105.09 37.4299 104.833 36.4742C104.558 35.45 104.234 34.4832 103.869 33.6007C103.506 32.7213 103.053 31.8182 102.523 30.9168C101.927 29.9038 101.381 29.1053 100.804 28.4034C100.285 27.7715 99.7588 27.2567 99.2075 26.84L102.878 25.2206C103.704 24.856 104.587 24.4765 105.741 23.9901C106.783 23.551 107.901 23.0898 109.26 22.5388C110.251 22.1371 111.317 21.7081 112.402 21.2947C113.53 20.8651 115.709 20.2204 117.025 19.745C117.517 20.2304 117.944 20.7346 118.302 21.1798C119.074 22.1415 119.791 23.2301 120.432 24.4153C121.023 25.509 121.595 26.7229 122.18 28.1265C122.652 29.2562 123.106 30.4779 123.655 32.088C124.109 33.4221 124.506 34.7386 124.834 36.0014C125.16 37.2589 125.442 38.6007 125.672 39.9895C125.888 41.301 126.065 42.6688 126.197 44.055C126.316 45.3081 126.405 46.6796 126.469 48.2484C126.521 49.4999 126.54 50.7985 126.528 52.2184C126.515 53.81 126.475 55.2272 126.407 56.5509C126.336 57.9182 126.227 59.2486 126.082 60.5055C125.91 61.9909 125.705 63.3488 125.457 64.6566C125.2 66.0071 124.884 67.3387 124.516 68.6142C124.156 69.8652 123.73 71.1776 123.216 72.6264C122.739 73.9679 122.225 75.2595 121.687 76.4654C121.075 77.8376 120.477 79.0053 119.86 80.0348C119.191 81.1495 118.417 82.1927 117.56 83.1352C117.352 83.3632 117.149 83.5712 116.947 83.7666C115.624 83.2862 113.508 82.5691 112.402 82.1481ZM62.5576 84.899C62.5544 84.7917 62.5511 84.6848 62.5511 84.5794L62.5511 78.5144L74.1197 78.5136L77.2429 78.5138L78.116 78.5136C78.4008 78.5131 78.6855 78.5097 78.9704 78.506L88.1467 78.4105C88.6578 78.4054 89.1687 78.4005 89.6795 78.3876L90.3226 78.3717C91.2155 78.3502 92.1387 78.3279 93.0478 78.2861C93.335 78.2729 93.6283 78.2569 93.9238 78.2378L94.2612 78.4056C96.1786 79.3579 97.9458 80.2153 99.6639 81.027C101.291 81.7953 102.941 82.5482 104.569 83.2649C106.282 84.0185 108.082 84.7808 109.92 85.5309C110.408 85.73 110.897 85.9243 111.387 86.119C111.352 86.1223 111.316 86.1263 111.281 86.1295C110.21 86.2273 109.041 86.2771 107.602 86.2859C106.444 86.2935 105.286 86.2967 104.128 86.3L102.114 86.3064C101.51 86.309 100.907 86.3113 100.303 86.3113L79.6892 86.3115C79.3678 86.3115 79.0459 86.3117 78.724 86.3104L69.9201 86.2707L62.4056 86.2377C62.583 85.7926 62.5702 85.3208 62.5576 84.899ZM160.852 83.6807C160.341 84.3817 159.738 84.9495 159.062 85.3683C158.114 85.9546 157.086 86.189 156.169 86.03C155.361 85.8893 154.628 85.4142 154.157 84.7266C153.599 83.9102 153.378 82.803 153.535 81.6084L153.536 81.6008C153.555 81.4896 153.684 80.8581 153.702 80.7893C153.946 79.8971 154.384 79.0346 154.97 78.2946C155.519 77.6027 156.156 77.0577 156.863 76.6749C157.854 76.138 158.901 75.9864 159.808 76.2485C160.615 76.4813 161.308 77.0627 161.71 77.8433C162.165 78.7284 162.282 79.8592 162.04 81.0279C161.846 81.9631 161.435 82.8805 160.852 83.6807ZM162.04 22.4149C162.282 23.5835 162.165 24.7144 161.71 25.5992C161.308 26.3801 160.615 26.9615 159.809 27.1943C158.901 27.4564 157.855 27.3051 156.863 26.7677C156.156 26.3851 155.519 25.8404 154.97 25.1482C154.384 24.4082 153.946 23.5457 153.702 22.6548C153.684 22.5847 153.555 21.9534 153.536 21.8422L153.535 21.8344C153.378 20.6398 153.599 19.5323 154.157 18.716C154.628 18.0286 155.361 17.5535 156.169 17.4128C157.086 17.254 158.114 17.4882 159.062 18.0745C159.739 18.4935 160.341 19.0611 160.852 19.7621C161.435 20.5623 161.846 21.4797 162.04 22.4149ZM9.21176 17.7065L9.34303 17.7333C10.0959 17.8855 10.9489 18.0584 11.4875 18.5286C11.7138 18.7263 11.8248 19.0076 11.8361 19.4135C11.8451 19.7416 11.7948 20.096 11.6677 20.5801C11.5669 20.9656 11.4626 21.3643 11.2694 21.6797C10.99 22.1371 10.4342 22.4144 9.89656 22.6825C9.7189 22.7711 9.53502 22.863 9.36404 22.9599C8.50722 23.446 7.70587 23.9897 6.98857 24.5076C7.20558 23.4634 7.47185 22.2521 7.81604 21.0406C8.19191 19.7173 8.57677 18.6453 9.02515 17.6705C9.08734 17.6825 9.14957 17.6938 9.21176 17.7065ZM9.36404 80.4829C9.53477 80.5798 9.71821 80.6712 9.89564 80.7598C10.4337 81.0279 10.9898 81.3055 11.2697 81.763C11.4626 82.0784 11.5669 82.4772 11.6723 82.8805C11.7948 83.3468 11.8451 83.7012 11.8361 84.0293C11.8248 84.4352 11.7138 84.7164 11.4875 84.9142C10.9489 85.3844 10.0959 85.5572 9.34303 85.7095L9.21176 85.7363C9.15066 85.7489 9.08888 85.7608 9.02601 85.7728C8.80923 85.301 8.60295 84.7961 8.40556 84.2492C8.03869 83.233 7.71267 82.111 7.37996 80.7178C7.23828 80.1246 7.10577 79.5276 6.98262 78.931C7.70137 79.4501 8.50485 79.9955 9.36404 80.4829Z" fill="#BFF5F0"/>
<path d="M44.1357 48.5649C43.2684 47.9411 43.8522 46.5745 44.9026 46.77L59.8622 49.554C60.4772 49.6684 61.0451 49.1964 61.0451 48.5708L61.0451 39.3133C61.0451 38.4984 61.9675 38.0257 62.629 38.5015L86.177 55.4378C87.0443 56.0616 86.4606 57.4281 85.4103 57.2328L70.4495 54.4504C69.8345 54.336 69.2666 54.808 69.2666 55.4335L69.2666 64.6887C69.2666 65.5036 68.3443 65.9763 67.6827 65.5006L44.1357 48.5649Z" fill="#64B8B0"/>
<path d="M149.369 95.5342L149.369 100.744C149.369 101.849 148.474 102.744 147.369 102.744L133.344 102.744C132.239 102.744 131.344 101.849 131.344 100.744L131.344 95.5342L149.369 95.5342Z" fill="#BFF5F0"/>
<path d="M34.0078 95.5342L34.0078 100.744C34.0078 101.849 33.1124 102.744 32.0078 102.744L17.9825 102.744C16.8779 102.744 15.9825 101.849 15.9825 100.744L15.9825 95.5342L34.0078 95.5342Z" fill="#BFF5F0"/>
<path d="M149.369 7.20996L149.369 1.99983C149.369 0.895261 148.474 -0.000169793 147.369 -0.000169841L133.344 -0.000170455C132.239 -0.000170503 131.344 0.89526 131.344 1.99983L131.344 7.20996L149.369 7.20996Z" fill="#BFF5F0"/>
<path d="M34.0078 7.20996L34.0078 1.99983C34.0078 0.895261 33.1124 -0.000169793 32.0078 -0.000169841L17.9825 -0.000170455C16.8779 -0.000170503 15.9825 0.89526 15.9825 1.99983L15.9825 7.20996L34.0078 7.20996Z" fill="#BFF5F0"/>
</svg>
