<svg width="25" height="25" viewBox="0 0 25 25" fill="none" xmlns="http://www.w3.org/2000/svg">
<path d="M8.69393 22.3961C8.42717 22.3961 8.20357 22.3059 8.02312 22.1254C7.84267 21.945 7.75244 21.7213 7.75244 21.4546V5.35889C7.75244 5.09212 7.84267 4.86851 8.02312 4.68806C8.20357 4.50761 8.42717 4.41738 8.69393 4.41738H10.5769V2.60449H14.4231V4.41738H16.3081C16.5752 4.41738 16.7985 4.50761 16.9781 4.68806C17.1577 4.86851 17.2475 5.09212 17.2475 5.35889V12.6005C15.6383 12.7046 14.2778 13.34 13.1661 14.5065C12.0543 15.6731 11.4984 17.0776 11.4984 18.7202C11.4984 19.412 11.6072 20.0704 11.8249 20.6954C12.0426 21.3204 12.3531 21.8873 12.7564 22.3961H8.69393ZM9.31489 10.5372H15.6851V5.96983H9.31489V10.5372ZM17.2276 22.6465V19.7118H15.1242L18.1891 14.8541V17.7888H20.2924L17.2276 22.6465Z" fill="#989EA5"/>
</svg>
