<svg width="52.5" height="33" viewBox="0 0 35 22" fill="none" xmlns="http://www.w3.org/2000/svg">
<g clip-path="url(#clip0_455_1411)">
<path d="M18.6283 4.24727L18.7399 4.21813C20.7559 3.70441 22.6846 3.23269 24.2994 2.86219L24.4219 2.83017C26.4704 2.36048 27.9937 2.06124 28.5139 2.05729C28.9163 2.04553 29.3162 2.11233 29.6903 2.2538C30.0645 2.39527 30.4054 2.60859 30.6933 2.88135C31.5628 3.67872 32.2021 5.04846 32.7128 7.00372C33.2234 8.95898 33.3359 10.4727 32.9677 11.5946C32.8498 11.9731 32.6566 12.3257 32.3993 12.6319C32.1421 12.938 31.8259 13.1916 31.4692 13.378C31.0102 13.6259 29.5385 14.1127 27.5223 14.7059L27.3997 14.7379C25.81 15.2043 23.8969 15.736 21.8872 16.2737L21.7756 16.3028C19.461 16.9214 17.0205 17.5447 14.8037 18.0917L14.6333 18.1362L13.7714 18.3459C10.9949 19.016 8.68301 19.5251 7.58763 19.678C3.81512 20.2048 2.43436 14.918 2.43436 14.918C2.43436 14.918 1.05392 9.63247 4.60744 8.2421C5.63895 7.84464 7.9029 7.15219 10.6528 6.38019L11.5069 6.1405L11.6773 6.09599C13.8735 5.48526 16.3019 4.84079 18.6283 4.24727Z" fill="#21BC4D"/>
<path d="M21.5408 15.3976L21.6524 15.3684L21.89 16.2783L21.7785 16.3075L21.5408 15.3976Z" fill="#404958"/>
<path d="M18.6276 4.24641L18.7391 4.21728L18.9764 5.12598L18.8649 5.15511L18.6276 4.24641Z" fill="#404958"/>
<path d="M26.5166 13.6598L26.8554 14.0093L27.5219 14.7061L27.3993 14.7381L26.7242 14.0385L26.4292 13.7313L26.5166 13.6598Z" fill="#404958"/>
<path d="M24.2955 2.85784L24.4181 2.82582L24.1722 3.75955L24.0476 4.23006L23.9373 4.2038L24.0444 3.79165L24.2955 2.85784Z" fill="#404958"/>
<path d="M30.696 2.88759C31.5594 3.68656 32.2036 5.05501 32.7143 7.01027C33.2249 8.96553 33.3374 10.4741 32.9697 11.5934C32.1657 12.0767 31.2741 12.4009 30.346 12.5475L29.489 7.85262L27.9404 3.33707C28.822 3.01182 29.7583 2.85909 30.696 2.88759Z" fill="#28D459"/>
<path d="M3.41521 14.6656C3.41521 14.6656 3.99037 16.8678 4.83678 16.5187L3.74783 12.3493C2.84037 12.4646 3.41521 14.6656 3.41521 14.6656Z" fill="#2B3545"/>
<path d="M6.80367 18.8972L7.67019 18.8156C7.94036 18.7904 8.19894 18.6923 8.41719 18.5323C8.63544 18.3722 8.80482 18.1563 8.90651 17.9088L8.91379 17.8915L8.34457 15.7121L4.93423 16.6028C4.85442 16.6243 4.7806 16.6637 4.71861 16.7178C4.65662 16.772 4.60815 16.8393 4.57703 16.9147C4.5459 16.99 4.53297 17.0712 4.53926 17.1518C4.54555 17.2325 4.57089 17.3104 4.61327 17.3794L4.99705 18.0065C5.1817 18.3064 5.44873 18.5487 5.76797 18.7061C6.08722 18.8635 6.44596 18.9297 6.80367 18.8972Z" fill="white"/>
<path d="M4.32702 9.41262L5.12277 9.06008C5.37076 8.94995 5.64428 8.90907 5.91294 8.94199C6.1816 8.97491 6.43488 9.08034 6.64464 9.24656L6.65943 9.25806L7.22864 11.4375L3.81829 12.3282C3.73814 12.3484 3.65449 12.3502 3.57395 12.3333C3.49341 12.3164 3.41818 12.2813 3.3542 12.2308C3.29022 12.1803 3.23924 12.1158 3.20529 12.0424C3.17134 11.969 3.15534 11.8886 3.15856 11.8077L3.18667 11.073C3.20112 10.7212 3.31556 10.3792 3.51707 10.0858C3.71858 9.79242 3.99913 9.55924 4.32702 9.41262Z" fill="white"/>
<path d="M5.32622 17.7154C5.55175 18.0547 5.88106 18.3149 6.26763 18.4591C6.65421 18.6033 7.07853 18.6242 7.4807 18.519L12.3584 17.2451L9.95287 8.03465L5.07517 9.30858C4.67267 9.41371 4.31266 9.63991 4.04605 9.9552C3.77945 10.2705 3.61972 10.6589 3.58947 11.0655C3.41253 13.4164 4.02234 15.7513 5.32622 17.7154Z" fill="#28D459"/>
<path d="M4.17794 12.4169C3.96561 12.5 3.7859 12.6484 3.66597 12.8396C3.54605 13.0308 3.49242 13.2544 3.51321 13.4766C3.55361 13.8477 3.62323 14.2149 3.72144 14.5748C3.81177 14.9368 3.93058 15.2911 4.07678 15.6345C4.1673 15.8387 4.32342 16.0077 4.52156 16.116C4.7197 16.2244 4.94911 16.2662 5.17515 16.2351L11.8571 15.3262L10.4531 9.95071L4.17794 12.4169Z" fill="#28D459"/>
<path d="M9.95302 8.0348L10.9716 7.92372L13.5896 7.6395L16.4543 7.32673L16.8158 8.50522C17.0844 9.38013 17.3316 10.2615 17.5574 11.1493C17.7597 11.9237 17.9444 12.7028 18.1115 13.4864L18.3724 14.6911L15.7881 15.7912L13.3666 16.8232L12.3555 17.2537C11.4039 15.9291 10.7056 14.4444 10.2942 12.8708C10.2676 12.7689 10.241 12.667 10.214 12.5639C9.8673 11.0822 9.77905 9.55093 9.95302 8.0348Z" fill="#2B3545"/>
<path d="M28.3762 12.7924C28.8329 12.8955 29.2735 13.0558 29.6873 13.2695L13.5059 17.4957L16.4538 16.138L18.6746 15.1149C19.1246 14.9078 19.5879 14.7303 20.0614 14.5836L22.8897 13.7054L25.456 12.9071C26.404 12.6122 27.4129 12.5726 28.3762 12.7924Z" fill="#2B3545"/>
<path d="M10.8291 7.25567L16.5056 6.80399C16.9995 6.76502 17.4905 6.69367 17.9754 6.59045L23.4993 5.41412C24.2142 5.26214 24.893 4.97308 25.4963 4.56363C26.0996 4.15418 26.6155 3.63245 27.0142 3.02857L10.8328 7.25471L10.8291 7.25567Z" fill="#2B3545"/>
<path d="M27.9396 3.33649C29.7069 3.58562 30.636 5.50333 31.0207 6.61043C31.1126 6.86619 31.1902 7.12676 31.2534 7.39101C31.2534 7.39101 32.3586 11.0158 30.3451 12.547L29.8535 12.3744L29.06 12.0989L27.8539 11.6775C27.8539 11.6775 28.2031 10.6579 27.8455 8.86246C27.8108 8.68455 27.7675 8.49865 27.7174 8.30684C27.1622 6.18135 26.1904 5.30825 26.1904 5.30825L27.0307 4.35887L27.3452 4.00395L27.9396 3.33649Z" fill="#2B3545"/>
<path opacity="0.1" d="M19.1308 14.472C19.1308 14.472 18.369 10.0058 17.2936 7.43735C17.2936 7.43735 23.2666 6.0054 25.3085 5.80635C25.3085 5.80635 24.0605 11.6273 19.1308 14.472Z" fill="white"/>
<path opacity="0.1" d="M11.4838 12.523C13.5413 12.3186 15.6474 11.9491 17.5572 11.1494C17.7595 11.9238 17.9442 12.7028 18.1113 13.4864L18.3723 14.6912L12.3584 17.2453C11.4067 15.9207 10.7084 14.436 10.297 12.8624C10.2704 12.7605 10.2438 12.6586 10.2169 12.5555C10.6891 12.5436 11.1431 12.5569 11.4838 12.523Z" fill="white"/>
<path opacity="0.1" d="M9.95183 8.03405L10.9704 7.92298C10.9314 8.92694 10.9907 9.93121 11.1474 10.922C11.3463 12.1854 11.6997 13.419 12.2 14.5964C12.511 15.3258 13.0552 16.0557 13.3697 16.8188L12.3586 17.2493C11.4069 15.9247 10.7086 14.4399 10.2973 12.8664C10.2707 12.7645 10.244 12.6626 10.2171 12.5595C9.86938 11.0792 9.77969 9.5492 9.95183 8.03405Z" fill="#080808"/>
<path opacity="0.05" d="M9.95211 8.03422L10.9707 7.92315L13.5887 7.63893C13.643 10.4953 14.3983 13.2894 15.7908 15.7846L13.3694 16.8165L12.3583 17.2471C11.4066 15.9225 10.7083 14.4377 10.2969 12.8642C10.2703 12.7623 10.2437 12.6604 10.2168 12.5573C9.86952 11.0777 9.78004 9.54855 9.95211 8.03422Z" fill="white"/>
<path opacity="0.1" d="M31.0252 6.60602C31.117 6.86178 31.1947 7.12235 31.2579 7.3866C31.2579 7.3866 32.3575 11.0154 30.3441 12.5465L27.8535 11.6795C27.8535 11.6795 28.2027 10.6599 27.8451 8.86444C27.9562 8.82518 28.065 8.77966 28.1709 8.72813C29.2442 8.19571 30.2116 7.47654 31.0252 6.60602Z" fill="white"/>
<path opacity="0.1" d="M27.9396 3.33649C29.7069 3.58562 30.636 5.50333 31.0207 6.61043C31.1126 6.86619 31.1902 7.12676 31.2534 7.39101C31.2534 7.39101 32.3586 11.0158 30.3451 12.547L29.8535 12.3744C30.9855 11.1234 31.0822 9.05694 30.6423 7.54805C30.1948 6.00016 29.3037 4.29793 27.589 3.72899L27.9396 3.33649Z" fill="#080808"/>
<path opacity="0.05" d="M27.9396 3.33649C29.7069 3.58562 30.636 5.50333 31.0207 6.61043C31.1126 6.86619 31.1902 7.12676 31.2534 7.39101C31.2534 7.39101 32.3586 11.0158 30.3451 12.547L29.8535 12.3744L29.06 12.0989C29.5731 10.7518 29.6537 9.28711 29.2908 7.90302C28.9279 6.51892 28.1391 5.28217 27.031 4.36007L27.3452 4.00395L27.9396 3.33649Z" fill="white"/>
<path opacity="0.1" d="M28.3762 12.7924C28.8329 12.8955 29.2735 13.0558 29.6873 13.2695L13.5059 17.4957L16.4538 16.138L28.3762 12.7924Z" fill="#080808"/>
<path opacity="0.05" d="M29.6873 13.2695L24.0422 14.7439L22.8897 13.7054L25.456 12.9071C26.1538 12.6905 26.8869 12.6111 27.6131 12.6733C28.3393 12.7355 29.0442 12.9381 29.6873 13.2695Z" fill="white"/>
<path opacity="0.1" d="M26.1035 4.08694C26.4509 3.77291 26.7567 3.41722 27.0134 3.02844L10.8321 7.25457L14.0674 6.99738L26.1035 4.08694Z" fill="#080808"/>
<path opacity="0.05" d="M27.0131 3.02935L21.3681 4.50369L20.8709 5.97432L23.4998 5.41577C24.2146 5.26377 24.8932 4.97459 25.4963 4.56497C26.0993 4.15535 26.6149 3.63341 27.0131 3.02935Z" fill="white"/>
<path d="M10.6844 6.53974C10.5728 6.15268 10.5186 5.45357 11.4594 5.2104L11.5409 7.07159C11.4854 7.08374 11.4285 7.08868 11.3719 7.08627C11.2124 7.07834 11.0601 7.02124 10.9367 6.92311C10.8133 6.82498 10.725 6.69082 10.6844 6.53974Z" fill="#008726"/>
<path d="M11.461 5.20835L11.5425 7.06953L11.7018 7.02791L11.6449 5.21028L11.461 5.20835Z" fill="#404958"/>
<path d="M13.7288 18.193C13.8208 18.5852 14.1156 19.2228 15.0549 18.9736L14.2159 17.3103C14.1615 17.3268 14.1095 17.3503 14.0613 17.3801C13.9261 17.465 13.8212 17.5893 13.7615 17.7352C13.7018 17.8812 13.6904 18.0414 13.7288 18.193Z" fill="#008726"/>
<path d="M15.0542 18.9726L14.2152 17.3092L14.3745 17.2676L15.2136 18.881L15.0542 18.9726Z" fill="#404958"/>
<path opacity="0.1" d="M11.7699 17.1935C11.7699 17.1935 7.21278 18.6219 6.56651 18.3284C5.92023 18.0349 5.48581 17.2891 5.48581 17.2891C5.48581 17.2891 6.32105 18.1608 7.83622 17.765C9.35138 17.3693 11.4864 16.6145 11.4864 16.6145L11.7699 17.1935Z" fill="white"/>
<path opacity="0.1" d="M9.47568 8.40677C9.47568 8.40677 4.80207 9.3892 4.38185 9.96125C3.96163 10.5333 3.94708 11.3951 3.94708 11.3951C3.94708 11.3951 4.24943 10.2263 5.76459 9.83062C7.27976 9.4349 9.51154 9.0505 9.51154 9.0505L9.47568 8.40677Z" fill="white"/>
</g>
<defs>
<clipPath id="clip0_455_1411">
<rect width="31.2982" height="14.2265" fill="white" transform="translate(34.5112 13.8926) rotate(165.363)"/>
</clipPath>
</defs>
</svg>
