<svg width="51" height="48" viewBox="0 0 34 32" fill="none" xmlns="http://www.w3.org/2000/svg">
<g clip-path="url(#clip0_455_1375)">
<path d="M10.6981 18.9343L10.6105 18.8594C9.03692 17.4985 7.54767 16.1852 6.32093 15.0718L6.2246 14.9895C4.66862 13.5768 3.55257 12.4977 3.25212 12.0731C3.01252 11.7495 2.83882 11.3832 2.74112 10.9953C2.64342 10.6074 2.62366 10.2057 2.68301 9.8136C2.8405 8.64437 3.59929 7.33705 4.91208 5.80069C6.22487 4.26433 7.40284 3.30704 8.53399 2.96817C8.912 2.84865 9.31173 2.80572 9.70997 2.84189C10.1082 2.87805 10.497 2.99259 10.8538 3.17884C11.3195 3.41387 12.56 4.34347 14.1989 5.65912L14.2952 5.74143C15.5864 6.77949 17.1159 8.04568 18.7055 9.38773L18.7932 9.46263C20.6235 11.0087 22.5295 12.6553 24.2452 14.162L24.379 14.2764L25.0436 14.8639C27.1802 16.7595 28.9189 18.3659 29.6703 19.1775C32.2584 21.9724 28.7088 26.1265 28.7088 26.1265C28.7088 26.1265 25.16 30.2796 21.9884 28.1579C21.0728 27.5385 19.2108 26.0762 17.0059 24.2606L16.3212 23.6967L16.1873 23.5823C14.4311 22.1289 12.5146 20.5043 10.6981 18.9343Z" fill="#21BC4D"/>
<path d="M18.1849 10.1727L18.0972 10.0978L18.7081 9.38281L18.7958 9.45771L18.1849 10.1727Z" fill="#404958"/>
<path d="M10.6984 18.9344L10.6107 18.8595L11.2208 18.1455L11.3085 18.2204L10.6984 18.9344Z" fill="#404958"/>
<path d="M13.9159 7.08099L14.0091 6.60328L14.2001 5.6582L14.2964 5.74051L14.108 6.69429L14.0245 7.11186L13.9159 7.08099Z" fill="#404958"/>
<path d="M6.31932 15.0763L6.223 14.994L7.12977 14.6622L7.5871 14.4956L7.62858 14.6011L7.22914 14.7487L6.31932 15.0763Z" fill="#404958"/>
<path d="M2.68679 9.8077C2.84909 8.64259 3.60403 7.33198 4.91682 5.79562C6.22962 4.25926 7.4034 3.30491 8.53198 2.9671C9.3881 3.35077 10.1637 3.89717 10.8143 4.57509L7.45107 7.9611L4.63027 11.8123C3.8596 11.2747 3.19924 10.5935 2.68679 9.8077Z" fill="#28D459"/>
<path d="M27.9418 25.4636C27.9418 25.4636 29.4204 23.7332 28.6503 23.2381L25.8508 26.5143C26.464 27.1931 27.9418 25.4636 27.9418 25.4636Z" fill="#2B3545"/>
<path d="M29.4784 20.2652L28.9163 19.6007C28.7412 19.3934 28.5129 19.2372 28.2569 19.1496C28.0008 19.062 27.7269 19.0463 27.4656 19.1043L27.4473 19.1082L25.984 20.8207L28.6636 23.1105C28.7269 23.1637 28.8014 23.2017 28.8813 23.2217C28.9611 23.2416 29.0441 23.2429 29.1237 23.2254C29.2033 23.2079 29.2773 23.1721 29.3399 23.1209C29.4025 23.0696 29.452 23.0043 29.4844 22.9301L29.7798 22.2568C29.9203 21.9339 29.9666 21.5763 29.9133 21.2244C29.86 20.8725 29.7094 20.5402 29.4784 20.2652Z" fill="white"/>
<path d="M23.1096 27.718L22.3656 27.2664C22.1335 27.1258 21.9436 26.9247 21.8171 26.6854C21.6906 26.4461 21.6324 26.178 21.649 25.9109L21.65 25.8922L23.1133 24.1797L25.793 26.4694C25.8554 26.5237 25.9046 26.5913 25.9368 26.6671C25.9689 26.7428 25.9831 26.8246 25.9783 26.906C25.9734 26.9873 25.9496 27.066 25.9087 27.1358C25.8679 27.2056 25.8111 27.2647 25.7428 27.3083L25.1238 27.705C24.8268 27.8942 24.4808 27.9957 24.1249 27.998C23.769 28.0003 23.4173 27.9033 23.1096 27.718Z" fill="white"/>
<path d="M29.3525 22.1546C29.5021 21.7756 29.5274 21.3567 29.4249 20.9571C29.3223 20.5574 29.0971 20.1972 28.7809 19.9273L24.9482 16.6523L18.7642 23.8895L22.5969 27.1645C22.9131 27.4347 23.3045 27.6009 23.7156 27.6395C24.1267 27.6782 24.5367 27.5873 24.8877 27.3798C26.918 26.1816 28.4857 24.347 29.3525 22.1546Z" fill="#28D459"/>
<path d="M25.6605 26.1235C25.8501 26.2503 26.0745 26.313 26.3 26.3021C26.5254 26.2913 26.7396 26.2075 26.9101 26.0635C27.1915 25.8183 27.453 25.5514 27.6923 25.2651C27.9377 24.9841 28.1606 24.6842 28.3589 24.3679C28.4747 24.177 28.5242 23.9523 28.4999 23.7278C28.4756 23.5032 28.3788 23.2911 28.2241 23.1234L23.66 18.1592L20.0509 22.383L25.6605 26.1235Z" fill="#28D459"/>
<path d="M18.7641 23.8889L18.0909 23.1165L16.3616 21.1304L14.468 18.9582L15.2286 17.9882C15.7931 17.2678 16.3751 16.5613 16.9747 15.8687C17.4947 15.2601 18.0285 14.6634 18.576 14.0785L19.4156 13.1759L21.7952 14.6682L24.0257 16.0657L24.9568 16.6494C24.4136 18.1873 23.5941 19.6088 22.5378 20.8456C22.4694 20.9256 22.401 21.0057 22.3318 21.0867C21.3139 22.2179 20.1077 23.1654 18.7641 23.8889Z" fill="#2B3545"/>
<path d="M12.1404 6.05168C11.9641 5.61801 11.8439 5.16478 11.7828 4.70312L24.4974 15.5676L21.6987 13.9242L19.5901 12.6863C19.163 12.4353 18.7526 12.1565 18.3617 11.8517L16.0248 10.0326L13.9033 8.38268C13.1195 7.77311 12.5105 6.96787 12.1404 6.05168Z" fill="#2B3545"/>
<path d="M17.6243 23.614L14.01 19.2137C13.6958 18.8307 13.3566 18.4685 12.9949 18.1295L8.87303 14.2685C8.33977 13.7686 7.71471 13.3768 7.03396 13.1157C6.3532 12.8545 5.63024 12.7293 4.90682 12.7471L17.6214 23.6116L17.6243 23.614Z" fill="#2B3545"/>
<path d="M4.63049 11.8121C3.82501 10.2193 4.86791 8.36105 5.55661 7.41269C5.71403 7.19119 5.88348 6.97855 6.06424 6.77571C6.06424 6.77571 8.40747 3.79745 10.8145 4.57491L10.9539 5.07693L11.1811 5.88557L11.5245 7.1161C11.5245 7.1161 10.4883 7.41219 9.21917 8.73164C9.09299 8.86176 8.96518 9.00353 8.8364 9.15425C7.40931 10.8244 7.24811 12.1208 7.24811 12.1208L5.98887 11.9738L5.51786 11.9184L4.63049 11.8121Z" fill="#2B3545"/>
<path opacity="0.1" d="M18.8028 12.6785C18.8028 12.6785 15.5729 15.8558 14.0797 18.206C14.0797 18.206 9.4914 14.1224 8.16128 12.5605C8.16128 12.5605 13.6514 10.2584 18.8028 12.6785Z" fill="white"/>
<path opacity="0.1" d="M21.572 20.0683C20.2286 18.4966 18.7219 16.9794 16.9743 15.8691C17.4942 15.2606 18.028 14.6639 18.5756 14.0789L19.4151 13.1764L24.9477 16.6522C24.4044 18.1901 23.585 19.6116 22.5287 20.8483C22.4603 20.9284 22.3919 21.0085 22.3227 21.0895C22.043 20.7088 21.7946 20.3286 21.572 20.0683Z" fill="white"/>
<path opacity="0.1" d="M18.7642 23.8905L18.091 23.1181C18.9372 22.5764 19.7275 21.9539 20.451 21.2591C21.3742 20.374 22.1846 19.379 22.8649 18.2956C23.2858 17.6237 23.5739 16.7599 24.0204 16.0658L24.9514 16.6495C24.4082 18.1875 23.5888 19.6089 22.5325 20.8457C22.4641 20.9258 22.3956 21.0058 22.3264 21.0868C21.3103 22.2181 20.106 23.166 18.7642 23.8905Z" fill="#080808"/>
<path opacity="0.05" d="M18.7643 23.8886L18.0911 23.1162L16.3618 21.1301C18.6749 19.4533 20.5363 17.2369 21.7883 14.6683L24.0188 16.0658L24.9499 16.6495C24.4067 18.1874 23.5872 19.6089 22.5309 20.8457C22.4625 20.9257 22.3941 21.0058 22.3249 21.0868C21.3091 22.2173 20.1053 23.1645 18.7643 23.8886Z" fill="white"/>
<path opacity="0.1" d="M5.55019 7.4115C5.70761 7.18999 5.87706 6.97736 6.05782 6.77451C6.05782 6.77451 8.40747 3.79849 10.8145 4.57594L11.5262 7.11526C11.5262 7.11526 10.4899 7.41135 9.22079 8.73079C9.12506 8.66204 9.02555 8.59877 8.92274 8.54131C7.87246 7.96467 6.72952 7.58179 5.55019 7.4115Z" fill="white"/>
<path opacity="0.1" d="M4.63049 11.8121C3.82501 10.2193 4.86791 8.36105 5.55661 7.41269C5.71403 7.19119 5.88348 6.97855 6.06424 6.77571C6.06424 6.77571 8.40747 3.79745 10.8145 4.57491L10.9539 5.07693C9.28036 4.86275 7.52922 5.96425 6.54232 7.18748C5.52773 8.4392 4.63999 10.1432 5.15292 11.8755L4.63049 11.8121Z" fill="#080808"/>
<path opacity="0.05" d="M4.63049 11.8121C3.82501 10.2193 4.86791 8.36105 5.55661 7.41269C5.71403 7.19119 5.88348 6.97855 6.06424 6.77571C6.06424 6.77571 8.40747 3.79745 10.8145 4.57491L10.9539 5.07693L11.1811 5.88557C9.78242 6.23422 8.5344 7.00504 7.6059 8.09375C6.67739 9.18247 6.11322 10.5365 5.98968 11.9728L5.51786 11.9184L4.63049 11.8121Z" fill="white"/>
<path opacity="0.1" d="M12.1404 6.05168C11.9641 5.61801 11.8439 5.16478 11.7828 4.70312L24.4974 15.5676L21.6987 13.9242L12.1404 6.05168Z" fill="#080808"/>
<path opacity="0.05" d="M11.7828 4.70312L16.2185 8.49333L16.0248 10.0326L13.9033 8.38268C13.3268 7.93373 12.8426 7.37748 12.4787 6.74598C12.1148 6.11447 11.8783 5.42019 11.7828 4.70312Z" fill="white"/>
<path opacity="0.1" d="M6.29639 12.8902C5.84013 12.7845 5.37351 12.7368 4.90776 12.7483L17.6224 23.6128L15.5625 21.1046L6.29639 12.8902Z" fill="#080808"/>
<path opacity="0.05" d="M4.90786 12.7481L9.34352 16.5383L10.8345 16.1059L8.87392 14.2677C8.34069 13.7679 7.71561 13.3762 7.03486 13.1154C6.3541 12.8546 5.63116 12.7297 4.90786 12.7481Z" fill="white"/>
<path d="M17.119 24.142C16.8651 24.4547 16.3224 24.8987 15.5852 24.2656L17.0661 23.1352C17.1078 23.1738 17.1443 23.2176 17.1747 23.2655C17.2593 23.4009 17.2995 23.5585 17.2895 23.7159C17.2795 23.8732 17.2198 24.0223 17.119 24.142Z" fill="#008726"/>
<path d="M15.584 24.2665L17.0648 23.1362L16.9396 23.0292L15.4805 24.1146L15.584 24.2665Z" fill="#404958"/>
<path d="M24.9421 14.9855C25.2114 14.6859 25.5662 14.0796 24.8249 13.4512L23.9394 15.0902C23.984 15.1254 24.033 15.1546 24.085 15.1772C24.232 15.2396 24.3939 15.2547 24.5478 15.2203C24.7017 15.1859 24.8397 15.1037 24.9421 14.9855Z" fill="#008726"/>
<path d="M24.8258 13.4512L23.9402 15.0902L23.815 14.9832L24.6595 13.3727L24.8258 13.4512Z" fill="#404958"/>
<path opacity="0.1" d="M25.2423 17.1633C25.2423 17.1633 29.0186 20.0869 29.147 20.785C29.2755 21.4831 28.9116 22.2658 28.9116 22.2658C28.9116 22.2658 29.1497 21.0822 27.9591 20.0649C26.7686 19.0476 24.9291 17.7268 24.9291 17.7268L25.2423 17.1633Z" fill="white"/>
<path opacity="0.1" d="M19.3423 24.0677C19.3423 24.0677 22.8191 27.3417 23.5287 27.3597C24.2383 27.3777 24.9538 26.8972 24.9538 26.8972C24.9538 26.8972 23.8219 27.3169 22.6314 26.2996C21.4408 25.2823 19.8501 23.6704 19.8501 23.6704L19.3423 24.0677Z" fill="white"/>
</g>
<defs>
<clipPath id="clip0_455_1375">
<rect width="31.2982" height="14.2265" fill="white" transform="translate(9.53772 0.387695) rotate(40.5134)"/>
</clipPath>
</defs>
</svg>
