<svg width="27" height="14" viewBox="0 0 27 14" fill="none" xmlns="http://www.w3.org/2000/svg">
<rect width="26.918" height="13.459" rx="2" fill="#2CA87F"/>
<path d="M11.1224 10H9.86242L7.00942 5.689V10H5.74942V3.709H7.00942L9.86242 8.029V3.709H11.1224V10ZM20.0471 5.959L19.7501 7.345H20.8931V8.47H19.5071L19.1831 10H17.9861L18.3101 8.47H16.6721L16.3481 10H15.1601L15.4841 8.47H14.1251V7.345H15.7271L16.0241 5.959H14.6741V4.834H16.2671L16.5821 3.34H17.7701L17.4551 4.834H19.0931L19.4081 3.34H20.6051L20.2901 4.834H21.4421V5.959H20.0471ZM18.8501 5.959H17.2121L16.9151 7.345H18.5531L18.8501 5.959Z" fill="white"/>
</svg>
