<svg width="206" height="139" viewBox="0 0 206 139" fill="none" xmlns="http://www.w3.org/2000/svg">
<path d="M43.5093 3.83307L44.0093 3.83307L44.0093 3.33307L43.5093 3.33307L43.5093 3.83307ZM0.738244 3.47952C0.542982 3.67478 0.542982 3.99136 0.738244 4.18662L3.92022 7.3686C4.11549 7.56386 4.43207 7.56386 4.62733 7.3686C4.82259 7.17334 4.82259 6.85676 4.62733 6.6615L1.7989 3.83307L4.62733 1.00464C4.82259 0.80938 4.82259 0.492797 4.62733 0.297535C4.43207 0.102273 4.11549 0.102273 3.92022 0.297535L0.738244 3.47952ZM44.0093 13.1211L44.0093 11.9601L43.0093 11.9601L43.0093 13.1211L44.0093 13.1211ZM44.0093 9.63809L44.0093 7.31608L43.0093 7.31608L43.0093 9.63809L44.0093 9.63809ZM44.0093 4.99407L44.0093 3.83307L43.0093 3.83307L43.0093 4.99407L44.0093 4.99407ZM43.5093 3.33307L42.4488 3.33307L42.4488 4.33307L43.5093 4.33307L43.5093 3.33307ZM40.328 3.33307L38.2071 3.33307L38.2071 4.33307L40.328 4.33307L40.328 3.33307ZM36.0862 3.33307L33.9653 3.33307L33.9653 4.33307L36.0862 4.33307L36.0862 3.33307ZM31.8445 3.33307L29.7236 3.33307L29.7236 4.33307L31.8445 4.33307L31.8445 3.33307ZM27.6027 3.33307L25.4818 3.33307L25.4818 4.33307L27.6027 4.33307L27.6027 3.33307ZM23.361 3.33307L22.3005 3.33307L22.3005 4.33307L23.361 4.33307L23.361 3.33307ZM22.3005 3.33307L21.2401 3.33307L21.2401 4.33307L22.3005 4.33307L22.3005 3.33307ZM19.1192 3.33307L16.9984 3.33307L16.9984 4.33307L19.1192 4.33307L19.1192 3.33307ZM14.8775 3.33307L12.7566 3.33307L12.7566 4.33307L14.8775 4.33307L14.8775 3.33307ZM10.6357 3.33307L8.51485 3.33307L8.51485 4.33307L10.6357 4.33307L10.6357 3.33307ZM6.39398 3.33307L4.27311 3.33307L4.27311 4.33307L6.39398 4.33307L6.39398 3.33307ZM2.15223 3.33307L1.0918 3.33307L1.0918 4.33307L2.15223 4.33307L2.15223 3.33307Z" fill="#8E9F9E"/>
<path d="M162 3.83307L161.5 3.83307L161.5 3.33307L162 3.33307L162 3.83307ZM204.772 3.47952C204.967 3.67478 204.967 3.99136 204.772 4.18662L201.59 7.3686C201.394 7.56386 201.078 7.56386 200.882 7.3686C200.687 7.17334 200.687 6.85676 200.882 6.6615L203.711 3.83307L200.882 1.00464C200.687 0.80938 200.687 0.492797 200.882 0.297535C201.078 0.102273 201.394 0.102273 201.59 0.297535L204.772 3.47952ZM161.5 13.1211L161.5 11.9601L162.5 11.9601L162.5 13.1211L161.5 13.1211ZM161.5 9.63809L161.5 7.31608L162.5 7.31608L162.5 9.63809L161.5 9.63809ZM161.5 4.99407L161.5 3.83307L162.5 3.83307L162.5 4.99407L161.5 4.99407ZM162 3.33307L163.061 3.33307L163.061 4.33307L162 4.33307L162 3.33307ZM165.182 3.33307L167.303 3.33307L167.303 4.33307L165.182 4.33307L165.182 3.33307ZM169.424 3.33307L171.544 3.33307L171.544 4.33307L169.424 4.33307L169.424 3.33307ZM173.665 3.33307L175.786 3.33307L175.786 4.33307L173.665 4.33307L173.665 3.33307ZM177.907 3.33307L180.028 3.33307L180.028 4.33307L177.907 4.33307L177.907 3.33307ZM182.149 3.33307L183.209 3.33307L183.209 4.33307L182.149 4.33307L182.149 3.33307ZM183.209 3.33307L184.27 3.33307L184.27 4.33307L183.209 4.33307L183.209 3.33307ZM186.391 3.33307L188.511 3.33307L188.511 4.33307L186.391 4.33307L186.391 3.33307ZM190.632 3.33307L192.753 3.33307L192.753 4.33307L190.632 4.33307L190.632 3.33307ZM194.874 3.33307L196.995 3.33307L196.995 4.33307L194.874 4.33307L194.874 3.33307ZM199.116 3.33307L201.237 3.33307L201.237 4.33307L199.116 4.33307L199.116 3.33307ZM203.358 3.33307L204.418 3.33307L204.418 4.33307L203.358 4.33307L203.358 3.33307Z" fill="#8E9F9E"/>
<path d="M43.5093 135.288L44.0093 135.288L44.0093 135.788L43.5093 135.788L43.5093 135.288ZM0.738244 135.642C0.542982 135.446 0.542982 135.13 0.738244 134.934L3.92022 131.752C4.11549 131.557 4.43207 131.557 4.62733 131.752C4.82259 131.948 4.82259 132.264 4.62733 132.46L1.7989 135.288L4.62733 138.116C4.82259 138.312 4.82259 138.628 4.62733 138.824C4.43207 139.019 4.11549 139.019 3.92022 138.824L0.738244 135.642ZM44.0093 126L44.0093 127.161L43.0093 127.161L43.0093 126L44.0093 126ZM44.0093 129.483L44.0093 131.805L43.0093 131.805L43.0093 129.483L44.0093 129.483ZM44.0093 134.127L44.0093 135.288L43.0093 135.288L43.0093 134.127L44.0093 134.127ZM43.5093 135.788L42.4488 135.788L42.4488 134.788L43.5093 134.788L43.5093 135.788ZM40.328 135.788L38.2071 135.788L38.2071 134.788L40.328 134.788L40.328 135.788ZM36.0862 135.788L33.9653 135.788L33.9653 134.788L36.0862 134.788L36.0862 135.788ZM31.8445 135.788L29.7236 135.788L29.7236 134.788L31.8445 134.788L31.8445 135.788ZM27.6027 135.788L25.4818 135.788L25.4818 134.788L27.6027 134.788L27.6027 135.788ZM23.361 135.788L22.3005 135.788L22.3005 134.788L23.361 134.788L23.361 135.788ZM22.3005 135.788L21.2401 135.788L21.2401 134.788L22.3005 134.788L22.3005 135.788ZM19.1192 135.788L16.9984 135.788L16.9984 134.788L19.1192 134.788L19.1192 135.788ZM14.8775 135.788L12.7566 135.788L12.7566 134.788L14.8775 134.788L14.8775 135.788ZM10.6357 135.788L8.51485 135.788L8.51485 134.788L10.6357 134.788L10.6357 135.788ZM6.39398 135.788L4.27311 135.788L4.27311 134.788L6.39398 134.788L6.39398 135.788ZM2.15223 135.788L1.0918 135.788L1.0918 134.788L2.15223 134.788L2.15223 135.788Z" fill="#8E9F9E"/>
<path d="M163 135.288L162.5 135.288L162.5 135.788L163 135.788L163 135.288ZM205.772 135.642C205.967 135.446 205.967 135.13 205.772 134.934L202.59 131.752C202.394 131.557 202.078 131.557 201.882 131.752C201.687 131.948 201.687 132.264 201.882 132.46L204.711 135.288L201.882 138.116C201.687 138.312 201.687 138.628 201.882 138.824C202.078 139.019 202.394 139.019 202.59 138.824L205.772 135.642ZM162.5 126L162.5 127.161L163.5 127.161L163.5 126L162.5 126ZM162.5 129.483L162.5 131.805L163.5 131.805L163.5 129.483L162.5 129.483ZM162.5 134.127L162.5 135.288L163.5 135.288L163.5 134.127L162.5 134.127ZM163 135.788L164.061 135.788L164.061 134.788L163 134.788L163 135.788ZM166.182 135.788L168.303 135.788L168.303 134.788L166.182 134.788L166.182 135.788ZM170.424 135.788L172.544 135.788L172.544 134.788L170.424 134.788L170.424 135.788ZM174.665 135.788L176.786 135.788L176.786 134.788L174.665 134.788L174.665 135.788ZM178.907 135.788L181.028 135.788L181.028 134.788L178.907 134.788L178.907 135.788ZM183.149 135.788L184.209 135.788L184.209 134.788L183.149 134.788L183.149 135.788ZM184.209 135.788L185.27 135.788L185.27 134.788L184.209 134.788L184.209 135.788ZM187.391 135.788L189.511 135.788L189.511 134.788L187.391 134.788L187.391 135.788ZM191.632 135.788L193.753 135.788L193.753 134.788L191.632 134.788L191.632 135.788ZM195.874 135.788L197.995 135.788L197.995 134.788L195.874 134.788L195.874 135.788ZM200.116 135.788L202.237 135.788L202.237 134.788L200.116 134.788L200.116 135.788ZM204.358 135.788L205.418 135.788L205.418 134.788L204.358 134.788L204.358 135.788Z" fill="#8E9F9E"/>
<path d="M120.844 116.649C120.852 116.649 120.86 116.647 120.868 116.647C120.89 116.646 120.912 116.647 120.934 116.645C120.985 116.642 121.036 116.634 121.086 116.629C121.892 116.539 122.632 116.118 123.262 115.694C123.358 115.63 123.452 115.563 123.546 115.496C123.602 115.456 123.659 115.416 123.714 115.375C123.779 115.326 123.843 115.277 123.907 115.227C124.023 115.136 124.136 115.045 124.245 114.952C124.253 114.945 124.261 114.938 124.269 114.931C124.818 114.46 125.272 113.963 125.62 113.445C125.65 113.4 125.678 113.353 125.707 113.307C125.717 113.292 125.727 113.276 125.737 113.26C125.78 113.191 125.823 113.123 125.863 113.053C126.399 112.142 126.702 111.145 126.71 110.194C126.712 110.024 126.702 109.859 126.682 109.703C126.673 109.636 126.655 109.564 126.636 109.492C126.634 109.485 126.632 109.476 126.63 109.467C126.624 109.441 126.617 109.414 126.611 109.388L126.665 109.281C126.714 109.184 126.764 109.085 126.813 108.987L127.124 108.979C127.135 108.979 127.15 108.981 127.161 108.981L143.564 108.65C143.61 108.649 143.665 108.644 143.722 108.638C143.765 108.634 143.83 108.627 143.856 108.625C143.908 108.662 143.961 108.696 144.014 108.731C144.054 108.762 144.094 108.792 144.131 108.816C144.308 108.928 144.497 109.033 144.691 109.128C145.075 109.316 145.493 109.472 145.967 109.603C147.477 110.023 149.063 110.125 150.597 110.225L151.099 110.258C151.171 110.263 151.239 110.267 151.311 110.272C151.496 110.284 151.683 110.296 151.874 110.308C152.67 110.359 153.448 110.405 154.209 110.446C154.537 110.465 154.874 110.483 155.228 110.502C156.32 110.561 157.461 110.608 158.619 110.641C158.693 110.643 158.771 110.645 158.846 110.647C160.034 110.687 161.1 110.713 162.109 110.726C162.299 110.729 162.494 110.731 162.691 110.734C162.773 110.735 162.855 110.736 162.937 110.738C163.802 110.75 164.619 110.755 165.405 110.755C165.868 110.755 166.32 110.753 166.765 110.749C168.246 110.736 169.455 110.71 170.568 110.667C171.542 110.63 172.568 110.583 173.594 110.506C175.075 110.402 176.623 110.25 178.094 109.81C178.151 109.793 178.208 109.778 178.265 109.76C178.306 109.748 178.345 109.733 178.386 109.719C178.425 109.707 178.465 109.696 178.504 109.683C180.125 109.129 181.392 107.949 182.51 106.897C182.528 106.88 182.548 106.862 182.566 106.845C182.692 106.727 182.814 106.611 182.93 106.482C182.934 106.479 182.938 106.476 182.942 106.473C183.11 106.407 183.276 106.339 183.438 106.268C183.439 106.267 183.44 106.267 183.441 106.267C183.443 106.266 183.446 106.265 183.447 106.264C183.476 106.251 183.504 106.237 183.533 106.224C183.707 106.146 183.877 106.067 184.043 105.984C184.071 105.97 184.098 105.955 184.126 105.941C185.324 105.332 186.32 104.591 187.086 103.727C187.106 103.705 187.123 103.681 187.143 103.659C187.153 103.646 187.163 103.633 187.174 103.62C187.309 103.463 187.436 103.301 187.557 103.134C187.564 103.125 187.57 103.115 187.577 103.105C187.699 102.936 187.815 102.764 187.924 102.588C187.931 102.576 187.939 102.565 187.946 102.553C188.052 102.38 188.154 102.205 188.25 102.028C188.259 102.012 188.268 101.996 188.276 101.98C188.369 101.808 188.458 101.634 188.542 101.46C188.552 101.44 188.562 101.42 188.572 101.4C188.655 101.226 188.735 101.052 188.811 100.878C188.819 100.86 188.827 100.842 188.835 100.824C188.915 100.642 188.99 100.461 189.063 100.282C189.089 100.22 189.113 100.159 189.137 100.097C189.175 100.003 189.214 99.9077 189.25 99.8153C189.265 99.7781 189.279 99.74 189.294 99.7026C189.296 99.6962 189.299 99.6894 189.301 99.683C189.305 99.6725 189.309 99.6617 189.313 99.6512C189.535 99.0819 189.751 98.4912 189.967 97.8641C189.974 97.8441 189.981 97.8242 189.988 97.804C190.034 97.6698 190.08 97.5326 190.126 97.3949C190.275 96.9517 190.422 96.4971 190.567 96.0299C190.578 95.9975 190.588 95.966 190.598 95.9334C190.625 95.8448 190.652 95.7553 190.68 95.6657C190.715 95.5499 190.751 95.4361 190.786 95.3174C190.925 94.86 191.058 94.3945 191.187 93.9204C191.207 93.85 191.226 93.7795 191.245 93.7085C191.262 93.6473 191.278 93.5854 191.294 93.5239C191.441 92.9716 191.583 92.4023 191.721 91.8106C191.808 91.4403 191.893 91.0635 191.977 90.6775C192.115 90.0426 192.244 89.393 192.367 88.7238C192.654 87.1835 192.9 85.5467 193.115 83.7321C193.124 83.6534 193.132 83.5754 193.141 83.4968C193.18 83.1654 193.217 82.8338 193.252 82.5018C193.402 81.0889 193.52 79.692 193.604 78.3357C193.612 78.2049 193.618 78.0742 193.626 77.9434C193.654 77.4893 193.68 77.0339 193.704 76.5771C193.786 74.9607 193.835 73.4592 193.855 71.9869C193.856 71.9073 193.856 71.8311 193.857 71.752C193.879 70.3111 193.881 68.8108 193.861 67.2714C193.86 67.2284 193.859 67.1849 193.859 67.1417C193.858 67.1072 193.858 67.0723 193.858 67.0378C193.856 66.9171 193.853 66.8024 193.851 66.6833C193.851 66.6411 193.85 66.599 193.849 66.5568C193.825 65.114 193.782 63.7744 193.717 62.4886C193.71 62.3472 193.702 62.2114 193.695 62.0737C193.688 61.9377 193.682 61.8027 193.675 61.6652C193.629 60.7691 193.566 59.834 193.486 58.8474C193.455 58.4615 193.424 58.0866 193.39 57.7202C193.344 57.2191 193.297 56.7441 193.25 56.2866C193.249 56.2743 193.247 56.2625 193.246 56.2502C193.239 56.1834 193.232 56.1159 193.225 56.0488C193.214 55.9529 193.204 55.8559 193.194 55.7616C193.179 55.6255 193.164 55.4887 193.148 55.3517C193.137 55.2583 193.127 55.1656 193.116 55.0736C193.107 55.0006 193.098 54.9277 193.09 54.8545C193.013 54.2173 192.933 53.6108 192.847 53.0229C192.808 52.7624 192.77 52.5083 192.731 52.2574C192.72 52.1865 192.709 52.1146 192.697 52.0434C192.677 51.9154 192.657 51.7872 192.637 51.6616C192.591 51.3743 192.543 51.085 192.494 50.7912C192.48 50.712 192.465 50.6341 192.451 50.5551C192.41 50.3243 192.369 50.0982 192.328 49.8749C192.27 49.5639 192.21 49.255 192.148 48.947C192.133 48.8712 192.118 48.7959 192.102 48.7208C191.92 47.829 191.719 46.9527 191.503 46.0962C191.485 46.0278 191.468 45.9593 191.451 45.891C191.423 45.7838 191.398 45.674 191.37 45.5674C191.339 45.4513 191.305 45.333 191.273 45.2164C191.193 44.9164 191.111 44.6184 191.027 44.3215C191.017 44.2877 191.008 44.2539 190.998 44.2201C190.945 44.0358 190.894 43.8501 190.84 43.6673C190.42 42.2476 189.993 40.9586 189.54 39.7452C189.084 38.4873 188.615 37.3351 187.98 36.3021C187.938 36.2337 187.897 36.1649 187.854 36.0974C187.812 36.0329 187.768 35.9701 187.724 35.9066C187.652 35.7993 187.578 35.6926 187.5 35.5884C187.485 35.568 187.471 35.5465 187.456 35.5262C187.423 35.4828 187.385 35.4414 187.351 35.3984C187.302 35.3368 187.256 35.2731 187.206 35.2128C187.18 35.1827 187.152 35.1542 187.126 35.1244C187.088 35.0815 187.05 35.0394 187.011 34.9971C186.916 34.8925 186.817 34.7896 186.715 34.6885C186.683 34.6568 186.651 34.6251 186.618 34.5937C186.498 34.4785 186.373 34.3659 186.244 34.2556C186.223 34.2384 186.204 34.2209 186.184 34.2038C185.72 33.8153 185.202 33.4564 184.628 33.1304C184.56 33.0915 184.488 33.0549 184.419 33.0169C184.304 32.9547 184.188 32.8926 184.07 32.8329C183.981 32.7883 183.89 32.7455 183.8 32.7026C183.735 32.6719 183.673 32.6396 183.608 32.6096C183.552 32.5842 183.494 32.561 183.437 32.5362C183.4 32.5199 183.365 32.5018 183.327 32.4858C183.302 32.4751 183.276 32.4655 183.25 32.4555C183.172 32.4225 183.093 32.3901 183.013 32.3585C182.992 32.3479 182.973 32.3368 182.957 32.3252C182.847 32.2011 182.726 32.0921 182.612 31.9934C182.56 31.9478 182.508 31.9025 182.459 31.8566C182.443 31.8423 182.427 31.8275 182.412 31.8131C182.411 31.8125 182.41 31.812 182.41 31.8114C182.327 31.7347 182.239 31.6532 182.149 31.5697C182.123 31.5461 182.097 31.5226 182.072 31.4989C181.981 31.4155 181.887 31.3306 181.79 31.2439C181.773 31.2284 181.756 31.213 181.738 31.1976C181.636 31.1067 181.532 31.0154 181.426 30.9242C181.416 30.9158 181.406 30.9069 181.396 30.8984C181.384 30.8886 181.373 30.8789 181.361 30.869C180.808 30.398 180.146 29.8744 179.38 29.4872C177.808 28.6924 175.887 28.5075 174.485 28.3724C174.477 28.3716 174.468 28.371 174.46 28.3701C174.458 28.37 174.456 28.3698 174.454 28.3695C174.444 28.3686 174.433 28.3678 174.423 28.3668C172.897 28.2215 171.248 28.1348 169.238 28.0948C169.238 28.0948 169.237 28.0948 169.238 28.0948C168.415 28.0738 167.58 28.0593 166.743 28.0531C166.695 28.0527 166.646 28.0527 166.599 28.0524C165.659 28.0426 164.723 28.0403 163.785 28.0531L163.532 28.0566C163.276 28.0602 163.018 28.0639 162.76 28.0676C162.748 28.0677 162.736 28.0678 162.724 28.0679C162.712 28.0681 162.701 28.0684 162.689 28.0685C161.204 28.0897 159.688 28.116 158.191 28.1746C158.172 28.1754 158.152 28.1762 158.133 28.1769C157.318 28.2024 156.482 28.237 155.602 28.2815C154.642 28.3248 153.654 28.3754 152.67 28.4388C152.353 28.4593 152.035 28.4781 151.717 28.4969C150.193 28.5875 148.619 28.6816 147.09 28.9518C147.086 28.9524 147.083 28.9527 147.08 28.9532C147.079 28.9535 147.077 28.9538 147.076 28.9541C147.062 28.9565 147.048 28.9585 147.034 28.961C146.88 28.9886 146.733 29.0183 146.59 29.049C146.57 29.0534 146.55 29.0579 146.53 29.0624C145.757 29.2319 145.123 29.4491 144.569 29.7361C144.529 29.757 144.49 29.7799 144.451 29.8015C144.447 29.8038 144.443 29.8061 144.438 29.8084C144.335 29.8655 144.234 29.925 144.136 29.9869C144.115 30.0001 144.094 30.0133 144.073 30.0268C144.048 30.0429 144.022 30.0581 143.997 30.0745C143.97 30.0933 143.941 30.115 143.913 30.1373C143.896 30.1494 143.878 30.1611 143.861 30.1734C143.811 30.177 143.725 30.1692 143.664 30.1635C143.602 30.1578 143.541 30.1526 143.487 30.1515L127.142 29.8216C127.131 29.8216 127.117 29.8221 127.105 29.8223L126.813 29.8155C126.764 29.7169 126.714 29.6185 126.665 29.5214L126.62 29.4327C126.826 28.5714 126.667 27.683 126.398 26.9235C126.244 26.473 126.035 26.0291 125.777 25.6077C125.773 25.6004 125.768 25.5932 125.764 25.5858C125.716 25.5095 125.67 25.4326 125.62 25.3578C125.333 24.9307 124.973 24.5181 124.549 24.1221C124.519 24.094 124.488 24.0664 124.458 24.0385C124.375 23.9636 124.29 23.8893 124.202 23.8157C124.155 23.7756 124.108 23.7353 124.059 23.6957C123.973 23.6262 123.884 23.5577 123.794 23.4894C123.718 23.4316 123.64 23.3745 123.561 23.3178C123.481 23.2599 123.401 23.2018 123.317 23.1448C123.293 23.1287 123.268 23.1127 123.244 23.0966C123.232 23.0889 123.222 23.0809 123.21 23.0732C123.18 23.0531 123.148 23.0325 123.116 23.012C123.05 22.9689 122.982 22.9266 122.914 22.8843C122.897 22.8736 122.88 22.8629 122.862 22.8522C122.806 22.8182 122.75 22.7848 122.693 22.7519C122.689 22.7499 122.686 22.7481 122.682 22.7461C122.591 22.6938 122.499 22.6436 122.404 22.5955C121.664 22.2139 120.803 21.9547 120.042 22.3012C119.345 22.6184 119.2 23.2931 119.227 23.9212C119.228 23.9321 119.228 23.9429 119.229 23.9537C119.233 24.0412 119.241 24.1273 119.251 24.2115C119.256 24.2536 119.261 24.2942 119.268 24.3354C119.274 24.3775 119.28 24.4181 119.287 24.4586C119.301 24.5342 119.314 24.6073 119.329 24.679C119.334 24.7008 119.338 24.7218 119.343 24.7427C119.35 24.7746 119.357 24.8086 119.364 24.8396C119.393 24.9687 119.425 25.0973 119.455 25.2262C119.545 25.6056 119.635 25.9852 119.723 26.3651C119.882 27.046 120.046 27.7412 120.216 28.4359C120.317 28.8543 120.422 29.2739 120.534 29.6915C120.537 29.7035 120.54 29.7156 120.543 29.7276C120.544 29.7302 120.545 29.7328 120.545 29.7354C120.524 29.7352 120.503 29.7352 120.48 29.7349L108.357 29.6911C107.509 29.6879 106.663 29.6921 105.815 29.6963L105.662 29.697L92.4187 29.7583C92.4174 29.7583 92.4161 29.7584 92.4148 29.7584L92.145 29.7597C92.1491 29.6262 92.1261 29.4941 92.0695 29.3679C92.0114 29.238 91.9251 29.1248 91.824 29.0253C91.8199 29.021 91.8168 29.0156 91.8126 29.0114C91.5472 28.7417 91.2024 28.5978 90.8576 28.491C90.8566 28.4907 90.8553 28.4902 90.8543 28.4899C90.851 28.4889 90.8476 28.4881 90.8443 28.487C90.8058 28.4752 90.7672 28.4635 90.7288 28.4524C90.7098 28.447 90.6903 28.4428 90.6713 28.4375C90.5492 28.4026 90.4264 28.3706 90.3028 28.3418C90.298 28.3406 90.2931 28.3395 90.2882 28.3383C90.1624 28.3091 90.0361 28.2826 89.9093 28.2589C89.8776 28.2528 89.846 28.2465 89.8142 28.2407C89.7556 28.2303 89.697 28.2207 89.6383 28.2113C88.8309 28.0765 88.0217 28.0261 87.2966 27.9994C87.2709 27.9985 87.2439 27.999 87.2181 27.9981C87.118 27.9949 87.0162 27.9949 86.9152 27.9932C86.7677 27.9906 86.6213 27.9868 86.4706 27.9876C85.9758 27.9898 85.4725 28.0091 84.9642 28.0458C84.9392 28.0476 84.9132 28.0501 84.8881 28.052C84.8631 28.0538 84.8372 28.0561 84.8121 28.0581C84.1163 28.1105 83.391 28.1819 82.6707 28.3116C82.5386 28.3348 82.4104 28.3592 82.2854 28.3851C82.1771 28.4074 82.0632 28.4332 81.9475 28.4615C81.4982 28.5697 80.8406 28.7605 80.5108 29.3217C80.4145 29.4855 80.3389 29.684 80.2997 29.8887L64.2673 30.0533C63.3743 29.4855 62.272 29.2238 61.1953 29.0183C60.7996 28.9403 60.4016 28.8736 60.0014 28.8161C59.9753 28.8122 59.9492 28.8081 59.9231 28.8044C59.8617 28.7957 59.8002 28.7874 59.7386 28.7791C58.7186 28.6376 57.7473 28.5509 56.9533 28.4894C56.9095 28.486 56.8619 28.4824 56.817 28.479C55.7456 28.3899 54.6954 28.3239 53.6787 28.2822C53.509 28.2747 53.339 28.2681 53.1683 28.262C53.1246 28.2605 53.0796 28.2582 53.036 28.2568L52.5032 28.2393C52.2471 28.2309 51.9911 28.2224 51.7351 28.2139C50.8008 28.1824 49.8663 28.1508 48.9318 28.1294L43.5804 28.0083C43.214 28.0001 42.8476 27.9907 42.4813 27.9813C41.6094 27.9589 40.7078 27.9358 39.8197 27.929L39.7952 27.9288C39.6766 27.9279 39.5559 27.9271 39.4367 27.9262C39.0095 27.921 38.5837 27.917 38.1562 27.9161C37.3322 27.9145 36.4222 27.9169 35.4786 27.9348C35.4646 27.9351 35.4505 27.9351 35.4364 27.9354C35.4163 27.9358 35.3951 27.9363 35.3749 27.9367C35.2828 27.9386 35.1907 27.9406 35.098 27.9428C34.4725 27.9568 33.8053 27.9777 33.1175 28.0169C32.0883 28.069 30.9718 28.138 29.8926 28.3624C29.4391 28.4441 28.9872 28.5625 28.5653 28.7507C28.5382 28.7629 28.5116 28.7757 28.4846 28.7884C28.3878 28.8343 28.2931 28.8846 28.2003 28.939C28.1664 28.9588 28.1331 28.9791 28.0998 29C28.0635 29.0229 28.0254 29.0421 27.99 29.0665C27.9596 29.0874 27.9323 29.1119 27.9026 29.1336C27.8184 29.1932 27.7368 29.2563 27.6564 29.3224C27.64 29.3363 27.6234 29.3499 27.6071 29.3639C27.1082 29.7875 26.6881 30.3302 26.4176 30.9412C26.2702 31.2734 26.1638 31.6301 26.1009 32.0007C26.0999 32.0066 26.0996 32.0133 26.0987 32.0191C26.0987 32.019 26.0986 32.0193 26.0987 32.0191C26.0757 32.1565 26.0583 32.2986 26.0467 32.4434C26.046 32.4519 26.0443 32.4594 26.0437 32.4679C26.0399 32.5173 26.0394 32.5668 26.039 32.615C26.0389 32.6227 26.0389 32.6313 26.0389 32.6397C26.0376 32.6684 26.0363 32.6968 26.0354 32.7256C26.0268 32.735 26.0173 32.7458 26.0086 32.7552C25.5435 33.2096 25.1624 33.7235 24.8482 34.2298C24.8439 34.2366 24.8393 34.2425 24.8351 34.2493C24.8283 34.2603 24.8224 34.2716 24.8157 34.2825C24.7315 34.4201 24.6521 34.5556 24.5776 34.6899C24.5469 34.7445 24.5162 34.799 24.4863 34.854C24.4642 34.8953 24.444 34.9348 24.4228 34.9755C23.7908 36.1671 23.3527 37.4168 23.0042 38.5172C22.9878 38.569 22.9739 38.6213 22.9577 38.6731C22.8665 38.9683 22.7808 39.2567 22.7006 39.5366C22.6706 39.6415 22.6402 39.7459 22.6111 39.8509C22.6066 39.867 22.6016 39.884 22.5971 39.9C22.2725 41.0572 22.0017 42.2106 21.7717 43.263C21.7708 43.2668 21.7698 43.2708 21.769 43.2745C21.5748 44.1397 21.3985 45.0048 21.2292 45.8748C21.0955 46.551 20.9717 47.2045 20.8573 47.841C20.8438 47.9141 20.8301 47.9863 20.8166 48.0595C20.5874 49.2978 20.3892 50.6209 20.2225 51.9937C20.2074 52.1155 20.1924 52.2383 20.1776 52.3618C20.1706 52.4224 20.1626 52.4814 20.1557 52.5421C20.1536 52.5601 20.1518 52.5784 20.1498 52.5963C20.12 52.8513 20.0905 53.1088 20.0619 53.3718C19.9155 54.7165 19.8019 56.0565 19.7205 57.3638C19.7164 57.4247 19.7114 57.4855 19.7074 57.5464C19.5981 59.1998 19.5336 60.86 19.4801 62.4078C19.473 62.6156 19.4664 62.8265 19.46 63.0392C19.4315 63.964 19.4142 64.8676 19.4027 65.7119C19.402 65.7644 19.4013 65.8181 19.4006 65.8712C19.3994 65.9632 19.3983 66.0545 19.3972 66.1449C19.3936 66.4388 19.3903 66.7381 19.3876 67.0498C19.373 68.7114 19.373 70.2366 19.3875 71.7111C19.3875 71.7153 19.3876 71.7192 19.3876 71.7234C19.3877 71.7282 19.3877 71.7327 19.3877 71.7374C19.3879 71.7524 19.388 71.7678 19.3881 71.7827C19.3882 71.7926 19.3883 71.8019 19.3884 71.8118C19.4014 73.3967 19.4275 74.7845 19.4684 76.0492C19.4728 76.1871 19.4783 76.3247 19.483 76.4626C19.4851 76.5274 19.4871 76.5932 19.4893 76.6576C19.5385 78.0892 19.6007 79.7545 19.718 81.402C19.7194 81.4225 19.7209 81.4424 19.7224 81.4628C19.8047 82.7435 19.9157 84.0599 20.0565 85.3883C20.1075 85.8692 20.1635 86.3427 20.2218 86.8121C20.3607 87.9704 20.5407 89.1734 20.7581 90.4019C20.951 91.5123 21.1685 92.6556 21.4076 93.8167C21.4145 93.8507 21.4216 93.8852 21.4286 93.9194C21.4532 94.0386 21.4767 94.1569 21.5018 94.2764C21.5092 94.3121 21.5173 94.3498 21.5248 94.3857C21.5526 94.5188 21.581 94.6526 21.6096 94.7868C21.6104 94.7908 21.6112 94.7947 21.6121 94.7987C21.6473 94.9643 21.6829 95.13 21.7193 95.2966C21.8579 95.9342 22.0106 96.6064 22.1777 97.2908C22.1985 97.3761 22.2192 97.4612 22.2405 97.5473C22.2534 97.5994 22.2666 97.6516 22.2798 97.7038C22.4593 98.4216 22.6593 99.1629 22.8851 99.9005C23.0957 100.597 23.3063 101.22 23.5255 101.799C23.7699 102.454 24.047 103.111 24.3793 103.748C24.6075 104.193 24.888 104.674 25.2272 105.139C25.24 105.157 25.253 105.172 25.2657 105.19C25.349 105.302 25.4336 105.414 25.5242 105.523C25.5268 105.526 25.5294 105.53 25.532 105.533C25.6276 105.649 25.7272 105.762 25.8304 105.871C25.8326 105.874 25.8357 105.876 25.838 105.879C25.9008 105.945 25.9692 106.006 26.0352 106.07C26.042 106.316 26.0606 106.556 26.0985 106.783C26.1033 106.811 26.1117 106.839 26.117 106.867C26.1213 106.894 26.1227 106.92 26.1282 106.947C26.2057 107.33 26.33 107.695 26.4974 108.031C26.7733 108.586 27.1645 109.072 27.6255 109.456C27.7417 109.555 27.8633 109.649 27.99 109.736C28.6349 110.182 29.4114 110.371 30.1694 110.487C30.173 110.488 30.1764 110.488 30.1799 110.489C30.1892 110.49 30.1986 110.492 30.2079 110.493C31.1468 110.661 32.1128 110.734 33.0963 110.785C33.5317 110.81 33.98 110.828 34.4467 110.842C35.5777 110.88 36.8 110.894 38.2242 110.886C38.4892 110.885 38.7528 110.882 39.0164 110.879C39.2767 110.878 39.5376 110.876 39.7952 110.874L39.8197 110.874C40.7078 110.867 41.6094 110.844 42.4813 110.821C42.8207 110.813 43.16 110.804 43.4994 110.796L48.8049 110.676C48.8177 110.676 48.8308 110.676 48.8437 110.675L48.9318 110.673C49.4343 110.662 49.9368 110.647 50.4394 110.631C51.3295 110.605 52.2256 110.575 53.1372 110.543C53.2016 110.541 53.2676 110.537 53.3321 110.535C53.5434 110.527 53.7538 110.518 53.9626 110.508C54.8495 110.466 55.7609 110.408 56.7135 110.332C56.7938 110.326 56.8763 110.319 56.9533 110.313C57.6066 110.263 58.3802 110.195 59.2001 110.094C59.9028 110.011 60.631 109.903 61.3594 109.753C62.4074 109.547 63.4084 109.294 64.2472 108.764C64.2493 108.763 64.2514 108.762 64.2536 108.76C64.2592 108.757 64.2636 108.753 64.269 108.75L80.2997 108.914C80.3089 108.962 80.3206 109.009 80.3337 109.055C80.3359 109.064 80.3381 109.072 80.3404 109.08C80.3521 109.12 80.3647 109.158 80.3789 109.196C80.3854 109.214 80.3922 109.231 80.3993 109.248C80.4325 109.33 80.4689 109.41 80.5108 109.481C80.5691 109.58 80.6402 109.664 80.7162 109.742C80.7319 109.758 80.749 109.773 80.7654 109.789C80.8112 109.832 80.8582 109.872 80.9079 109.908C80.9272 109.923 80.9454 109.938 80.9654 109.951C80.9717 109.955 80.9785 109.958 80.9848 109.962C81.0459 110.002 81.1082 110.039 81.1723 110.071C81.8093 110.413 82.5786 110.505 83.2668 110.586L83.3089 110.591C83.6672 110.639 84.0234 110.679 84.375 110.709C84.4689 110.718 84.5608 110.724 84.654 110.732C84.7573 110.74 84.8623 110.75 84.9642 110.757C84.9925 110.759 85.0204 110.76 85.0487 110.762C85.2294 110.774 85.4078 110.783 85.5854 110.791C85.6887 110.796 85.7917 110.8 85.8945 110.803C86.0617 110.809 86.2266 110.811 86.3906 110.813C86.4472 110.813 86.5049 110.816 86.5613 110.816C86.6076 110.816 86.6529 110.814 86.699 110.814C86.768 110.813 86.8393 110.815 86.9076 110.814C87.6445 110.802 88.3178 110.758 88.9422 110.684C89.4902 110.625 90.0424 110.538 90.5801 110.391C90.6661 110.369 90.7547 110.343 90.8442 110.316C90.8476 110.315 90.8511 110.314 90.8546 110.313C90.8916 110.301 90.9332 110.287 90.9755 110.271C91.3943 110.126 91.8084 109.909 92.0154 109.56C92.1015 109.415 92.1437 109.256 92.1454 109.092C92.1459 109.076 92.1473 109.061 92.1469 109.045C92.1469 109.045 92.147 109.044 92.147 109.043L93.1072 109.048L105.498 109.106C106.028 109.109 106.559 109.11 107.089 109.111C107.298 109.111 107.507 109.113 107.715 109.113C107.727 109.113 107.739 109.113 107.751 109.113C107.808 109.113 107.866 109.114 107.923 109.113L118.685 109.073C118.692 109.073 118.7 109.073 118.708 109.073L120.545 109.066C120.537 109.098 120.529 109.131 120.52 109.163C120.486 109.29 120.453 109.417 120.42 109.544C120.112 110.72 119.836 111.909 119.57 113.067L119.385 113.875C119.378 113.904 119.37 113.933 119.364 113.963C119.358 113.989 119.352 114.017 119.346 114.044C119.336 114.091 119.326 114.139 119.316 114.187C119.31 114.215 119.305 114.242 119.3 114.27C119.218 114.693 119.175 115.153 119.3 115.605C119.452 116.152 119.879 116.513 120.455 116.616C120.468 116.618 120.481 116.622 120.494 116.624C120.581 116.637 120.67 116.645 120.763 116.647C120.775 116.647 120.786 116.65 120.798 116.65C120.813 116.65 120.829 116.649 120.844 116.649ZM47.2977 103.016C45.5502 102.788 44.21 102.591 42.9526 102.377C41.4123 102.114 40.1502 101.843 38.9805 101.524C38.0177 101.262 36.7823 100.872 35.7649 100.186C35.3272 99.8907 34.933 99.5283 34.5813 99.106L46.2557 94.8351C46.5379 94.9561 46.8125 95.0589 47.0637 95.1455C48.0276 95.4775 49.0187 95.7396 50.0085 95.9244C51.1679 96.141 52.3146 96.2601 53.1839 96.3397C54.1123 96.4247 55.1337 96.4909 56.3985 96.5481C57.4755 96.5966 58.549 96.6263 59.5487 96.651C60.5616 96.676 61.5663 96.6899 62.5919 96.7033C62.9362 96.7078 63.2804 96.7129 63.6246 96.7181C64.3037 96.7287 64.9828 96.7391 65.6616 96.7431C65.7788 96.7438 65.8961 96.744 66.0136 96.744C66.1301 96.744 66.2467 96.7438 66.3632 96.7435L79.2049 96.7427L79.2049 104.607L78.8073 104.605C78.3856 104.605 77.9636 104.605 77.5422 104.596C76.2648 104.572 74.9875 104.546 73.7099 104.521L72.2727 104.492C71.2072 104.471 70.0985 104.442 68.8826 104.403C68.4355 104.389 67.9881 104.377 67.5407 104.364C66.597 104.337 65.6213 104.31 64.664 104.266L59.4037 104.025C58.4373 103.981 57.4536 103.917 56.5024 103.855C56.0845 103.828 55.6663 103.8 55.2481 103.775C53.8836 103.691 52.4897 103.564 51.26 103.452C49.912 103.33 48.5788 103.183 47.2977 103.016ZM29.7478 77.1C29.6822 75.6011 29.6492 74.0671 29.6233 72.7469C29.5991 71.4959 29.5915 70.2087 29.6007 68.921L29.6059 68.0849C29.6129 66.9046 29.6203 65.6842 29.6546 64.4862C29.6972 63.0111 29.7422 61.568 29.8249 60.1324C29.9023 58.7915 29.9944 57.3484 30.1418 55.8801C30.2988 54.3157 30.4787 52.92 30.6913 51.6132C30.9228 50.1922 31.1957 48.9031 31.5255 47.6719C31.8509 46.457 32.2413 45.141 32.7188 43.6489C32.785 43.4422 32.8538 43.2292 32.9249 43.0143L43.2515 46.8185C43.1611 47.0063 43.0799 47.1896 43.008 47.3616C42.6035 48.3298 42.2778 49.35 41.9788 50.3118C41.6781 51.2795 41.4264 52.2852 41.2308 53.3009C41.0415 54.283 40.8863 55.3185 40.7558 56.4673C40.6367 57.5165 40.5416 58.5685 40.4731 59.5939C40.401 60.6777 40.3422 61.8039 40.2981 62.9409C40.2567 64.0127 40.2348 65.0946 40.2174 66.104C40.1992 67.1433 40.1893 68.2455 40.1882 69.3806C40.1875 70.4336 40.195 71.406 40.2115 72.3535C40.2308 73.4599 40.2543 74.6452 40.2965 75.8168C40.3356 76.9048 40.3982 77.9731 40.4644 79.0628C40.5213 80.0043 40.6073 80.9996 40.7198 82.0205C40.8564 83.255 41.0005 84.2642 41.1736 85.1964C41.3758 86.2858 41.615 87.2839 41.9049 88.2476C42.1542 89.0764 42.4952 90.1645 42.9234 91.2337C43.0209 91.4767 43.1298 91.7298 43.2518 91.9839L32.916 95.7729C32.7164 95.1844 32.5352 94.5894 32.3574 94.0043L32.2842 93.7639C31.9143 92.5499 31.4938 91.1376 31.1853 89.7413C30.9098 88.4925 30.6675 87.1191 30.445 85.5422C30.2767 84.3497 30.1408 83.0728 30.0175 81.5237C29.9037 80.0903 29.8128 78.602 29.7478 77.1ZM36.8075 38.0385C37.896 37.5405 39.0502 37.2297 40.4486 36.9161C41.9319 36.5831 43.3939 36.3446 44.6284 36.1551C46.1273 35.9253 47.6107 35.744 48.864 35.5973C50.0992 35.4523 51.3942 35.3251 52.8225 35.2083C54.2799 35.0892 55.7291 34.9976 57.3368 34.8987C58.5122 34.8264 59.7644 34.7605 61.2779 34.691C61.6591 34.6736 62.0403 34.655 62.4212 34.6366C63.352 34.5914 64.3143 34.5446 65.2597 34.5144L70.5155 34.3466C71.4229 34.3176 72.3476 34.3025 73.2416 34.2879C73.6734 34.2809 74.1052 34.2738 74.5366 34.2653C74.8844 34.2585 75.2321 34.25 75.5799 34.2416C76.3051 34.2241 77.055 34.2062 77.7908 34.2029L79.2049 34.1966L79.2049 42.0602L66.4638 42.0594C66.2024 42.0589 65.9418 42.0584 65.6813 42.0598C65.0703 42.0627 64.4591 42.0723 63.8481 42.0817L62.4106 42.1017C61.5746 42.1121 60.7384 42.1225 59.9026 42.1432C58.8833 42.1684 57.6775 42.2011 56.4621 42.252C55.4077 42.296 54.3425 42.3636 53.2962 42.4533C52.126 42.5531 51.1552 42.6748 50.2412 42.8359C49.2494 43.0106 48.2615 43.2597 47.3046 43.5759C46.9682 43.6871 46.6124 43.8142 46.2554 43.9673L34.5863 39.6798C35.1661 39.001 35.909 38.4496 36.8075 38.0385ZM99.9132 34.1038L122.184 34.1038C122.993 34.1043 123.801 34.1081 124.61 34.1118L126.736 34.1196C127.858 34.1222 129.018 34.125 130.157 34.1481C131.213 34.1694 132.145 34.2069 133.04 34.2959C132.239 34.6198 131.439 34.9434 130.64 35.2698C129.029 35.9274 127.382 36.6321 125.746 37.3644C123.811 38.2304 121.931 39.0943 120.159 39.9318C118.502 40.7144 116.837 41.541 115.223 42.3418C115.004 42.3277 114.786 42.3156 114.572 42.3047C113.628 42.2567 112.669 42.2334 111.742 42.211L111.201 42.1976C110.545 42.1809 109.889 42.1726 109.233 42.1658L100.151 42.0709C99.8094 42.0667 99.4682 42.0624 99.127 42.0612C98.8558 42.0603 98.5843 42.0608 98.3131 42.0608L97.9076 42.0612L83.2074 42.0604L83.2075 35.8711C83.2075 35.7635 83.2108 35.6545 83.214 35.545C83.2268 35.1147 83.24 34.6336 83.0592 34.1794L99.9092 34.1038L99.9132 33.7422L99.9132 34.1038ZM134.079 100.451C132.971 100.029 131.883 99.5909 130.872 99.181C129.482 98.6175 128.341 98.1469 127.281 97.6997C126.095 97.1999 125.194 96.8128 124.359 96.4443L120.613 94.7915C121.126 94.4031 121.619 93.9314 122.106 93.3605C122.689 92.6758 123.246 91.8828 123.858 90.8647C124.433 89.9069 124.899 89.006 125.28 88.1099C125.667 87.2006 126 86.2387 126.297 85.1698C126.561 84.2221 126.784 83.2305 126.979 82.1385C127.161 81.1242 127.314 80.051 127.448 78.8577C127.558 77.8796 127.646 76.8643 127.708 75.8399C127.784 74.6178 127.83 73.6099 127.855 72.668C127.88 71.6878 127.895 70.6504 127.901 69.403L127.901 69.4011C127.901 68.4204 127.889 67.4358 127.864 66.4742C127.833 65.3157 127.79 64.28 127.73 63.3082C127.659 62.1474 127.57 61.0775 127.459 60.0375C127.347 58.9919 127.199 57.933 127.02 56.8904C126.84 55.8431 126.616 54.8175 126.354 53.8422C126.073 52.7971 125.743 51.8105 125.371 50.9099C125 50.0126 124.538 49.091 123.997 48.1711C123.389 47.1374 122.831 46.3225 122.243 45.6063C121.713 44.9615 121.176 44.4362 120.614 44.0109L124.359 42.3584C125.202 41.9864 126.104 41.5991 127.281 41.1027C128.344 40.6546 129.485 40.184 130.872 39.6217C131.883 39.2118 132.971 38.7741 134.079 38.3521C135.23 37.9138 137.453 37.2559 138.796 36.7708C139.298 37.2661 139.734 37.7806 140.099 38.2349C140.887 39.2163 141.618 40.3271 142.273 41.5367C142.876 42.6527 143.459 43.8914 144.057 45.3237C144.538 46.4765 145.001 47.7232 145.561 49.3662C146.025 50.7276 146.429 52.0711 146.764 53.3598C147.098 54.643 147.385 56.0122 147.619 57.4294C147.84 58.7677 148.021 60.1635 148.155 61.5781C148.277 62.8569 148.368 64.2564 148.433 65.8573C148.486 67.1344 148.505 68.4595 148.493 69.9085C148.48 71.5327 148.439 72.9788 148.369 74.3296C148.297 75.725 148.186 77.0826 148.038 78.3651C147.862 79.881 147.654 81.2666 147.4 82.6012C147.138 83.9793 146.815 85.3381 146.44 86.6397C146.072 87.9163 145.638 89.2556 145.113 90.734C144.627 92.103 144.102 93.421 143.553 94.6515C142.929 96.0518 142.319 97.2434 141.688 98.294C141.006 99.4315 140.216 100.496 139.341 101.458C139.13 101.69 138.922 101.903 138.716 102.102C137.366 101.612 135.206 100.88 134.079 100.451ZM83.214 103.258C83.2108 103.148 83.2074 103.039 83.2074 102.932L83.2074 96.7425L95.0127 96.7417L98.1998 96.7419L99.0908 96.7417C99.3813 96.7412 99.6719 96.7377 99.9627 96.7339L109.327 96.6364C109.848 96.6312 110.37 96.6263 110.891 96.6131L111.547 96.5969C112.458 96.575 113.4 96.5521 114.328 96.5095C114.621 96.4961 114.92 96.4797 115.222 96.4602L115.566 96.6315C117.523 97.6032 119.326 98.4781 121.079 99.3065C122.74 100.091 124.424 100.859 126.085 101.59C127.833 102.359 129.67 103.137 131.545 103.903C132.043 104.106 132.543 104.304 133.043 104.503C133.007 104.506 132.97 104.51 132.935 104.513C131.841 104.613 130.648 104.664 129.18 104.673C127.998 104.681 126.817 104.684 125.635 104.687L123.58 104.694C122.963 104.697 122.348 104.699 121.732 104.699L100.696 104.699C100.368 104.699 100.04 104.699 99.7112 104.698L90.7272 104.657L83.0589 104.624C83.24 104.17 83.2269 103.688 83.214 103.258ZM183.519 102.014C182.997 102.73 182.383 103.309 181.693 103.737C180.725 104.335 179.676 104.574 178.74 104.412C177.916 104.268 177.168 103.783 176.688 103.082C176.118 102.249 175.892 101.119 176.053 99.8998L176.053 99.8921C176.073 99.7786 176.205 99.1341 176.223 99.0639C176.472 98.1534 176.919 97.2733 177.518 96.5182C178.077 95.8121 178.727 95.2559 179.448 94.8653C180.46 94.3174 181.528 94.1627 182.455 94.4302C183.277 94.6678 183.985 95.2611 184.394 96.0577C184.859 96.9609 184.979 98.1148 184.732 99.3074C184.534 100.262 184.114 101.198 183.519 102.014ZM184.732 39.4953C184.979 40.6878 184.859 41.8418 184.394 42.7448C183.985 43.5416 183.277 44.1349 182.455 44.3725C181.528 44.64 180.461 44.4855 179.448 43.9371C178.727 43.5467 178.077 42.9908 177.518 42.2845C176.919 41.5294 176.472 40.6492 176.223 39.7401C176.205 39.6686 176.073 39.0244 176.053 38.9109L176.053 38.9029C175.892 37.6839 176.118 36.5537 176.688 35.7207C177.168 35.0193 177.916 34.5345 178.74 34.3908C179.677 34.2288 180.725 34.4678 181.693 35.0661C182.383 35.4937 182.998 36.0729 183.519 36.7882C184.114 37.6048 184.534 38.541 184.732 39.4953ZM28.7768 34.6906L28.9108 34.7179C29.6791 34.8733 30.5496 35.0496 31.0991 35.5295C31.3301 35.7313 31.4434 36.0183 31.4549 36.4325C31.4641 36.7673 31.4128 37.1289 31.283 37.6229C31.1801 38.0164 31.0737 38.4232 30.8766 38.7451C30.5915 39.2118 30.0243 39.4948 29.4757 39.7684C29.2944 39.8588 29.1067 39.9525 28.9323 40.0514C28.0579 40.5475 27.2402 41.1023 26.5082 41.6308C26.7296 40.5653 27.0013 39.3291 27.3526 38.0929C27.7361 36.7425 28.1289 35.6486 28.5864 34.6538C28.6499 34.6661 28.7134 34.6776 28.7768 34.6906ZM28.9322 98.7513C29.1065 98.8502 29.2937 98.9434 29.4747 99.0338C30.0238 99.3074 30.5913 99.5907 30.8769 100.058C31.0737 100.379 31.1801 100.786 31.2877 101.198C31.4128 101.674 31.4641 102.035 31.4549 102.37C31.4434 102.784 31.3301 103.071 31.0991 103.273C30.5496 103.753 29.6791 103.929 28.9108 104.085L28.7768 104.112C28.7145 104.125 28.6515 104.137 28.5873 104.149C28.3661 103.668 28.1556 103.153 27.9542 102.595C27.5798 101.558 27.2471 100.413 26.9076 98.991C26.763 98.3856 26.6278 97.7764 26.5021 97.1676C27.2356 97.6974 28.0555 98.2539 28.9322 98.7513Z" fill="#BFF5F0"/>
<path d="M171.801 114.106L171.801 119.464C171.801 120.569 170.905 121.464 169.801 121.464L155.407 121.464C154.302 121.464 153.407 120.569 153.407 119.464L153.407 114.106L171.801 114.106Z" fill="#A6C9C6"/>
<path d="M54.0801 114.106L54.0801 119.464C54.0801 120.569 53.1846 121.464 52.0801 121.464L37.686 121.464C36.5814 121.464 35.686 120.569 35.686 119.464L35.686 114.106L54.0801 114.106Z" fill="#FF7676"/>
<path d="M171.801 23.9756L171.801 18.6179C171.801 17.5134 170.905 16.6179 169.801 16.6179L155.407 16.6179C154.302 16.6179 153.407 17.5134 153.407 18.6179L153.407 23.9756L171.801 23.9756Z" fill="#A6C9C6"/>
<path d="M54.0801 23.9756L54.0801 18.6179C54.0801 17.5134 53.1846 16.6179 52.0801 16.6179L37.686 16.6179C36.5814 16.6179 35.686 17.5134 35.686 18.6179L35.686 23.9756L54.0801 23.9756Z" fill="#A6C9C6"/>
</svg>
