<?xml version="1.0" encoding="utf-8"?>
<!-- Generator: Adobe Illustrator 24.3.0, SVG Export Plug-In . SVG Version: 6.00 Build 0)  -->
<svg version="1.1" id="Layer_1" xmlns="http://www.w3.org/2000/svg" xmlns:xlink="http://www.w3.org/1999/xlink" x="0px" y="0px"
	 viewBox="0 0 1553 341" style="enable-background:new 0 0 1553 341;" xml:space="preserve">
<style type="text/css">
	.st0{fill:#E07E27;}
	.st1{fill:#FFFFFF;}
</style>
<path class="st0" d="M154.9,40.8h0.7c7.8,0,14.2,6.3,14.2,14.2v132c0,7.8-6.3,14.2-14.2,14.2h-0.7c-7.8,0-14.2-6.3-14.2-14.2V55
	C140.7,47.2,147,40.8,154.9,40.8z"/>
<path class="st0" d="M213.4,40.9h0.7c7.8,0,14.1,6.3,14.1,14.1v146.7c0,7.8-6.3,14.1-14.1,14.1h-0.7c-7.8,0-14.1-6.3-14.1-14.1V55.1
	C199.3,47.3,205.6,40.9,213.4,40.9z"/>
<path class="st0" d="M96.7,55.8h0.8c7.9,0,14.2,6.4,14.2,14.2v87.8c0,7.9-6.4,14.2-14.2,14.2h-0.8c-7.9,0-14.2-6.4-14.2-14.2V70
	C82.5,62.1,88.9,55.8,96.7,55.8z"/>
<path class="st0" d="M271.8,84.8h1c7.7,0,14,6.3,14,14v59.2c0,7.7-6.3,14-14,14h-1c-7.7,0-14-6.3-14-14V98.8
	C257.8,91,264,84.8,271.8,84.8z"/>
<path d="M528.9,200c-6.3,38.9-40.4,58.4-77.6,51.6c-40.6-7.4-54.6-47.1-50.2-83.6c4.4-36.6,30.5-60.4,68.1-59.1
	c30.1,1,52.5,20.6,58.8,49.6c0.1,0.4-0.1,0.6-0.5,0.6H514c-0.4,0-0.7-0.2-0.8-0.6c-4.7-16.8-15-27.8-31-32.9
	c-10.9-3.5-24.5-3.1-35.3,0.9c-23.9,8.7-33.4,33-32.3,57.3c0.6,14.2,3.5,27.4,12.6,38.2c8.2,9.8,19.2,15.3,33.1,16.4
	c26.7,2.3,48.5-11.4,53.9-38.4c0.1-0.3,0.3-0.5,0.6-0.5h13.7C528.8,199.5,529,199.7,528.9,200z"/>
<path d="M557.2,182.8v53.2c0,0.2,0.2,0.4,0.4,0.4h77.9c0.2,0,0.4,0.2,0.4,0.4l0,12.6c0,0.2-0.2,0.4-0.4,0.4h-92.2
	c-0.2,0-0.4-0.2-0.4-0.4V112.2c0-0.2,0.2-0.4,0.4-0.4h92.1c0.2,0,0.4,0.2,0.4,0.4v12.9c0,0.2-0.2,0.4-0.4,0.4h-77.9
	c-0.2,0-0.4,0.2-0.4,0.4v42.6c0,0.2,0.2,0.4,0.4,0.4h65.4c0.2,0,0.4,0.2,0.4,0.4v12.9c0,0.2-0.2,0.4-0.4,0.4l0,0l-65.4-0.4
	C557.4,182.4,557.2,182.6,557.2,182.8z"/>
<path d="M669.8,190.2v59.5c0,0.3-0.2,0.5-0.5,0.5h-13.8c-0.3,0-0.5-0.2-0.5-0.5V112.3c0-0.3,0.2-0.5,0.5-0.5
	c28.4-0.1,47.9-0.1,58.5,0c8.2,0.1,17,2.8,24.2,6.5c15,7.8,20.9,22.4,19.2,38.9c-1.8,17-11.7,28-29.6,32.8c-0.3,0.1-0.4,0.3-0.2,0.5
	l32.9,59.1c0.2,0.4,0.1,0.6-0.4,0.6h-15.5c-0.4,0-0.6-0.2-0.8-0.5L710.7,190c-0.1-0.2-0.3-0.3-0.5-0.3h-40
	C669.9,189.8,669.8,189.9,669.8,190.2z M742.9,156.6c3.1-17.1-10.1-30.2-27.2-30.4c-8.6-0.1-23.7-0.1-45.5,0c-0.3,0-0.5,0.2-0.5,0.5
	V175c0,0.3,0.2,0.5,0.5,0.5c16,0,32-0.1,48-0.3C731.1,175.1,740.5,170.1,742.9,156.6z"/>
<path d="M787.2,182.8v53.2c0,0.2,0.2,0.4,0.4,0.4h77.9c0.2,0,0.4,0.2,0.4,0.4v12.7c0,0.2-0.2,0.4-0.4,0.4h-92.2
	c-0.2,0-0.4-0.2-0.4-0.4V112.2c0-0.2,0.2-0.4,0.4-0.4h92.2c0.2,0,0.4,0.2,0.4,0.4v12.9c0,0.2-0.2,0.4-0.4,0.4h-77.9
	c-0.2,0-0.4,0.2-0.4,0.4v42.7c0,0.2,0.2,0.4,0.4,0.4h65.4c0.2,0,0.4,0.2,0.4,0.4v12.9c0,0.2-0.2,0.4-0.4,0.4l-65.4-0.4
	C787.4,182.4,787.2,182.6,787.2,182.8z"/>
<path d="M960.9,178.8c11.2,2,18.6,8.3,22.1,18.9c5.5,16.5,2.5,37.7-14.5,46.4c-7.2,3.7-15.3,5.6-24.4,5.7
	c-19.6,0.1-39.1,0.2-58.5,0.2c-0.3,0-0.5-0.2-0.5-0.5v0V112c0-0.1,0.1-0.3,0.3-0.3l0,0c15.8,0,31.7,0,47.6,0
	c6.6,0,11.6,0.4,15.2,1.3c21,5.3,33.7,27.2,27.2,48.4c-2.3,7.4-7.1,13.1-14.4,16.8C960.4,178.6,960.4,178.7,960.9,178.8z M961.5,142
	c-3.6-11.8-15.4-16.3-26.7-16.4c-11.6-0.1-23.3-0.1-35,0c-0.3,0-0.5,0.2-0.5,0.5V172c0,0.3,0.2,0.5,0.5,0.5c12,0.1,24,0,36-0.1
	c7.5-0.1,16.9-1.6,22-7.5C962.7,159.1,963.7,149.1,961.5,142z M971.2,215.2c1.1-17.2-12-28.9-28.7-29c-14.2-0.1-28.4-0.1-42.7,0
	c-0.3,0-0.5,0.2-0.5,0.5v48.9c0,0.3,0.2,0.5,0.5,0.5c14.1,0,28.1,0,42.2,0C956.3,236.2,970.2,231.4,971.2,215.2z"/>
<path d="M1015.8,190.2v59.5c0,0.3-0.2,0.5-0.5,0.5h-13.8c-0.3,0-0.5-0.2-0.5-0.5V112.3c0-0.3,0.1-0.4,0.4-0.4
	c30.8-0.2,50.7-0.2,59.5,0c9.3,0.2,17.9,2.9,25.7,8c12.6,8.2,18.1,20.1,16.8,34.9c-1.6,19-11.5,30.7-29.7,35.1
	c-0.4,0.1-0.5,0.3-0.3,0.7l32.9,59.1c0.2,0.4,0.1,0.6-0.4,0.6h-15.7c-0.3,0-0.5-0.1-0.6-0.4l-32.9-59.7c-0.2-0.3-0.4-0.4-0.8-0.4
	h-39.8C1015.9,189.8,1015.8,189.9,1015.8,190.2z M1088.9,156.8c3.1-17-9.9-30.3-26.9-30.5c-7.7-0.1-23-0.1-45.8,0
	c-0.3,0-0.5,0.2-0.5,0.5V175c0,0.4,0.2,0.5,0.5,0.5c16.1,0,32.1-0.1,48.2-0.3c4.1-0.1,7.8-0.7,11.1-1.8
	C1083.4,170.7,1087.4,164.9,1088.9,156.8z"/>
<path d="M1131.8,199.8c0,31.7,26.1,43.8,53.8,37.2c9.9-2.3,17.5-8,22.3-17.1c2.9-5.6,4.4-11.4,4.4-17.4c0.1-30.1,0.1-60.1,0-90.2
	c0-0.3,0.2-0.5,0.5-0.5h13.2c0.3,0,0.5,0.2,0.5,0.5c0,28.7,0,57.3,0,86c0,24.1-11.7,46.3-36.2,52.5c-9.2,2.3-19.1,2.8-29.8,1.4
	c-12.9-1.7-23.1-7.2-30.8-16.4c-7.9-9.6-12.2-24-12.2-36.5c-0.1-29-0.1-58,0-87c0-0.3,0.2-0.5,0.5-0.5h13.2c0.3,0,0.5,0.2,0.5,0.5
	C1131.8,141.4,1131.8,170.6,1131.8,199.8z"/>
<path d="M1366.1,129.7l-46.9,119.8c-0.1,0.3-0.4,0.5-0.7,0.5l-12,0c-0.4,0-0.6-0.2-0.7-0.5l-46.7-119.1c-0.4-1-0.6-1-0.6,0.1v119
	c0,0.3-0.2,0.5-0.5,0.5h-13.2c-0.5,0-0.8-0.2-0.8-0.8v-137c0-0.3,0.2-0.5,0.5-0.5h21.8c0.4,0,0.6,0.2,0.7,0.5l45.2,116.8
	c0.1,0.2,0.2,0.2,0.4,0.2c0.1,0,0.1-0.1,0.2-0.2l45-116.9c0.1-0.2,0.3-0.4,0.6-0.4h21.9c0.3,0,0.5,0.2,0.5,0.5v137.2
	c0,0.3-0.2,0.5-0.5,0.5H1367c-0.3,0-0.5-0.2-0.5-0.5V129.8C1366.5,129,1366.4,129,1366.1,129.7z"/>
<path d="M1485.8,111.8h37.6c0.2,0,0.4,0.2,0.4,0.4c0,0.1,0,0.2-0.1,0.3l-47.4,68.2c-0.1,0.1-0.1,0.4,0,0.5l47.4,68.2
	c0.1,0.2,0.1,0.5-0.1,0.6c-0.1,0-0.2,0.1-0.2,0.1l-37.5,0c-0.1,0-0.3-0.1-0.3-0.2l-28.3-40.7c-0.1-0.2-0.4-0.2-0.6-0.1
	c0,0-0.1,0.1-0.1,0.1l-28.3,40.7c-0.1,0.1-0.2,0.2-0.4,0.2l-37.5,0c-0.2,0-0.4-0.2-0.4-0.4c0-0.1,0-0.2,0.1-0.2l47.4-68.2
	c0.1-0.1,0.1-0.4,0-0.5l-47.4-68.2c-0.1-0.2-0.1-0.5,0.1-0.6c0.1-0.1,0.2-0.1,0.3-0.1h37.6c0.1,0,0.3,0.1,0.3,0.2l28.3,40.7
	c0.1,0.2,0.4,0.2,0.6,0.1c0,0,0.1-0.1,0.1-0.1l28.2-40.7C1485.6,111.8,1485.7,111.7,1485.8,111.8z"/>
<path class="st0" d="M38,114h0.7c7.7,0,14,6.3,14,14v88.6c0,7.7-6.3,14-14,14H38c-7.7,0-14-6.3-14-14V128C24,120.2,30.3,114,38,114z
	"/>
<path class="st1" d="M934.7,125.6c11.4,0.1,23.1,4.7,26.7,16.4c2.2,7.1,1.2,17.1-3.8,22.9c-5.1,5.9-14.5,7.4-22,7.5
	c-12,0.2-24,0.2-36,0.1c-0.3,0-0.5-0.2-0.5-0.5V126c0-0.3,0.2-0.5,0.5-0.5C911.4,125.4,923.1,125.4,934.7,125.6z"/>
<path class="st1" d="M715.7,126.3c17,0.2,30.2,13.2,27.2,30.4c-2.4,13.4-11.8,18.5-24.6,18.6c-16,0.2-32,0.3-48,0.3
	c-0.3,0-0.5-0.2-0.5-0.5v-48.2c0-0.3,0.2-0.5,0.5-0.5C692,126.2,707.2,126.2,715.7,126.3z"/>
<path class="st1" d="M1062,126.3c17,0.2,30,13.5,26.9,30.5c-1.5,8.1-5.4,13.9-13.2,16.6c-3.4,1.2-7.1,1.8-11.1,1.8
	c-16.1,0.2-32.1,0.3-48.2,0.3c-0.4,0-0.5-0.2-0.5-0.5v-48.2c0-0.3,0.2-0.5,0.5-0.5C1039,126.2,1054.3,126.2,1062,126.3z"/>
<path class="st0" d="M330,143.2l1.2,0c7.7,0,13.9,6.2,13.9,13.8l0.2,44.9c0,7.7-6.2,13.9-13.8,13.9l-1.2,0
	c-7.7,0-13.9-6.2-13.9-13.8l-0.2-44.9C316.2,149.5,322.4,143.2,330,143.2z"/>
<path class="st1" d="M942.5,186.3c16.7,0.1,29.8,11.7,28.7,29c-1,16.1-14.9,21-29.2,21c-14.1,0-28.1,0-42.2,0
	c-0.3,0-0.5-0.2-0.5-0.5v-48.9c0-0.3,0.2-0.5,0.5-0.5C914,186.2,928.3,186.2,942.5,186.3z"/>
<path class="st0" d="M95.8,201.6l1.8,0c7.4,0,13.5,6,13.5,13.4l0,16.5c0,7.4-6,13.5-13.4,13.5l-1.8,0c-7.4,0-13.5-6-13.5-13.4
	l0-16.5C82.4,207.6,88.4,201.6,95.8,201.6z"/>
<path class="st0" d="M271.4,201.6l1.9,0c7.5,0,13.5,6.1,13.5,13.6l-0.1,16.1c0,7.5-6.1,13.5-13.6,13.5l-1.9,0
	c-7.5,0-13.5-6.1-13.5-13.6l0.1-16.1C257.8,207.7,263.9,201.6,271.4,201.6z"/>
<path class="st0" d="M154.4,230.8h1.8c7.4,0,13.5,6,13.5,13.5v16.4c0,7.4-6,13.5-13.5,13.5h-1.8c-7.4,0-13.5-6-13.5-13.5v-16.4
	C140.9,236.8,146.9,230.8,154.4,230.8z"/>
<path class="st0" d="M212.8,245.5l1.9,0c7.5,0,13.5,6.1,13.5,13.6l0,16.2c0,7.5-6.1,13.5-13.6,13.5l-1.9,0
	c-7.5,0-13.5-6.1-13.5-13.6l0-16.2C199.2,251.6,205.3,245.5,212.8,245.5z"/>
<path class="st0" d="M329.8,245.5h1.9c7.4,0,13.5,6,13.5,13.5v16.4c0,7.4-6,13.5-13.5,13.5h-1.9c-7.4,0-13.5-6-13.5-13.5v-16.4
	C316.3,251.5,322.3,245.5,329.8,245.5z"/>
<path class="st0" d="M271.5,274.7l1.9,0c7.5,0.1,13.4,6.2,13.4,13.6l-0.2,16.3c-0.1,7.5-6.2,13.4-13.6,13.4l-1.9,0
	c-7.5-0.1-13.4-6.2-13.4-13.6l0.2-16.3C257.9,280.6,264.1,274.6,271.5,274.7z"/>
</svg>
