<svg width="8" height="12.5" viewBox="0 0 16 25" fill="none" xmlns="http://www.w3.org/2000/svg">
<path d="M2.10958 24.9112C1.30858 24.6672 0.653775 24.1349 0.277984 23.4235L0 22.8963V12.4977C0 2.12898 0.00102807 2.09809 0.217237 1.62861C0.471539 1.08088 1.03883 0.496089 1.57729 0.228403C1.92837 0.0544063 2.36697 0.0379332 7.49523 0.0111645C12.7285 -0.0156042 13.058 -0.006338 13.4718 0.176924C14.0999 0.454907 14.6178 0.948068 14.9215 1.55757L15.1861 2.0878L15.185 12.4411L15.184 22.7934L14.94 23.3164C14.6188 24.0082 14.0505 24.5426 13.3668 24.799C12.8335 24.9977 12.5905 25.0069 7.58892 24.9977C4.71747 24.9935 2.25166 24.9534 2.10958 24.9112ZM4.16973 12.4885V0.792604L3.15768 0.828638C2.25887 0.859525 2.09825 0.89556 1.71834 1.14677C1.29107 1.4299 0.87513 2.06926 0.87513 2.44402C0.87513 2.59846 1.10678 2.74054 1.90572 3.07824C2.47301 3.3171 2.96 3.54978 2.98779 3.59405C3.07016 3.72789 2.92396 4.00382 2.76953 4.00382C2.69231 4.00382 2.23621 3.84217 1.75747 3.64347C1.27872 3.44579 0.860715 3.28312 0.829829 3.28312C0.797912 3.28312 0.772173 3.76804 0.772173 4.3621C0.772173 5.61096 0.689807 5.50389 2.08075 6.065C2.87763 6.38623 3.1134 6.5767 2.97956 6.7929C2.87454 6.96381 2.47919 6.88454 1.69878 6.53345C1.2746 6.34298 0.890572 6.22047 0.845271 6.26268C0.801 6.30386 0.77835 6.8135 0.793793 7.3952L0.823651 8.45256L1.80174 8.85821C2.96926 9.34313 3.15561 9.48933 2.91675 9.72716C2.76644 9.87748 2.68099 9.86101 1.89852 9.52125C1.42904 9.31843 0.982205 9.15164 0.904988 9.15164C0.793795 9.15164 0.771144 9.3802 0.794824 10.2574L0.823651 11.3631L1.82439 11.776C3.00839 12.264 3.1515 12.3762 2.90955 12.6182C2.751 12.7757 2.67584 12.7613 1.83262 12.4102C1.33431 12.2012 0.891603 12.0324 0.849391 12.0334C0.710399 12.0354 0.759818 14.1615 0.900869 14.2686C0.971909 14.3221 1.4558 14.5414 1.97779 14.7566C2.90852 15.1406 3.05369 15.2518 2.96 15.5092C2.8869 15.7058 2.64701 15.6616 1.75026 15.2848C1.29725 15.0943 0.891603 14.9594 0.849391 14.9851C0.807178 15.0109 0.772173 15.4917 0.772173 16.0538C0.772173 17.2378 0.701132 17.1493 2.08075 17.7032C2.87969 18.0244 3.11237 18.2118 2.97956 18.427C2.88072 18.5876 2.57803 18.532 1.80174 18.2118C1.38991 18.0419 0.98838 17.9029 0.909104 17.9029C0.792763 17.9029 0.771144 18.115 0.794824 18.9943L0.823651 20.0866L1.80174 20.4923C2.96412 20.9752 3.15561 21.1234 2.92087 21.3581C2.7757 21.5033 2.67687 21.4838 1.87484 21.1522C1.38785 20.9504 0.934846 20.7857 0.866894 20.7857C0.684662 20.7857 0.797913 22.6039 1.00486 23.0003C1.43007 23.8147 2.14664 24.1719 3.37182 24.1792L4.16973 24.1833V12.4885ZM7.15547 12.4977V0.812165H6.07443H4.99339V12.4977V24.1833H6.07443H7.15547V12.4977ZM10.1155 12.472L10.1422 0.812165H9.06017H7.97912V12.5008V24.1905L9.03443 24.1606L10.0897 24.1318L10.1155 12.472ZM13.198 23.9331C13.5666 23.7612 13.8209 23.5491 14.0216 23.2464C14.2801 22.8551 14.3151 22.7028 14.346 21.7978C14.3655 21.2408 14.3408 20.7857 14.2914 20.7857C14.242 20.7857 13.8209 20.9463 13.3555 21.143C12.4742 21.5146 12.1674 21.5219 12.2209 21.1697C12.2446 21.0122 12.5051 20.8609 13.3061 20.5396L14.3593 20.1165L14.3614 18.9572L14.3624 17.7969L14.0278 17.9379C13.8435 18.0152 13.4533 18.1819 13.1609 18.3086C12.5514 18.5721 12.2518 18.5577 12.2518 18.2633C12.2518 18.1027 12.468 17.9719 13.2814 17.6383L14.3109 17.2162L14.3398 16.0569C14.3562 15.4196 14.3305 14.9141 14.2831 14.9337C12.3918 15.7141 12.2003 15.7522 12.2003 15.3527C12.2003 15.2106 12.4649 15.0562 13.2814 14.7205L14.3624 14.2768V13.1556C14.3624 12.5389 14.3398 12.0344 14.312 12.0344C14.2842 12.0344 13.8631 12.2002 13.3751 12.402C12.4526 12.7829 12.2003 12.7963 12.2003 12.4607C12.2003 12.3062 12.4371 12.1652 13.2814 11.8192L14.3624 11.3745V10.2636C14.3624 9.652 14.3254 9.15164 14.279 9.15164C14.2337 9.15164 13.8075 9.30916 13.3318 9.50066C12.4289 9.86409 12.2003 9.87542 12.2003 9.55728C12.2003 9.36167 12.5092 9.19385 13.7488 8.71716L14.3593 8.48242L14.3614 7.32828L14.3624 6.17414L13.4914 6.5386C12.5597 6.92881 12.2518 6.95249 12.2518 6.63126C12.2518 6.47477 12.4773 6.33681 13.2814 5.99911L14.3109 5.56669L14.3398 4.42491C14.3562 3.79687 14.349 3.28312 14.3233 3.28312C14.2986 3.28312 13.8991 3.44579 13.4358 3.64347C12.4927 4.04706 12.3239 4.07485 12.2343 3.84114C12.1427 3.60228 12.3527 3.45712 13.4101 3.0247C13.9712 2.79614 14.3624 2.57684 14.3624 2.49241C14.3624 2.26488 13.9938 1.60596 13.7272 1.35783C13.304 0.962482 12.7831 0.812165 11.8431 0.812165H10.9649V12.4977V24.1833L11.8142 24.1822C12.4948 24.1812 12.7697 24.1318 13.198 23.9331Z" fill="black"/>
</svg>
