<svg width="46" height="46" viewBox="0 0 46 46" fill="none" xmlns="http://www.w3.org/2000/svg">
<path d="M32.143 7.99219C32.7537 7.99208 33.3417 8.22336 33.7888 8.63945C34.2358 9.05554 34.5086 9.62554 34.5522 10.2347L34.558 10.4072V14.2378C34.5585 14.5471 34.4404 14.8448 34.228 15.0695C34.0155 15.2943 33.7249 15.429 33.4161 15.4458C33.1073 15.4626 32.8038 15.3603 32.5682 15.1599C32.3326 14.9596 32.1829 14.6764 32.1499 14.3689L32.143 14.2378V10.4072H12.708V33.2922H17.7611C18.0704 33.2913 18.3683 33.4092 18.5933 33.6216C18.8183 33.834 18.9532 34.1246 18.9701 34.4335C18.9871 34.7424 18.8849 35.046 18.6845 35.2817C18.4841 35.5175 18.2009 35.6673 17.8933 35.7003L17.7611 35.7072H12.708C12.0973 35.7073 11.5092 35.476 11.0622 35.0599C10.6151 34.6438 10.3423 34.0738 10.2987 33.4647L10.293 33.2922V10.4072C10.2929 9.79648 10.5241 9.20841 10.9402 8.76138C11.3563 8.31435 11.9263 8.04156 12.5355 7.99794L12.708 7.99219H32.143Z" fill="#102C53"/>
<path d="M24.1496 14.3174V16.7324H16.0996V14.3174H24.1496ZM20.6996 18.9174V21.3324H16.0996V18.9174H20.6996ZM20.6996 24.0924V26.5074H16.0996V24.0924H20.6996Z" fill="#102C53"/>
<path d="M30.4758 18.4004C29.7962 18.4004 29.1233 18.5342 28.4954 18.7943C27.8675 19.0544 27.297 19.4356 26.8165 19.9161C26.336 20.3967 25.9548 20.9671 25.6947 21.595C25.4346 22.2229 25.3008 22.8958 25.3008 23.5754C25.3008 24.255 25.4346 24.9279 25.6947 25.5558C25.9548 26.1836 26.336 26.7541 26.8165 27.2347C27.297 27.7152 27.8675 28.0964 28.4954 28.3565C29.1233 28.6165 29.7962 28.7504 30.4758 28.7504C31.8483 28.7504 33.1646 28.2052 34.1351 27.2347C35.1056 26.2642 35.6508 24.9479 35.6508 23.5754C35.6508 22.2029 35.1056 20.8866 34.1351 19.9161C33.1646 18.9456 31.8483 18.4004 30.4758 18.4004ZM30.4758 20.7004C30.8533 20.7004 31.2272 20.7748 31.576 20.9192C31.9248 21.0637 32.2417 21.2755 32.5087 21.5425C32.7757 21.8094 32.9875 22.1264 33.1319 22.4752C33.2764 22.824 33.3508 23.1978 33.3508 23.5754C33.3508 23.9529 33.2764 24.3268 33.1319 24.6756C32.9875 25.0244 32.7757 25.3414 32.5087 25.6083C32.2417 25.8753 31.9248 26.0871 31.576 26.2315C31.2272 26.376 30.8533 26.4504 30.4758 26.4504C29.7133 26.4504 28.982 26.1475 28.4428 25.6083C27.9037 25.0692 27.6008 24.3379 27.6008 23.5754C27.6008 22.8129 27.9037 22.0816 28.4428 21.5425C28.982 21.0033 29.7133 20.7004 30.4758 20.7004Z" fill="#102C53"/>
<path d="M30.347 28.8297L30.3125 28.8009C29.2453 27.897 28.3391 27.5474 27.4467 27.8694C24.1128 29.0735 21.8496 32.1509 21.8496 35.6503V36.8003H39.0996V35.6503C39.0996 31.9013 36.5029 28.6572 32.8252 27.6555C32.0214 27.437 31.3245 27.7763 30.5448 28.61L30.347 28.8297ZM32.4894 29.9463L32.586 29.9751C34.6169 30.6306 36.1729 32.3073 36.6478 34.3393L36.6823 34.5003H24.2669L24.2911 34.383C24.7189 32.4993 26.0828 30.9066 27.9676 30.1326L28.2287 30.0326C28.1125 30.0751 28.1413 30.0809 28.3138 30.1855C28.6542 30.3891 29.105 30.7755 29.6478 31.3355L30.6057 32.3291L31.4096 31.2079C31.827 30.6248 32.1766 30.2154 32.4377 29.9889L32.4894 29.9463Z" fill="#102C53"/>
</svg>
