<svg width="29" height="30" viewBox="0 0 29 30" fill="none" xmlns="http://www.w3.org/2000/svg">
<path d="M1.0202 25.931C-0.117803 24.8577 -0.329803 23.123 0.515864 21.8067L2.94653 18.0243C4.2332 16.0227 6.3162 14.6797 8.6682 14.333H19.4952C20.1932 14.436 20.8665 14.6287 21.5035 14.898L17.8965 21.2643C16.7169 20.9363 15.4302 20.754 14.0819 20.754C11.0405 20.754 8.30753 21.674 6.43553 23.1297C6.3382 23.178 6.24986 23.2463 6.17786 23.3363C4.73753 24.5467 3.87186 26.0923 3.87186 27.7743C3.87186 27.977 3.8862 28.178 3.91053 28.378C3.3262 28.0107 2.77353 27.5857 2.2622 27.103L1.0202 25.931Z" fill="#102C53"/>
<path d="M12.6013 30.0004C12.3303 29.8177 12.166 29.6001 12.166 29.3954C12.166 28.9187 12.985 28.3857 14.081 28.3857C15.177 28.3857 15.996 28.9187 15.996 29.3954C15.996 29.6001 15.832 29.8177 15.561 30.0004H12.6013Z" fill="#102C53"/>
<path d="M15.6159 27.1135C15.1559 26.9485 14.6379 26.8542 14.0829 26.8542C13.5282 26.8542 13.0099 26.9488 12.5499 27.1135L8.07422 23.8188C9.63489 22.8702 11.7522 22.2852 14.0826 22.2852C15.4942 22.2852 16.8269 22.5008 18.0062 22.8805C18.0379 22.8918 18.0689 22.9042 18.1012 22.9112C18.8319 23.1538 19.5012 23.4602 20.0912 23.8188L15.6159 27.1135Z" fill="#102C53"/>
<path d="M5.75768 29.2998C5.52668 28.8044 5.40234 28.2934 5.40234 27.7744C5.40234 26.6731 5.91968 25.6474 6.80568 24.7871L11.1813 28.0078C10.8363 28.4044 10.6357 28.8788 10.6357 29.3944C10.6357 29.6021 10.6683 29.8048 10.7303 29.9994H9.55301C8.23868 29.9998 6.95634 29.7578 5.75768 29.2998Z" fill="#102C53"/>
<path d="M17.4334 29.9998C17.4954 29.8051 17.5281 29.6024 17.5281 29.3948C17.5281 28.8788 17.3274 28.4044 16.9824 28.0078L21.3578 24.7871C22.2441 25.6474 22.7611 26.6731 22.7611 27.7744C22.7611 28.2931 22.6371 28.8041 22.4058 29.2998C21.2074 29.7578 19.9251 29.9998 18.6108 29.9998H17.4334Z" fill="#102C53"/>
<path d="M27.1435 25.9317L25.9011 27.1033C25.3901 27.5857 24.8371 28.011 24.2531 28.378C24.2775 28.178 24.2918 27.977 24.2918 27.7747C24.2918 26.0923 23.4258 24.5467 21.9851 23.3363C21.9135 23.247 21.8258 23.1787 21.7288 23.1307C21.0471 22.6007 20.2528 22.1407 19.3691 21.7713L22.8515 15.625C23.7858 16.2467 24.5948 17.0583 25.2165 18.0253L27.6471 21.8077C28.4931 23.1237 28.2808 24.8583 27.1435 25.9317Z" fill="#102C53"/>
<path d="M9.38086 4.701C9.38086 2.109 11.4895 0 14.0819 0C16.6742 0 18.7829 2.109 18.7829 4.701V7.50767C18.7829 10.1 16.6739 12.2087 14.0819 12.2087C11.4899 12.2087 9.38086 10.1 9.38086 7.50767V4.701Z" fill="#102C53"/>
</svg>
