<svg width="64" height="64" viewBox="0 0 64 64" fill="none" xmlns="http://www.w3.org/2000/svg">
<path fill-rule="evenodd" clip-rule="evenodd" d="M26.8092 35.2212C26.4514 34.9124 25.9093 34.9515 25.5992 35.3107L16.8389 45.4545L12.5278 40.2808C12.2245 39.9169 11.6838 39.8667 11.3185 40.1707C10.9552 40.4741 10.9057 41.0148 11.2091 41.3787L16.168 47.329C16.5067 47.7357 17.1299 47.7414 17.4763 47.3407L26.8984 36.4314C27.2075 36.0736 27.1682 35.5315 26.8092 35.2212ZM58.5885 28.2062C58.5885 26.5766 57.2677 25.2511 55.6361 25.2511C54.0057 25.2511 52.6795 26.5766 52.6795 28.2062C52.6795 29.8365 54.0057 31.1627 55.6361 31.1627C57.2678 31.1627 58.5885 29.8364 58.5885 28.2062ZM46.139 28.2062L41.0196 37.0731H34.3334C34.4979 34.151 34.4076 31.2088 34.323 28.449C34.31 28.0301 33.9956 27.6813 33.5795 27.6256C31.2805 27.3187 29.0612 26.8415 26.8277 26.1914L30.7824 19.3413H41.0197L46.139 28.2062ZM45.7628 42.3418C43.5197 42.3418 42.0647 44.7912 43.2093 46.7745C44.023 48.1867 45.835 48.6717 47.2459 47.8566C48.6606 47.0395 49.1449 45.2343 48.328 43.8194C47.7811 42.8721 46.785 42.3418 45.7628 42.3418ZM32.6301 29.2243C32.7869 34.4165 32.8819 40.1928 31.18 45.0266C29.2911 50.3942 25.3246 53.921 19.0585 55.8031C12.7925 53.921 8.82684 50.3942 6.93718 45.0266C5.23529 40.1928 5.33091 34.4165 5.48579 29.2243C10.2163 28.5149 15.0921 27.0289 19.0587 24.9428C23.024 27.0281 27.9018 28.5148 32.6301 29.2243ZM12.9667 25.6644C15.0297 24.9675 16.9524 24.1421 18.6474 23.2169C18.9033 23.0772 19.2135 23.0772 19.4694 23.2169C21.1644 24.1421 23.0871 24.9675 25.1515 25.6644L29.2967 18.4834L24.1781 9.61651H13.9402L8.8216 18.4834L12.9667 25.6644ZM42.9129 11.8824C43.5964 14.4216 47.0168 14.8668 48.328 12.5951C49.6428 10.317 47.5387 7.58591 45.0034 8.26137C43.4291 8.6807 42.4912 10.3032 42.9129 11.8824ZM60.3083 28.2062C60.3083 30.783 58.2103 32.8783 55.6361 32.8783C53.3529 32.8783 51.4489 31.2315 51.0444 29.0639H47.6243L42.5057 37.9309L44.2158 40.8929C46.2946 40.1582 48.6726 40.9851 49.8139 42.9614C51.6225 46.0939 49.3268 49.9697 45.7766 49.9697C44.1066 49.9697 42.5643 49.0893 41.7235 47.6322C40.5822 45.6559 41.0556 43.1836 42.7299 41.7508L41.0199 38.7887H34.2043C33.9814 41.133 33.5584 43.4368 32.7988 45.5968C30.6877 51.5912 26.2721 55.4922 19.2983 57.5208C19.1422 57.567 18.9751 57.5666 18.8188 57.5208C11.845 55.4922 7.42934 51.5912 5.31952 45.5968C3.43126 40.2354 3.62454 33.9735 3.79376 28.449C3.80745 28.0301 4.12182 27.6813 4.53808 27.6256C6.83708 27.3188 9.05686 26.8416 11.2905 26.1914L7.08745 18.912C6.93475 18.6465 6.93475 18.3197 7.08745 18.0541L12.702 8.33011C12.8547 8.06463 13.1389 7.90092 13.445 7.90092H24.6735C24.9795 7.90092 25.2623 8.06463 25.4158 8.33011L30.7827 17.6256H41.02L42.7301 14.6648C39.8976 12.2511 40.9122 7.58271 44.5596 6.60415C47.0515 5.93561 49.6111 7.41247 50.2802 9.90809C51.0798 12.8909 48.8228 15.7896 45.7607 15.7896C45.2345 15.7896 44.7145 15.6988 44.2158 15.5219L42.5057 18.4833L47.6243 27.3489H51.0444C51.4489 25.1813 53.3531 23.5359 55.6361 23.5359C58.2101 23.536 60.3083 25.6307 60.3083 28.2062ZM38.8336 35.0548C39.2432 35.289 39.7666 35.1543 40.0044 34.7411L43.1826 29.2366C43.4199 28.826 43.2788 28.3011 42.8696 28.0644C42.459 27.8277 41.934 27.9681 41.6974 28.3787L38.5186 33.8833C38.2826 34.2926 38.4229 34.8175 38.8336 35.0548ZM22.2374 13.162H15.8805C15.4073 13.162 15.0235 12.7787 15.0235 12.3041C15.0235 11.8309 15.4073 11.4463 15.8805 11.4463H22.2374C22.7106 11.4463 23.0953 11.8308 23.0953 12.3041C23.0953 12.7787 22.7107 13.162 22.2374 13.162Z" fill="#40BE76"/>
</svg>
