<svg width="25" height="25" viewBox="0 0 25 25" fill="none" xmlns="http://www.w3.org/2000/svg">
<path d="M8.93427 19.3305L11.1578 15.5645H9.82568V12.69L7.59213 16.456H8.93427V19.3305ZM6.24997 10.6768H12.5V5.52853C12.5 5.44839 12.4666 5.37493 12.3998 5.30814C12.333 5.24137 12.2596 5.20798 12.1794 5.20798H6.57052C6.49038 5.20798 6.41692 5.24137 6.35013 5.30814C6.28336 5.37493 6.24997 5.44839 6.24997 5.52853V10.6768ZM6.24997 19.7913H12.5V12.2392H6.24997V19.7913ZM4.6875 21.3538V5.52853C4.6875 5.00235 4.86979 4.55697 5.23437 4.19238C5.59896 3.8278 6.04434 3.64551 6.57052 3.64551H12.1794C12.7056 3.64551 13.151 3.8278 13.5156 4.19238C13.8802 4.55697 14.0624 5.00235 14.0624 5.52853V12.2993H15.2243C15.701 12.2993 16.1074 12.4672 16.4432 12.8031C16.7791 13.139 16.947 13.5453 16.947 14.0221V18.8298C16.947 19.165 17.0836 19.4624 17.3567 19.7222C17.6298 19.9819 17.9373 20.1118 18.2792 20.1118C18.6384 20.1118 18.9503 19.9819 19.2147 19.7222C19.4791 19.4624 19.6113 19.165 19.6113 18.8298V9.31455H19.3008C19.0324 9.31455 18.8084 9.22474 18.6287 9.04512C18.4491 8.8655 18.3593 8.64148 18.3593 8.37306V6.51009H18.8301V5.14793H19.7515V6.51009H20.7131V5.14793H21.6345V6.51009H22.1053V8.37306C22.1053 8.64148 22.0155 8.8655 21.8359 9.04512C21.6562 9.22474 21.4322 9.31455 21.1638 9.31455H20.8533V18.8298C20.8533 19.5122 20.6035 20.1035 20.1041 20.6036C19.6046 21.1037 18.9963 21.3538 18.2792 21.3538C17.5794 21.3538 16.9754 21.1037 16.4673 20.6036C15.9591 20.1035 15.7051 19.5122 15.7051 18.8298V14.0221C15.7051 13.8752 15.6617 13.7583 15.5749 13.6715C15.488 13.5847 15.3712 13.5413 15.2243 13.5413H14.0624V21.3538H4.6875Z" fill="#989EA5"/>
</svg>
