<svg width="709" height="682" viewBox="0 0 709 682" fill="none" xmlns="http://www.w3.org/2000/svg">
<circle cx="341.115" cy="341" r="157.132" stroke="#E7EAEE"/>
<path opacity="0.8" d="M589.395 341C589.395 478.12 477.997 589.279 340.579 589.279C203.16 589.279 91.7626 478.12 91.7626 341C91.7626 203.879 203.16 92.7197 340.579 92.7197C477.997 92.7197 589.395 203.879 589.395 341Z" stroke="#E7EAEE"/>
<circle opacity="0.6" cx="341.115" cy="341" r="340.5" stroke="#E7EAEE"/>
<path d="M418.112 301.89C418.112 301.89 416.907 273.982 416.542 266.163C416.177 258.345 421.441 215.18 418.499 186.521C415.557 157.861 371.275 152.211 370.91 147.393C370.545 142.575 340.644 142.765 340.644 142.765C340.644 142.765 310.715 142.48 310.372 147.32C310.028 152.16 265.703 157.686 262.688 186.338C259.673 214.991 264.878 258.17 264.455 265.981C264.031 273.792 262.776 301.707 262.776 301.707L254.592 307.678L254.592 312.058L261.52 312.102C261.52 312.102 262.798 489.747 267.01 497.193C271.222 504.639 276.427 526.093 290.194 531.729C303.962 537.365 340.155 539.233 340.155 539.233C340.155 539.233 376.4 537.416 390.175 531.846C403.95 526.276 409.155 504.836 413.418 497.39C417.681 489.944 419.345 312.314 419.345 312.314L425.565 312.387L425.565 306.686L418.112 301.89Z" fill="white"/>
<path d="M340.644 142.765C340.651 143.765 340.651 143.765 340.651 143.765L340.652 143.765L340.656 143.765L340.671 143.765L340.734 143.764C340.79 143.764 340.873 143.764 340.981 143.764C341.199 143.764 341.518 143.764 341.925 143.766C342.739 143.77 343.903 143.782 345.302 143.81C348.101 143.867 351.83 143.994 355.567 144.269C359.314 144.546 363.024 144.97 365.802 145.612C367.198 145.934 368.296 146.298 369.033 146.693C369.828 147.118 369.909 147.413 369.913 147.469C369.965 148.149 370.384 148.675 370.801 149.052C371.234 149.445 371.812 149.812 372.466 150.163C373.779 150.868 375.605 151.616 377.723 152.441C378.442 152.721 379.199 153.011 379.987 153.314C383.887 154.811 388.563 156.607 393.3 158.915C404.738 164.49 416.09 172.853 417.504 186.623C418.966 200.866 418.391 218.753 417.489 234.099C417.13 240.202 416.72 245.891 416.368 250.783C416.278 252.037 416.191 253.238 416.11 254.381C415.716 259.942 415.449 264.181 415.543 266.21C415.726 270.117 416.118 279.047 416.465 287.002C416.638 290.979 416.8 294.712 416.919 297.45L417.06 300.718L417.099 301.617L417.109 301.852L417.112 301.912L417.112 301.928L417.113 301.931L417.113 301.932C417.113 301.933 417.113 301.933 418.112 301.89L417.113 301.933L417.135 302.45L417.571 302.73L424.565 307.231L424.565 311.375L419.357 311.314L418.355 311.302L418.345 312.305L419.345 312.314C418.345 312.305 418.345 312.305 418.345 312.307L418.345 312.313L418.345 312.337L418.344 312.433L418.341 312.814C418.337 313.15 418.332 313.649 418.326 314.3C418.313 315.603 418.293 317.514 418.266 319.95C418.212 324.821 418.13 331.788 418.019 340.172C417.796 356.939 417.455 379.373 416.981 402.039C416.506 424.706 415.899 447.599 415.143 465.288C414.766 474.134 414.352 481.668 413.9 487.219C413.674 489.995 413.439 492.262 413.197 493.942C413.076 494.783 412.955 495.462 412.836 495.979C412.71 496.524 412.605 496.798 412.55 496.893C411.483 498.758 410.371 501.441 409.133 504.43C409.089 504.536 409.045 504.642 409.001 504.749C407.697 507.896 406.23 511.414 404.472 514.868C400.935 521.817 396.331 528.278 389.8 530.919C383.063 533.643 370.698 535.481 359.893 536.634C354.517 537.208 349.568 537.608 345.963 537.865C344.16 537.993 342.695 538.086 341.68 538.146C341.173 538.176 340.779 538.199 340.511 538.213C340.378 538.22 340.276 538.226 340.208 538.229L340.156 538.232L340.105 538.229C340.037 538.226 339.935 538.22 339.802 538.213C339.535 538.198 339.141 538.175 338.634 538.144C337.621 538.082 336.158 537.987 334.358 537.856C330.758 537.593 325.816 537.185 320.446 536.6C309.655 535.426 297.306 533.559 290.573 530.804C284.044 528.131 279.44 521.648 275.911 514.688C274.156 511.228 272.694 507.706 271.398 504.557L271.233 504.158C270.016 501.2 268.925 498.547 267.88 496.7C267.826 496.605 267.722 496.33 267.598 495.785C267.481 495.269 267.363 494.589 267.244 493.748C267.008 492.067 266.78 489.801 266.561 487.024C266.125 481.473 265.73 473.938 265.374 465.091C264.663 447.401 264.108 424.506 263.685 401.837C263.262 379.169 262.971 356.733 262.785 339.964C262.693 331.58 262.626 324.612 262.583 319.741C262.562 317.305 262.546 315.394 262.535 314.091L262.53 313.398C262.527 313.075 262.525 312.809 262.524 312.604L262.521 312.224L262.52 312.127L262.52 312.103L262.52 312.097C262.52 312.096 262.52 312.095 261.52 312.102L262.52 312.095L262.513 311.108L261.526 311.102L255.592 311.065L255.592 308.187L263.365 302.515L263.753 302.232L263.775 301.752L262.776 301.707C263.775 301.752 263.775 301.752 263.775 301.752L263.775 301.751L263.775 301.747L263.776 301.732L263.778 301.672L263.789 301.437L263.829 300.537C263.865 299.759 263.915 298.638 263.977 297.269C264.102 294.53 264.272 290.796 264.455 286.819C264.822 278.862 265.242 269.936 265.453 266.035C265.563 264.005 265.31 259.764 264.931 254.203C264.847 252.964 264.756 251.656 264.66 250.288C264.325 245.467 263.937 239.891 263.598 233.919C262.727 218.57 262.184 200.682 263.683 186.443C265.131 172.677 276.512 164.346 287.968 158.8C292.693 156.512 297.357 154.733 301.251 153.247C302.056 152.94 302.828 152.646 303.561 152.362C305.681 151.541 307.508 150.796 308.82 150.092C309.474 149.742 310.053 149.375 310.486 148.98C310.902 148.601 311.321 148.073 311.369 147.391C311.373 147.334 311.451 147.04 312.243 146.616C312.978 146.223 314.074 145.861 315.47 145.541C318.247 144.905 321.958 144.491 325.707 144.225C329.446 143.96 333.179 143.845 335.98 143.796C337.38 143.771 338.545 143.764 339.36 143.762C339.767 143.761 340.087 143.762 340.304 143.763C340.413 143.763 340.496 143.764 340.552 143.764L340.615 143.765L340.63 143.765L340.634 143.765L340.635 143.765C340.635 143.765 340.635 143.765 340.644 142.765ZM340.644 142.765L340.651 143.765L340.643 143.765L340.635 143.765L340.644 142.765Z" stroke="#2CA77E" stroke-opacity="0.4" stroke-width="2"/>
<path d="M282.8 283.99C282.8 283.99 290.428 333.629 292.91 334.119C295.392 334.608 356.945 325.512 385.204 334.228C385.204 334.228 389.416 338.455 398.161 284.128C398.161 284.128 377.838 267.733 342.856 268.185C307.875 268.638 282.8 283.99 282.8 283.99Z" fill="#ABDCCB"/>
<path d="M275.806 310.657C275.806 310.657 290.289 339.324 289.53 350.12C288.771 360.917 291.297 427.5 287.201 430.128C283.106 432.756 275.667 430.128 275.667 430.128L275.806 310.657Z" fill="#ABDCCB"/>
<path d="M405.089 310.81C405.089 310.81 390.525 339.447 391.255 350.237C391.985 361.026 389.306 427.616 393.394 430.252C397.482 432.887 404.928 430.252 404.928 430.252L405.089 310.81Z" fill="#ABDCCB"/>
<path d="M282.712 453.094L303.079 436.304L380.984 436.377L397.825 451.284C397.825 451.284 387.196 489.813 340.228 489.923C294.582 490.025 282.712 453.094 282.712 453.094Z" fill="#ABDCCB"/>
<path d="M277.2 504.675C277.2 504.675 284.143 522.794 289.464 525.028C294.786 527.262 314.606 529.276 314.606 529.276C314.606 529.276 317.336 527.298 314.606 526.057C311.875 524.816 294.516 524.539 291.041 521.312C287.566 518.086 282.654 505.654 280.923 504.675C280.342 504.398 279.706 504.254 279.062 504.254C278.418 504.254 277.782 504.398 277.2 504.675Z" fill="#2CA77E" fill-opacity="0.4"/>
<path d="M403.607 504.822C403.607 504.822 396.621 522.926 391.255 525.153C385.89 527.379 366.078 529.343 366.078 529.343C366.078 529.343 363.347 527.35 366.078 526.116C368.808 524.882 386.218 524.634 389.693 521.43C393.168 518.225 398.146 505.808 399.913 504.822C400.49 504.549 401.121 504.408 401.76 504.408C402.398 504.408 403.029 504.549 403.607 504.822Z" fill="#2CA77E" fill-opacity="0.4"/>
<path d="M275.098 182.134C275.098 182.134 279.339 167.256 305.393 162.073C305.393 162.073 306.853 173.987 295.947 179.681C285.041 185.375 279.807 189.835 277.084 187.842C274.361 185.849 273.726 185.054 275.098 182.134Z" fill="#2CA77E" fill-opacity="0.4"/>
<path d="M403.84 182.266C403.84 182.266 399.636 167.381 373.597 162.14C373.597 162.14 372.093 174.046 382.999 179.762C393.905 185.478 399.117 189.982 401.847 187.974C404.578 185.967 405.191 185.186 403.84 182.266Z" fill="#2CA77E" fill-opacity="0.4"/>
<path d="M331.622 419.279L336.943 390.686H319.668L348.463 350.65L343.145 379.244H360.417L331.622 419.279Z" fill="#2CA67D"/>
<ellipse cx="91.7987" cy="353.868" rx="40.2123" ry="40.7484" fill="#102C52"/>
<circle cx="519.121" cy="171.573" r="40.7484" fill="#467FFD"/>
<circle cx="651.553" cy="478.794" r="40.2123" fill="#FA751A"/>
<mask id="mask0_530_144" style="mask-type:luminance" maskUnits="userSpaceOnUse" x="50" y="312" width="83" height="83">
<path d="M52.4259 394.745L50.3243 314.483L130.586 312.382L132.688 392.644L52.4259 394.745Z" fill="white"/>
</mask>
<g mask="url(#mask0_530_144)">
<path d="M107.807 353.135C107.762 351.404 109.128 349.963 110.86 349.918C112.592 349.873 114.032 351.24 114.077 352.971C114.123 354.703 112.756 356.143 111.024 356.189C109.293 356.234 107.852 354.867 107.807 353.135Z" fill="white"/>
<path d="M84.0849 329.793C77.113 336.641 74.0341 345.371 74.2606 354.014C74.4871 362.657 78.0184 371.213 85.3389 377.687" stroke="white" stroke-width="3" stroke-miterlimit="10" stroke-linecap="round" stroke-linejoin="round"/>
<path d="M92.6825 337.011C88.1305 341.782 85.8608 347.758 86.0181 353.759C86.1754 359.76 88.7547 365.611 93.5498 370.136" stroke="white" stroke-width="3" stroke-miterlimit="10" stroke-linecap="round" stroke-linejoin="round"/>
<path d="M101.361 344.849C99.1429 347.189 97.8544 350.484 97.9311 353.395L97.935 353.542C98.0107 356.454 99.471 359.718 101.809 361.938" stroke="white" stroke-width="3" stroke-miterlimit="10" stroke-linecap="round" stroke-linejoin="round"/>
</g>
<mask id="mask1_530_144" style="mask-type:luminance" maskUnits="userSpaceOnUse" x="594" y="422" width="115" height="114">
<path d="M708.364 478.925L651.591 535.698L594.818 478.925L651.591 422.151L708.364 478.925Z" fill="white"/>
</mask>
<g mask="url(#mask1_530_144)">
<path d="M640.061 467.394C638.836 468.619 636.851 468.619 635.626 467.394C634.401 466.169 634.401 464.184 635.626 462.959C636.851 461.734 638.836 461.734 640.061 462.959C641.286 464.184 641.286 466.169 640.061 467.394Z" fill="white"/>
<path d="M639.459 500.67C649.225 501.014 657.677 497.238 663.79 491.124C669.904 485.01 673.68 476.559 673.336 466.793" stroke="white" stroke-width="3" stroke-miterlimit="10" stroke-linecap="round" stroke-linejoin="round"/>
<path d="M638.776 489.464C645.37 489.482 651.267 487.014 655.512 482.769C659.757 478.524 662.226 472.626 662.207 466.033" stroke="white" stroke-width="3" stroke-miterlimit="10" stroke-linecap="round" stroke-linejoin="round"/>
<path d="M638.487 477.775C641.711 477.773 644.988 476.44 647.047 474.38L647.151 474.276C649.211 472.217 650.573 468.911 650.575 465.687" stroke="white" stroke-width="3" stroke-miterlimit="10" stroke-linecap="round" stroke-linejoin="round"/>
</g>
<mask id="mask2_530_144" style="mask-type:luminance" maskUnits="userSpaceOnUse" x="463" y="115" width="114" height="114">
<path d="M519.944 115.452L576.717 172.226L519.944 228.999L463.17 172.226L519.944 115.452Z" fill="white"/>
</mask>
<g mask="url(#mask2_530_144)">
<path d="M508.413 183.757C509.638 184.982 509.638 186.967 508.413 188.192C507.188 189.417 505.202 189.417 503.977 188.192C502.752 186.967 502.752 184.982 503.977 183.757C505.202 182.532 507.188 182.532 508.413 183.757Z" fill="white"/>
<path d="M541.689 184.36C542.032 174.594 538.256 166.142 532.142 160.028C526.029 153.915 517.577 150.139 507.811 150.482" stroke="white" stroke-width="3" stroke-miterlimit="10" stroke-linecap="round" stroke-linejoin="round"/>
<path d="M530.482 185.041C530.5 178.447 528.033 172.55 523.788 168.305C519.543 164.06 513.644 161.592 507.052 161.61" stroke="white" stroke-width="3" stroke-miterlimit="10" stroke-linecap="round" stroke-linejoin="round"/>
<path d="M518.793 185.332C518.792 182.107 517.458 178.83 515.398 176.771L515.295 176.667C513.236 174.607 509.93 173.245 506.705 173.243" stroke="white" stroke-width="3" stroke-miterlimit="10" stroke-linecap="round" stroke-linejoin="round"/>
</g>
</svg>
