<svg width="22" height="27" viewBox="0 0 22 27" fill="none" xmlns="http://www.w3.org/2000/svg">
<path d="M10.125 6.75H16.875V5.0625H11.3906L10.125 6.75Z" fill="#102C53"/>
<path d="M21.0938 0H9.28125C9.03909 0 8.80959 0.103781 8.64928 0.285188L1.90012 7.87809C1.76344 8.0325 1.6875 8.23162 1.6875 8.4375V26.1562C1.6875 26.6228 2.0655 27 2.53125 27H21.0938C21.5595 27 21.9375 26.6228 21.9375 26.1562V0.84375C21.9375 0.377156 21.5595 0 21.0938 0ZM18.5625 7.59375C18.5625 8.06034 18.1845 8.4375 17.7188 8.4375H8.4375C8.11772 8.4375 7.82578 8.25694 7.68234 7.97091C7.53891 7.68487 7.57097 7.34316 7.7625 7.0875L10.2937 3.7125C10.4532 3.49988 10.703 3.375 10.9688 3.375H17.7188C18.1845 3.375 18.5625 3.75216 18.5625 4.21875V7.59375Z" fill="#102C53"/>
<path d="M0.632125 5.87941C1.02466 5.98143 1.44125 5.85485 1.71069 5.55172L4.97905 1.87453C5.52524 1.26001 5.25684 0.286686 4.47287 0.0389714C4.14212 -0.0656536 3.77762 0.0448776 3.55994 0.316565L0.184937 4.53532C0.00606208 4.75891 -0.0470942 5.0576 0.0431871 5.32844C0.133468 5.60097 0.355375 5.80769 0.632125 5.87941Z" fill="#102C53"/>
</svg>
