<svg width="31" height="17" viewBox="0 0 31 17" fill="none" xmlns="http://www.w3.org/2000/svg">
<rect x="1" y="16" width="15" height="29" rx="7.5" transform="rotate(-90 1 16)" stroke="#FA751A" stroke-width="2"/>
<mask id="path-2-inside-1_6545_8141" fill="white">
<ellipse cx="11.5" cy="8.5" rx="1.5" ry="1.5" transform="rotate(-90 11.5 8.5)"/>
</mask>
<ellipse cx="11.5" cy="8.5" rx="1.5" ry="1.5" transform="rotate(-90 11.5 8.5)" fill="white"/>
<path d="M11.5 9C11.2239 9 11 8.77614 11 8.5L15 8.5C15 6.567 13.433 5 11.5 5L11.5 9ZM11 8.5C11 8.22386 11.2239 8 11.5 8L11.5 12C13.433 12 15 10.433 15 8.5L11 8.5ZM11.5 8C11.7761 8 12 8.22386 12 8.5L8 8.5C8 10.433 9.567 12 11.5 12L11.5 8ZM12 8.5C12 8.77614 11.7761 9 11.5 9L11.5 5C9.567 5 8 6.567 8 8.5L12 8.5Z" fill="#FA751A" mask="url(#path-2-inside-1_6545_8141)"/>
<mask id="path-4-inside-2_6545_8141" fill="white">
<ellipse cx="19.5" cy="8.5" rx="1.5" ry="1.5" transform="rotate(-90 19.5 8.5)"/>
</mask>
<ellipse cx="19.5" cy="8.5" rx="1.5" ry="1.5" transform="rotate(-90 19.5 8.5)" fill="white"/>
<path d="M19.5 9C19.2239 9 19 8.77614 19 8.5L23 8.5C23 6.567 21.433 5 19.5 5L19.5 9ZM19 8.5C19 8.22386 19.2239 8 19.5 8L19.5 12C21.433 12 23 10.433 23 8.5L19 8.5ZM19.5 8C19.7761 8 20 8.22386 20 8.5L16 8.5C16 10.433 17.567 12 19.5 12L19.5 8ZM20 8.5C20 8.77614 19.7761 9 19.5 9L19.5 5C17.567 5 16 6.567 16 8.5L20 8.5Z" fill="#FA751A" mask="url(#path-4-inside-2_6545_8141)"/>
</svg>
