<svg width="25" height="24" viewBox="0 0 25 24" fill="none" xmlns="http://www.w3.org/2000/svg">
<path d="M11.3387 15.5C11.7387 15.9 12.2553 16.0958 12.8887 16.0875C13.522 16.0792 13.9887 15.85 14.2887 15.4L19.8887 7L11.4887 12.6C11.0387 12.9 10.8012 13.3583 10.7762 13.975C10.7512 14.5917 10.9387 15.1 11.3387 15.5ZM12.8887 4C13.872 4 14.8178 4.1375 15.7262 4.4125C16.6345 4.6875 17.4887 5.1 18.2887 5.65L16.3887 6.85C15.8387 6.56667 15.2678 6.35417 14.6762 6.2125C14.0845 6.07083 13.4887 6 12.8887 6C10.672 6 8.78451 6.77917 7.22617 8.3375C5.66784 9.89583 4.88867 11.7833 4.88867 14C4.88867 14.7 4.98451 15.3917 5.17617 16.075C5.36784 16.7583 5.63867 17.4 5.98867 18H19.7887C20.172 17.3667 20.4512 16.7083 20.6262 16.025C20.8012 15.3417 20.8887 14.6333 20.8887 13.9C20.8887 13.3 20.8178 12.7167 20.6762 12.15C20.5345 11.5833 20.322 11.0333 20.0387 10.5L21.2387 8.6C21.7387 9.38333 22.1345 10.2167 22.4262 11.1C22.7178 11.9833 22.872 12.9 22.8887 13.85C22.9053 14.8 22.797 15.7083 22.5637 16.575C22.3303 17.4417 21.9887 18.2667 21.5387 19.05C21.3553 19.35 21.1053 19.5833 20.7887 19.75C20.472 19.9167 20.1387 20 19.7887 20H5.98867C5.63867 20 5.30534 19.9167 4.98867 19.75C4.67201 19.5833 4.42201 19.35 4.23867 19.05C3.80534 18.3 3.47201 17.5042 3.23867 16.6625C3.00534 15.8208 2.88867 14.9333 2.88867 14C2.88867 12.6167 3.15117 11.3208 3.67617 10.1125C4.20117 8.90417 4.91784 7.84583 5.82617 6.9375C6.73451 6.02917 7.79701 5.3125 9.01367 4.7875C10.2303 4.2625 11.522 4 12.8887 4Z" fill="#989EA5"/>
</svg>
