<svg width="25" height="24" viewBox="0 0 25 24" fill="none" xmlns="http://www.w3.org/2000/svg">
<path fill-rule="evenodd" clip-rule="evenodd" d="M12.8393 10.25H12.9381C13.6029 10.25 14.1758 10.2499 14.6345 10.3116C14.8775 10.3443 15.1155 10.3972 15.3402 10.4885C15.3461 10.4821 15.3522 10.4759 15.3584 10.4697L16.3584 9.46967C16.6513 9.17678 17.1261 9.17678 17.419 9.46967C17.7119 9.76256 17.7119 10.2374 17.419 10.5303L16.419 11.5303C16.4128 11.5365 16.4066 11.5426 16.4002 11.5485C16.4915 11.7732 16.5444 12.0112 16.5771 12.2542C16.6388 12.7129 16.6387 13.2858 16.6387 13.9506V14.0494C16.6387 14.7142 16.6388 15.2871 16.5771 15.7458C16.5444 15.9888 16.4915 16.2268 16.4002 16.4515C16.4066 16.4574 16.4128 16.4635 16.419 16.4697L17.419 17.4697C17.7119 17.7626 17.7119 18.2374 17.419 18.5303C17.1261 18.8232 16.6513 18.8232 16.3584 18.5303L15.3584 17.5303L15.3513 17.5232L15.3402 17.5115C15.1155 17.6028 14.8775 17.6557 14.6345 17.6884C14.1758 17.7501 13.6029 17.75 12.9381 17.75H12.8393C12.1745 17.75 11.6016 17.7501 11.1429 17.6884C10.8999 17.6557 10.6619 17.6028 10.4372 17.5115C10.4312 17.5179 10.4252 17.5241 10.419 17.5303L9.419 18.5303C9.12611 18.8232 8.65123 18.8232 8.35834 18.5303C8.06545 18.2374 8.06545 17.7626 8.35834 17.4697L9.35834 16.4697C9.36454 16.4635 9.37081 16.4574 9.37717 16.4515C9.28586 16.2268 9.23294 15.9888 9.20028 15.7458C9.1386 15.2871 9.13863 14.7143 9.13867 14.0494V13.9506C9.13863 13.2858 9.1386 12.7129 9.20028 12.2542C9.23294 12.0112 9.28586 11.7732 9.37717 11.5485C9.37081 11.5426 9.36454 11.5365 9.35834 11.5303L8.35834 10.5303C8.06545 10.2374 8.06545 9.76256 8.35834 9.46967C8.65123 9.17678 9.12611 9.17678 9.419 9.46967L10.419 10.4697C10.4252 10.4759 10.4313 10.4821 10.4372 10.4885C10.6619 10.3972 10.8999 10.3443 11.1429 10.3116C11.6016 10.2499 12.1745 10.25 12.8393 10.25ZM11.3427 11.7982C11.0174 11.842 10.9155 11.9126 10.8583 11.9697C10.8012 12.0268 10.7306 12.1287 10.6869 12.454C10.6403 12.8009 10.6387 13.2717 10.6387 14C10.6387 14.7283 10.6403 15.1991 10.6869 15.546C10.7306 15.8713 10.8012 15.9732 10.8583 16.0303C10.9155 16.0874 11.0174 16.158 11.3427 16.2018C11.6896 16.2484 12.1604 16.25 12.8887 16.25C13.617 16.25 14.0878 16.2484 14.4347 16.2018C14.76 16.158 14.8619 16.0874 14.919 16.0303C14.9761 15.9732 15.0467 15.8713 15.0905 15.546C15.1371 15.1991 15.1387 14.7283 15.1387 14C15.1387 13.2717 15.1371 12.8009 15.0905 12.454C15.0467 12.1287 14.9761 12.0268 14.919 11.9697C14.8619 11.9126 14.76 11.842 14.4347 11.7982C14.0878 11.7516 13.617 11.75 12.8887 11.75C12.1604 11.75 11.6896 11.7516 11.3427 11.7982Z" fill="#989EA5" stroke="#989EA5" stroke-width="0.25"/>
<path fill-rule="evenodd" clip-rule="evenodd" d="M19.0102 2.378C20.1633 2.151 21.186 2.18453 22.0642 2.81966C22.9384 3.45196 23.3034 4.41622 23.473 5.59301C23.6387 6.74256 23.6387 8.25914 23.6387 10.1689V15.9373C23.6387 17.333 23.6387 18.4551 23.5224 19.337C23.402 20.2504 23.1448 21.0183 22.5454 21.6292C21.9441 22.2422 21.1851 22.5072 20.2824 22.6309C19.4144 22.7498 18.3113 22.7498 16.9445 22.7498H8.8329C7.46609 22.7498 6.36293 22.7498 5.49501 22.6309C4.59224 22.5072 3.83324 22.2422 3.23194 21.6292C2.63261 21.0183 2.37541 20.2504 2.25494 19.337C2.13864 18.4551 2.13865 17.333 2.13867 15.9373V13.0437C2.13866 12.0321 2.13864 11.2112 2.2124 10.5463C2.28921 9.85383 2.45213 9.25652 2.82633 8.71883C3.20133 8.18 3.70325 7.82353 4.32302 7.51889C4.56824 7.39835 4.84229 7.2812 5.14552 7.16164C5.141 7.12837 5.13867 7.0944 5.13867 7.05989V7.01902C5.13865 6.40138 5.13863 5.87705 5.18548 5.45315C5.23492 5.00576 5.34417 4.57857 5.62747 4.20196C5.75371 4.03414 5.90129 3.88352 6.06662 3.75412C6.43968 3.46212 6.86475 3.34886 7.30857 3.29782C7.72663 3.24975 8.24283 3.24977 8.84665 3.2498L9.79563 3.24974C10.2143 3.24934 10.5655 3.249 10.8736 3.33321C11.5344 3.51382 12.0741 3.96827 12.3761 4.56566L14.7162 3.73069C16.4819 3.10068 17.8882 2.59886 19.0102 2.378ZM19.2999 3.84975C18.3009 4.04641 17 4.50846 15.1586 5.16546L7.15861 8.01989C6.17188 8.37196 5.49166 8.61587 4.98471 8.86506C4.49571 9.10542 4.23576 9.31956 4.05752 9.57568C3.87847 9.83295 3.76476 10.1572 3.70326 10.7117C3.63974 11.2843 3.63867 12.0218 3.63867 13.0867V15.8832C3.63867 17.3457 3.64021 18.3685 3.74207 19.1409C3.84128 19.8932 4.02341 20.2941 4.30276 20.5788C4.58014 20.8616 4.96759 21.0446 5.6987 21.1448C6.45289 21.2481 7.45285 21.2498 8.88867 21.2498H16.8887C18.3245 21.2498 19.3245 21.2481 20.0787 21.1448C20.8098 21.0446 21.1972 20.8616 21.4746 20.5788C21.754 20.2941 21.9361 19.8932 22.0353 19.1409C22.1372 18.3685 22.1387 17.3457 22.1387 15.8832V10.2323C22.1387 8.24485 22.1368 6.83692 21.9884 5.80704C21.842 4.7917 21.5749 4.31705 21.1851 4.03507C20.7991 3.75593 20.2808 3.65665 19.2999 3.84975ZM10.9332 5.08049C10.816 4.93486 10.6571 4.82907 10.4781 4.78014C10.3916 4.75648 10.2633 4.7498 9.70685 4.7498H8.88867C8.23118 4.7498 7.80209 4.75096 7.47994 4.788C7.17389 4.8232 7.05876 4.8824 6.99114 4.93532C6.92956 4.98352 6.87403 5.04007 6.82617 5.1037C6.77132 5.17661 6.71149 5.30042 6.6764 5.61793C6.64861 5.86939 6.64127 6.1835 6.63935 6.61254L10.9332 5.08049Z" fill="#989EA5" stroke="#989EA5" stroke-width="0.25"/>
</svg>
