<svg width="25" height="24" viewBox="0 0 25 24" fill="none" xmlns="http://www.w3.org/2000/svg">
<path d="M12.8887 22C11.522 22 10.2303 21.7375 9.01367 21.2125C7.79701 20.6875 6.73451 19.9708 5.82617 19.0625C4.91784 18.1542 4.20117 17.0917 3.67617 15.875C3.15117 14.6583 2.88867 13.3667 2.88867 12C2.88867 10.6167 3.15117 9.32083 3.67617 8.1125C4.20117 6.90417 4.91784 5.84583 5.82617 4.9375C6.73451 4.02917 7.79701 3.3125 9.01367 2.7875C10.2303 2.2625 11.522 2 12.8887 2C14.272 2 15.5678 2.2625 16.7762 2.7875C17.9845 3.3125 19.0428 4.02917 19.9512 4.9375C20.8595 5.84583 21.5762 6.90417 22.1012 8.1125C22.6262 9.32083 22.8887 10.6167 22.8887 12C22.8887 13.3667 22.6262 14.6583 22.1012 15.875C21.5762 17.0917 20.8595 18.1542 19.9512 19.0625C19.0428 19.9708 17.9845 20.6875 16.7762 21.2125C15.5678 21.7375 14.272 22 12.8887 22ZM12.8887 16C13.8887 16 14.8637 16.1458 15.8137 16.4375C16.7637 16.7292 17.6553 17.15 18.4887 17.7C19.2553 16.9333 19.847 16.0625 20.2637 15.0875C20.6803 14.1125 20.8887 13.0833 20.8887 12C20.8887 9.76667 20.1137 7.875 18.5637 6.325C17.0137 4.775 15.122 4 12.8887 4C10.6553 4 8.76367 4.775 7.21367 6.325C5.66367 7.875 4.88867 9.76667 4.88867 12C4.88867 13.0833 5.09284 14.1167 5.50117 15.1C5.90951 16.0833 6.50534 16.95 7.28867 17.7C8.12201 17.15 9.01367 16.7292 9.96367 16.4375C10.9137 16.1458 11.8887 16 12.8887 16ZM12.8887 18C12.2053 18 11.5387 18.0833 10.8887 18.25C10.2387 18.4167 9.62201 18.6667 9.03867 19C9.62201 19.3333 10.2387 19.5833 10.8887 19.75C11.5387 19.9167 12.2053 20 12.8887 20C13.572 20 14.2387 19.9167 14.8887 19.75C15.5387 19.5833 16.1553 19.3333 16.7387 19C16.1553 18.6667 15.5387 18.4167 14.8887 18.25C14.2387 18.0833 13.572 18 12.8887 18ZM7.88867 11C8.17201 11 8.40951 10.9042 8.60117 10.7125C8.79284 10.5208 8.88867 10.2833 8.88867 10C8.88867 9.71667 8.79284 9.47917 8.60117 9.2875C8.40951 9.09583 8.17201 9 7.88867 9C7.60534 9 7.36784 9.09583 7.17617 9.2875C6.98451 9.47917 6.88867 9.71667 6.88867 10C6.88867 10.2833 6.98451 10.5208 7.17617 10.7125C7.36784 10.9042 7.60534 11 7.88867 11ZM10.8887 8C11.172 8 11.4095 7.90417 11.6012 7.7125C11.7928 7.52083 11.8887 7.28333 11.8887 7C11.8887 6.71667 11.7928 6.47917 11.6012 6.2875C11.4095 6.09583 11.172 6 10.8887 6C10.6053 6 10.3678 6.09583 10.1762 6.2875C9.98451 6.47917 9.88867 6.71667 9.88867 7C9.88867 7.28333 9.98451 7.52083 10.1762 7.7125C10.3678 7.90417 10.6053 8 10.8887 8ZM17.8887 11C18.172 11 18.4095 10.9042 18.6012 10.7125C18.7928 10.5208 18.8887 10.2833 18.8887 10C18.8887 9.71667 18.7928 9.47917 18.6012 9.2875C18.4095 9.09583 18.172 9 17.8887 9C17.6053 9 17.3678 9.09583 17.1762 9.2875C16.9845 9.47917 16.8887 9.71667 16.8887 10C16.8887 10.2833 16.9845 10.5208 17.1762 10.7125C17.3678 10.9042 17.6053 11 17.8887 11ZM12.8887 14C13.4387 14 13.9095 13.8042 14.3012 13.4125C14.6928 13.0208 14.8887 12.55 14.8887 12C14.8887 11.7833 14.8553 11.5708 14.7887 11.3625C14.722 11.1542 14.622 10.9667 14.4887 10.8L15.8387 7.4C15.9553 7.13333 15.9595 6.87083 15.8512 6.6125C15.7428 6.35417 15.5553 6.16667 15.2887 6.05C15.0387 5.93333 14.7845 5.92917 14.5262 6.0375C14.2678 6.14583 14.0887 6.33333 13.9887 6.6L12.6387 10C12.1387 10.0833 11.722 10.3125 11.3887 10.6875C11.0553 11.0625 10.8887 11.5 10.8887 12C10.8887 12.55 11.0845 13.0208 11.4762 13.4125C11.8678 13.8042 12.3387 14 12.8887 14Z" fill="#989EA5"/>
</svg>
