<svg width="25" height="24" viewBox="0 0 25 24" fill="none" xmlns="http://www.w3.org/2000/svg">
<mask id="mask0_553_675" style="mask-type:alpha" maskUnits="userSpaceOnUse" x="0" y="0" width="25" height="24">
<rect x="0.888672" width="24" height="24" fill="#D9D9D9"/>
</mask>
<g mask="url(#mask0_553_675)">
<path d="M6.22201 18.5556V19.6667C6.22201 19.9815 6.11552 20.2454 5.90256 20.4583C5.6896 20.6713 5.42571 20.7778 5.11089 20.7778H3.99978C3.68497 20.7778 3.42108 20.6713 3.20812 20.4583C2.99515 20.2454 2.88867 19.9815 2.88867 19.6667V10.7778L5.22201 4.11111C5.33312 3.77778 5.53219 3.50926 5.81923 3.30556C6.10626 3.10185 6.42571 3 6.77756 3H18.9998C19.3516 3 19.6711 3.10185 19.9581 3.30556C20.2452 3.50926 20.4442 3.77778 20.5553 4.11111L22.8887 10.7778V19.6667C22.8887 19.9815 22.7822 20.2454 22.5692 20.4583C22.3563 20.6713 22.0924 20.7778 21.7776 20.7778H20.6665C20.3516 20.7778 20.0877 20.6713 19.8748 20.4583C19.6618 20.2454 19.5553 19.9815 19.5553 19.6667V18.5556H6.22201ZM5.99978 8.55556H19.7776L18.6109 5.22222H7.16645L5.99978 8.55556ZM7.88867 15.2222C8.35163 15.2222 8.74515 15.0602 9.06923 14.7361C9.3933 14.412 9.55534 14.0185 9.55534 13.5556C9.55534 13.0926 9.3933 12.6991 9.06923 12.375C8.74515 12.0509 8.35163 11.8889 7.88867 11.8889C7.42571 11.8889 7.03219 12.0509 6.70812 12.375C6.38404 12.6991 6.22201 13.0926 6.22201 13.5556C6.22201 14.0185 6.38404 14.412 6.70812 14.7361C7.03219 15.0602 7.42571 15.2222 7.88867 15.2222ZM17.8887 15.2222C18.3516 15.2222 18.7452 15.0602 19.0692 14.7361C19.3933 14.412 19.5553 14.0185 19.5553 13.5556C19.5553 13.0926 19.3933 12.6991 19.0692 12.375C18.7452 12.0509 18.3516 11.8889 17.8887 11.8889C17.4257 11.8889 17.0322 12.0509 16.7081 12.375C16.384 12.6991 16.222 13.0926 16.222 13.5556C16.222 14.0185 16.384 14.412 16.7081 14.7361C17.0322 15.0602 17.4257 15.2222 17.8887 15.2222ZM5.11089 16.3333H20.6665V10.7778H5.11089V16.3333Z" fill="#989EA5"/>
</g>
</svg>
