<svg width="8" height="12.5" viewBox="0 0 16 25" fill="none" xmlns="http://www.w3.org/2000/svg">
<path d="M6.35669 24.9403C4.77219 24.6519 3.38588 23.9203 2.22681 22.7623C1.22236 21.7579 0.640233 20.7669 0.23866 19.3795C0.00207405 18.5619 0 18.5069 0 12.5891C0 7.14971 0.0166 6.54995 0.191964 5.80387C0.548918 4.28059 1.49838 2.76873 2.73319 1.75908C4.80539 0.0656283 7.57178 -0.443861 10.1223 0.399754C11.2907 0.7868 12.1416 1.32949 13.143 2.32565C13.8963 3.07587 14.1173 3.37783 14.5189 4.20277C15.3003 5.80906 15.3013 5.82255 15.3034 12.5466C15.3054 18.1427 15.294 18.5162 15.0969 19.2851C14.4151 21.954 12.3357 24.05 9.65021 24.7795C8.9197 24.9777 7.06022 25.069 6.35669 24.9403ZM7.21172 12.5372V0.863587H6.93363C6.78005 0.863587 6.29028 0.962164 5.84409 1.08253L5.03264 1.30148V12.4843V23.6671L5.31799 23.7844C5.58882 23.8965 6.80599 24.1849 7.08201 24.2026C7.18474 24.2088 7.21172 21.8118 7.21172 12.5372ZM9.59833 23.9058L10.169 23.7356L10.195 12.5113L10.222 1.28695L9.67615 1.12508C9.37627 1.03584 8.8865 0.934147 8.58661 0.898867L8.04184 0.834532V12.5206V24.2067L8.53473 24.1424C8.80556 24.1061 9.28496 24.0002 9.59833 23.9058ZM4.15582 1.82031C4.08837 1.75286 3.17835 2.43875 2.76432 2.87042L2.41463 3.23256L2.73838 3.39962C3.08392 3.5781 3.1109 3.63413 2.96355 3.86553C2.88572 3.98901 2.7996 3.99316 2.46029 3.89147C2.23512 3.82402 2.02758 3.76903 1.99957 3.76903C1.92589 3.76903 1.20679 5.23731 1.17151 5.46145C1.14765 5.60879 1.34065 5.73124 2.07531 6.0332C2.80998 6.33515 3.00921 6.46175 3.00921 6.62362C3.00921 6.94115 2.66781 6.92662 1.83354 6.5707C1.42055 6.39534 1.04285 6.27601 0.995116 6.3061C0.885124 6.37355 0.738809 8.04936 0.820784 8.30255C0.859177 8.42292 1.2566 8.64083 1.91759 8.90543C2.97081 9.32672 3.18042 9.5052 2.92723 9.75838C2.8079 9.87772 2.65018 9.84243 1.91448 9.53218C1.43612 9.32983 0.986814 9.16484 0.916253 9.16484C0.822864 9.16484 0.794844 9.45746 0.809371 10.2793L0.830126 11.3937L1.83873 11.8098C2.94072 12.2643 3.12023 12.3888 3.02581 12.6337C2.93657 12.8682 2.76536 12.8402 1.8159 12.4335C1.34895 12.2332 0.921442 12.0703 0.865409 12.0703C0.803149 12.0703 0.776167 12.4988 0.79692 13.1744C0.822861 14.0232 0.866444 14.2992 0.985774 14.3666C1.0719 14.4154 1.56167 14.6312 2.07531 14.846C2.80375 15.1511 3.00921 15.2829 3.00921 15.4427C3.00921 15.7612 2.74253 15.7415 1.80449 15.3524C1.3282 15.1552 0.90484 15.0131 0.865409 15.038C0.825978 15.0629 0.797958 15.5693 0.804184 16.1628L0.814558 17.244L1.91136 17.6985C2.77054 18.0555 3.00921 18.1977 3.00921 18.3554C3.00921 18.675 2.65433 18.648 1.73185 18.2589L0.882009 17.9009V18.18C0.882009 18.5484 1.1518 19.5736 1.39046 20.1142C1.55856 20.4919 1.65714 20.5718 2.21436 20.7804C2.97393 21.0647 3.16486 21.2463 2.94072 21.4704C2.81828 21.5929 2.72385 21.6022 2.49349 21.514C2.33369 21.4538 2.18946 21.4165 2.17285 21.432C2.10126 21.5047 2.99261 22.4054 3.54256 22.8173L4.15063 23.2718L4.17657 12.5694C4.1911 6.6838 4.18176 1.84625 4.15582 1.82031ZM12.4394 22.229C13.1378 21.5462 13.2882 21.2598 12.8171 21.5119C12.648 21.6022 12.5588 21.6012 12.4457 21.5078C12.1676 21.2764 12.2952 21.1218 13.0631 20.7565C13.8133 20.4006 13.8351 20.3798 14.0571 19.7853C14.3103 19.1077 14.522 18.1001 14.4297 18.0078C14.3965 17.9756 14.0001 18.1001 13.5487 18.2869C12.6594 18.6542 12.3481 18.6698 12.3481 18.3481C12.3481 18.1862 12.566 18.0545 13.3858 17.7183L14.4234 17.2928L14.4525 16.1348L14.4826 14.9757L13.9337 15.1988C12.6771 15.7104 12.5152 15.755 12.3896 15.6294C12.1593 15.3991 12.3865 15.2113 13.4283 14.7723L14.4753 14.3303V13.1889C14.4753 12.146 14.4598 12.0537 14.2937 12.1159C14.1941 12.1533 13.75 12.3307 13.308 12.5103C12.6729 12.7686 12.4768 12.8112 12.3761 12.7105C12.1468 12.4812 12.4322 12.2498 13.4719 11.8233L14.4753 11.4114V10.2876C14.4753 9.67018 14.4328 9.16484 14.3809 9.16484C14.329 9.16484 13.9005 9.32983 13.4283 9.53218C12.6771 9.85385 12.5525 9.88083 12.4197 9.74801C12.1582 9.48652 12.3429 9.33294 13.4325 8.90543L14.4888 8.49037L14.4556 7.43507C14.438 6.85502 14.3902 6.34657 14.3498 6.3061C14.3083 6.26563 13.9316 6.38289 13.5113 6.56863C12.6874 6.92973 12.3481 6.94737 12.3481 6.6257C12.3481 6.47212 12.5546 6.33723 13.2301 6.05187C13.7147 5.84746 14.1236 5.61087 14.1391 5.52786C14.1547 5.44484 13.9907 5.02667 13.7749 4.59915C13.364 3.78148 13.3453 3.77007 12.6864 3.9309C12.2516 4.03674 12.1728 3.70262 12.5588 3.39443C12.8555 3.15785 12.8566 3.15681 12.6553 2.93371C12.3948 2.64628 11.2669 1.79748 11.1444 1.79748C11.0894 1.79748 11.051 6.23554 11.051 12.5403V23.2822L11.3821 23.111C11.5637 23.0176 12.0399 22.6201 12.4394 22.229Z" fill="black"/>
</svg>
