<svg width="25" height="25" viewBox="0 0 25 25" fill="none" xmlns="http://www.w3.org/2000/svg">
<path d="M16.1179 17.2158L17.2156 16.1181L13.2813 12.1836V7.29197H11.7188V12.8168L16.1179 17.2158ZM12.5018 22.3961C11.1331 22.3961 9.84663 22.1364 8.64232 21.6169C7.438 21.0975 6.39041 20.3925 5.49956 19.5021C4.60869 18.6116 3.90342 17.5645 3.38375 16.3607C2.86408 15.1569 2.60425 13.8707 2.60425 12.502C2.60425 11.1334 2.86397 9.84687 3.38341 8.64257C3.90286 7.43824 4.60781 6.39066 5.49826 5.49981C6.38873 4.60894 7.43585 3.90367 8.63964 3.384C9.84341 2.86433 11.1296 2.60449 12.4983 2.60449C13.867 2.60449 15.1535 2.86422 16.3578 3.38366C17.5621 3.9031 18.6097 4.60805 19.5006 5.4985C20.3914 6.38897 21.0967 7.4361 21.6164 8.63988C22.136 9.84365 22.3959 11.1299 22.3959 12.4986C22.3959 13.8672 22.1361 15.1537 21.6167 16.358C21.0973 17.5624 20.3923 18.6099 19.5019 19.5008C18.6114 20.3917 17.5643 21.0969 16.3605 21.6166C15.1567 22.1363 13.8705 22.3961 12.5018 22.3961ZM12.5001 20.8336C14.8091 20.8336 16.7752 20.022 18.3985 18.3987C20.0218 16.7755 20.8334 14.8093 20.8334 12.5003C20.8334 10.1913 20.0218 8.22513 18.3985 6.60186C16.7752 4.9786 14.8091 4.16697 12.5001 4.16697C10.191 4.16697 8.22488 4.9786 6.60162 6.60186C4.97835 8.22513 4.16672 10.1913 4.16672 12.5003C4.16672 14.8093 4.97835 16.7755 6.60162 18.3987C8.22488 20.022 10.191 20.8336 12.5001 20.8336Z" fill="#989EA5"/>
</svg>
