<svg width="26" height="26" viewBox="0 0 26 26" fill="none" xmlns="http://www.w3.org/2000/svg">
<path fill-rule="evenodd" clip-rule="evenodd" d="M12.0004 5.10039C7.63734 5.10039 4.10039 8.63734 4.10039 13.0004C4.10039 17.3634 7.63734 20.9004 12.0004 20.9004V23.1004C6.42231 23.1004 1.90039 18.5785 1.90039 13.0004C1.90039 7.42231 6.42231 2.90039 12.0004 2.90039C17.303 2.90039 21.6512 6.98672 22.0677 12.1821H23.489C23.6429 12.1821 23.7391 12.3488 23.6622 12.4821L21.1743 16.7912C21.0973 16.9245 20.9049 16.9245 20.8279 16.7912L18.34 12.4821C18.2631 12.3488 18.3593 12.1821 18.5132 12.1821H19.8585C19.4491 8.20356 16.0871 5.10039 12.0004 5.10039ZM12.3363 18.0004V17.105C11.8246 17.0769 11.3702 16.9808 10.973 16.8168C10.4965 16.6189 10.1241 16.3259 9.85586 15.9379C9.59023 15.5473 9.45091 15.0642 9.43789 14.4887H11.0746C11.0928 14.7569 11.1697 14.9809 11.3051 15.1605C11.4431 15.3376 11.6267 15.4717 11.8559 15.5629C12.0038 15.6194 12.164 15.6579 12.3363 15.6783V13.6201L11.8285 13.4926C11.154 13.3285 10.6215 13.072 10.2309 12.723C9.84023 12.3741 9.64622 11.904 9.64883 11.3129C9.64622 10.8285 9.77513 10.4053 10.0355 10.0434C10.2986 9.68138 10.6592 9.39883 11.1176 9.1957C11.4839 9.03335 11.8902 8.93588 12.3363 8.90329V8.00039H12.977V8.89986C13.4482 8.92857 13.8675 9.02718 14.2348 9.1957C14.6801 9.39883 15.0264 9.68138 15.2738 10.0434C15.5212 10.4053 15.6488 10.8246 15.6566 11.3012H14.0355C14.0043 10.9861 13.8702 10.7413 13.6332 10.5668C13.4598 10.4391 13.241 10.3581 12.977 10.3239V12.2703L13.3676 12.3637C13.7165 12.4418 14.0368 12.546 14.3285 12.6762C14.6202 12.8064 14.8728 12.9665 15.0863 13.1566C15.2999 13.3467 15.4652 13.5707 15.5824 13.8285C15.7022 14.0863 15.7634 14.3819 15.766 14.7152C15.7634 15.2048 15.6384 15.6293 15.391 15.9887C15.1462 16.3454 14.7921 16.6228 14.3285 16.8207C13.9441 16.9836 13.4936 17.0786 12.977 17.1056V18.0004H12.3363ZM13.3871 15.5707C13.2634 15.6196 13.1267 15.6541 12.977 15.6743V13.7845C13.1508 13.8348 13.3044 13.8885 13.4379 13.9457C13.641 14.0316 13.7947 14.1358 13.8988 14.2582C14.0056 14.3806 14.059 14.5316 14.059 14.7113C14.059 14.904 14.0004 15.0746 13.8832 15.223C13.766 15.3715 13.6007 15.4874 13.3871 15.5707ZM12.3363 10.3267V12.1101C12.2749 12.0916 12.215 12.072 12.1566 12.0512C12.003 11.9939 11.8676 11.9275 11.7504 11.852C11.6332 11.7738 11.5408 11.6814 11.473 11.5746C11.4079 11.4678 11.378 11.3428 11.3832 11.1996C11.3832 11.0277 11.4327 10.8741 11.5316 10.7387C11.6332 10.6033 11.779 10.4978 11.9691 10.4223C12.0776 10.3777 12.2 10.3459 12.3363 10.3267Z" fill="black"/>
</svg>
