<svg width="301" height="149" viewBox="0 0 301 149" fill="none" xmlns="http://www.w3.org/2000/svg">
<path d="M27.2058 142.544V145.832H25.8378V137.36H28.7178C29.6938 137.36 30.4258 137.592 30.9138 138.056C31.4098 138.52 31.6578 139.156 31.6578 139.964C31.6578 140.764 31.4058 141.396 30.9018 141.86C30.3978 142.316 29.6698 142.544 28.7178 142.544H27.2058ZM28.5738 141.428C29.7018 141.428 30.2658 140.94 30.2658 139.964C30.2658 139.484 30.1298 139.12 29.8578 138.872C29.5938 138.616 29.1658 138.488 28.5738 138.488H27.2058V141.428H28.5738ZM38.4253 143.576C38.4253 143.992 38.3253 144.38 38.1253 144.74C37.9253 145.092 37.6213 145.376 37.2133 145.592C36.8053 145.808 36.3053 145.916 35.7133 145.916C35.1373 145.916 34.6213 145.816 34.1653 145.616C33.7093 145.408 33.3453 145.12 33.0733 144.752C32.8013 144.384 32.6453 143.96 32.6053 143.48H34.0693C34.1093 143.848 34.2653 144.164 34.5373 144.428C34.8173 144.692 35.1893 144.824 35.6533 144.824C36.0693 144.824 36.3893 144.712 36.6133 144.488C36.8453 144.264 36.9613 143.976 36.9613 143.624C36.9613 143.32 36.8773 143.072 36.7093 142.88C36.5413 142.68 36.3333 142.524 36.0853 142.412C35.8373 142.3 35.4973 142.172 35.0653 142.028C34.5373 141.86 34.1053 141.692 33.7693 141.524C33.4413 141.356 33.1613 141.112 32.9293 140.792C32.6973 140.472 32.5813 140.052 32.5813 139.532C32.5813 139.076 32.6933 138.676 32.9173 138.332C33.1413 137.988 33.4613 137.724 33.8773 137.54C34.2933 137.348 34.7733 137.252 35.3173 137.252C36.1813 137.252 36.8653 137.46 37.3693 137.876C37.8813 138.292 38.1733 138.836 38.2453 139.508H36.7693C36.7133 139.188 36.5613 138.916 36.3133 138.692C36.0733 138.46 35.7413 138.344 35.3173 138.344C34.9333 138.344 34.6253 138.444 34.3933 138.644C34.1613 138.836 34.0453 139.116 34.0453 139.484C34.0453 139.772 34.1253 140.012 34.2853 140.204C34.4453 140.388 34.6453 140.536 34.8853 140.648C35.1333 140.752 35.4693 140.876 35.8933 141.02C36.4293 141.188 36.8653 141.36 37.2013 141.536C37.5453 141.704 37.8333 141.952 38.0653 142.28C38.3053 142.608 38.4253 143.04 38.4253 143.576ZM41.1628 137.36V145.832H39.7948V137.36H41.1628Z" fill="#6C757E"/>
<path d="M91.5093 8.83307L92.0093 8.83307L92.0093 8.33307L91.5093 8.33307L91.5093 8.83307ZM48.7382 8.47952C48.543 8.67478 48.543 8.99136 48.7382 9.18662L51.9202 12.3686C52.1155 12.5639 52.4321 12.5639 52.6273 12.3686C52.8226 12.1733 52.8226 11.8568 52.6273 11.6615L49.7989 8.83307L52.6273 6.00464C52.8226 5.80938 52.8226 5.4928 52.6273 5.29754C52.4321 5.10227 52.1155 5.10227 51.9202 5.29754L48.7382 8.47952ZM92.0093 18.1211L92.0093 16.9601L91.0093 16.9601L91.0093 18.1211L92.0093 18.1211ZM92.0093 14.6381L92.0093 12.3161L91.0093 12.3161L91.0093 14.6381L92.0093 14.6381ZM92.0093 9.99407L92.0093 8.83307L91.0093 8.83307L91.0093 9.99407L92.0093 9.99407ZM91.5093 8.33307L90.4488 8.33307L90.4488 9.33307L91.5093 9.33307L91.5093 8.33307ZM88.328 8.33307L86.2071 8.33307L86.2071 9.33307L88.328 9.33307L88.328 8.33307ZM84.0862 8.33307L81.9653 8.33307L81.9653 9.33307L84.0862 9.33307L84.0862 8.33307ZM79.8445 8.33307L77.7236 8.33307L77.7236 9.33307L79.8445 9.33307L79.8445 8.33307ZM75.6027 8.33307L73.4818 8.33307L73.4818 9.33307L75.6027 9.33307L75.6027 8.33307ZM71.361 8.33307L70.3005 8.33307L70.3005 9.33307L71.361 9.33307L71.361 8.33307ZM70.3005 8.33307L69.2401 8.33307L69.2401 9.33307L70.3005 9.33307L70.3005 8.33307ZM67.1192 8.33307L64.9984 8.33307L64.9984 9.33307L67.1192 9.33307L67.1192 8.33307ZM62.8775 8.33307L60.7566 8.33307L60.7566 9.33307L62.8775 9.33307L62.8775 8.33307ZM58.6357 8.33307L56.5149 8.33307L56.5149 9.33307L58.6357 9.33307L58.6357 8.33307ZM54.394 8.33307L52.2731 8.33307L52.2731 9.33307L54.394 9.33307L54.394 8.33307ZM50.1522 8.33307L49.0918 8.33307L49.0918 9.33307L50.1522 9.33307L50.1522 8.33307Z" fill="#8E9F9E"/>
<path d="M210 8.83307L209.5 8.83307L209.5 8.33307L210 8.33307L210 8.83307ZM252.772 8.47952C252.967 8.67478 252.967 8.99136 252.772 9.18662L249.59 12.3686C249.394 12.5639 249.078 12.5639 248.882 12.3686C248.687 12.1733 248.687 11.8568 248.882 11.6615L251.711 8.83307L248.882 6.00464C248.687 5.80938 248.687 5.4928 248.882 5.29754C249.078 5.10227 249.394 5.10227 249.59 5.29754L252.772 8.47952ZM209.5 18.1211L209.5 16.9601L210.5 16.9601L210.5 18.1211L209.5 18.1211ZM209.5 14.6381L209.5 12.3161L210.5 12.3161L210.5 14.6381L209.5 14.6381ZM209.5 9.99407L209.5 8.83307L210.5 8.83307L210.5 9.99407L209.5 9.99407ZM210 8.33307L211.061 8.33307L211.061 9.33307L210 9.33307L210 8.33307ZM213.182 8.33307L215.303 8.33307L215.303 9.33307L213.182 9.33307L213.182 8.33307ZM217.424 8.33307L219.544 8.33307L219.544 9.33307L217.424 9.33307L217.424 8.33307ZM221.665 8.33307L223.786 8.33307L223.786 9.33307L221.665 9.33307L221.665 8.33307ZM225.907 8.33307L228.028 8.33307L228.028 9.33307L225.907 9.33307L225.907 8.33307ZM230.149 8.33307L231.209 8.33307L231.209 9.33307L230.149 9.33307L230.149 8.33307ZM231.209 8.33307L232.27 8.33307L232.27 9.33307L231.209 9.33307L231.209 8.33307ZM234.391 8.33307L236.511 8.33307L236.511 9.33307L234.391 9.33307L234.391 8.33307ZM238.632 8.33307L240.753 8.33307L240.753 9.33307L238.632 9.33307L238.632 8.33307ZM242.874 8.33307L244.995 8.33307L244.995 9.33307L242.874 9.33307L242.874 8.33307ZM247.116 8.33307L249.237 8.33307L249.237 9.33307L247.116 9.33307L247.116 8.33307ZM251.358 8.33307L252.418 8.33307L252.418 9.33307L251.358 9.33307L251.358 8.33307Z" fill="#8E9F9E"/>
<path d="M91.5093 140.288L92.0093 140.288L92.0093 140.788L91.5093 140.788L91.5093 140.288ZM48.7382 140.642C48.543 140.446 48.543 140.13 48.7382 139.934L51.9202 136.752C52.1155 136.557 52.4321 136.557 52.6273 136.752C52.8226 136.948 52.8226 137.264 52.6273 137.46L49.7989 140.288L52.6273 143.116C52.8226 143.312 52.8226 143.628 52.6273 143.824C52.4321 144.019 52.1155 144.019 51.9202 143.824L48.7382 140.642ZM92.0093 131L92.0093 132.161L91.0093 132.161L91.0093 131L92.0093 131ZM92.0093 134.483L92.0093 136.805L91.0093 136.805L91.0093 134.483L92.0093 134.483ZM92.0093 139.127L92.0093 140.288L91.0093 140.288L91.0093 139.127L92.0093 139.127ZM91.5093 140.788L90.4488 140.788L90.4488 139.788L91.5093 139.788L91.5093 140.788ZM88.328 140.788L86.2071 140.788L86.2071 139.788L88.328 139.788L88.328 140.788ZM84.0862 140.788L81.9653 140.788L81.9653 139.788L84.0862 139.788L84.0862 140.788ZM79.8445 140.788L77.7236 140.788L77.7236 139.788L79.8445 139.788L79.8445 140.788ZM75.6027 140.788L73.4818 140.788L73.4818 139.788L75.6027 139.788L75.6027 140.788ZM71.361 140.788L70.3005 140.788L70.3005 139.788L71.361 139.788L71.361 140.788ZM70.3005 140.788L69.2401 140.788L69.2401 139.788L70.3005 139.788L70.3005 140.788ZM67.1192 140.788L64.9984 140.788L64.9984 139.788L67.1192 139.788L67.1192 140.788ZM62.8775 140.788L60.7566 140.788L60.7566 139.788L62.8775 139.788L62.8775 140.788ZM58.6357 140.788L56.5149 140.788L56.5149 139.788L58.6357 139.788L58.6357 140.788ZM54.394 140.788L52.2731 140.788L52.2731 139.788L54.394 139.788L54.394 140.788ZM50.1522 140.788L49.0918 140.788L49.0918 139.788L50.1522 139.788L50.1522 140.788Z" fill="#8E9F9E"/>
<path d="M211 140.288L210.5 140.288L210.5 140.788L211 140.788L211 140.288ZM253.772 140.642C253.967 140.446 253.967 140.13 253.772 139.934L250.59 136.752C250.394 136.557 250.078 136.557 249.882 136.752C249.687 136.948 249.687 137.264 249.882 137.46L252.711 140.288L249.882 143.116C249.687 143.312 249.687 143.628 249.882 143.824C250.078 144.019 250.394 144.019 250.59 143.824L253.772 140.642ZM210.5 131L210.5 132.161L211.5 132.161L211.5 131L210.5 131ZM210.5 134.483L210.5 136.805L211.5 136.805L211.5 134.483L210.5 134.483ZM210.5 139.127L210.5 140.288L211.5 140.288L211.5 139.127L210.5 139.127ZM211 140.788L212.061 140.788L212.061 139.788L211 139.788L211 140.788ZM214.182 140.788L216.303 140.788L216.303 139.788L214.182 139.788L214.182 140.788ZM218.424 140.788L220.544 140.788L220.544 139.788L218.424 139.788L218.424 140.788ZM222.665 140.788L224.786 140.788L224.786 139.788L222.665 139.788L222.665 140.788ZM226.907 140.788L229.028 140.788L229.028 139.788L226.907 139.788L226.907 140.788ZM231.149 140.788L232.209 140.788L232.209 139.788L231.149 139.788L231.149 140.788ZM232.209 140.788L233.27 140.788L233.27 139.788L232.209 139.788L232.209 140.788ZM235.391 140.788L237.511 140.788L237.511 139.788L235.391 139.788L235.391 140.788ZM239.632 140.788L241.753 140.788L241.753 139.788L239.632 139.788L239.632 140.788ZM243.874 140.788L245.995 140.788L245.995 139.788L243.874 139.788L243.874 140.788ZM248.116 140.788L250.237 140.788L250.237 139.788L248.116 139.788L248.116 140.788ZM252.358 140.788L253.418 140.788L253.418 139.788L252.358 139.788L252.358 140.788Z" fill="#8E9F9E"/>
<path d="M168.844 121.649C168.852 121.649 168.86 121.647 168.868 121.647C168.89 121.646 168.912 121.647 168.934 121.645C168.985 121.642 169.036 121.634 169.086 121.629C169.892 121.539 170.632 121.118 171.262 120.694C171.358 120.63 171.452 120.563 171.546 120.496C171.602 120.456 171.659 120.416 171.714 120.375C171.779 120.326 171.843 120.277 171.907 120.227C172.023 120.136 172.136 120.045 172.245 119.952C172.253 119.945 172.261 119.938 172.269 119.931C172.818 119.46 173.272 118.963 173.62 118.445C173.65 118.4 173.678 118.353 173.707 118.307C173.717 118.292 173.727 118.276 173.737 118.26C173.78 118.191 173.823 118.123 173.863 118.053C174.399 117.142 174.702 116.145 174.71 115.194C174.712 115.024 174.702 114.859 174.682 114.703C174.673 114.636 174.655 114.564 174.636 114.492C174.634 114.485 174.632 114.476 174.63 114.467C174.624 114.441 174.617 114.414 174.611 114.388L174.665 114.281C174.714 114.184 174.764 114.085 174.813 113.987L175.124 113.979C175.135 113.979 175.15 113.981 175.161 113.981L191.564 113.65C191.61 113.649 191.665 113.644 191.722 113.638C191.765 113.634 191.83 113.627 191.856 113.625C191.908 113.662 191.961 113.696 192.014 113.731C192.054 113.762 192.094 113.792 192.131 113.816C192.308 113.928 192.497 114.033 192.691 114.128C193.075 114.316 193.493 114.472 193.967 114.603C195.477 115.023 197.063 115.125 198.597 115.225L199.099 115.258C199.171 115.263 199.239 115.267 199.311 115.272C199.496 115.284 199.683 115.296 199.874 115.308C200.67 115.359 201.448 115.405 202.209 115.446C202.537 115.465 202.874 115.483 203.228 115.502C204.32 115.561 205.461 115.608 206.619 115.641C206.693 115.643 206.771 115.645 206.846 115.647C208.034 115.687 209.1 115.713 210.109 115.726C210.299 115.729 210.494 115.731 210.691 115.734C210.773 115.735 210.855 115.736 210.937 115.738C211.802 115.75 212.619 115.755 213.405 115.755C213.868 115.755 214.32 115.753 214.765 115.749C216.246 115.736 217.455 115.71 218.568 115.667C219.542 115.63 220.568 115.583 221.594 115.506C223.075 115.402 224.623 115.25 226.094 114.81C226.151 114.793 226.208 114.778 226.265 114.76C226.306 114.748 226.345 114.733 226.386 114.719C226.425 114.707 226.465 114.696 226.504 114.683C228.125 114.129 229.392 112.949 230.51 111.897C230.528 111.88 230.548 111.862 230.566 111.845C230.692 111.727 230.814 111.611 230.93 111.482C230.934 111.479 230.938 111.476 230.942 111.473C231.11 111.407 231.276 111.339 231.438 111.268C231.439 111.267 231.44 111.267 231.441 111.267C231.443 111.266 231.446 111.265 231.447 111.264C231.476 111.251 231.504 111.237 231.533 111.224C231.707 111.146 231.877 111.067 232.043 110.984C232.071 110.97 232.098 110.955 232.126 110.941C233.324 110.332 234.32 109.591 235.086 108.727C235.106 108.705 235.123 108.681 235.143 108.659C235.153 108.646 235.163 108.633 235.174 108.62C235.309 108.463 235.436 108.301 235.557 108.134C235.564 108.125 235.57 108.115 235.577 108.105C235.699 107.936 235.815 107.764 235.924 107.588C235.931 107.576 235.939 107.565 235.946 107.553C236.052 107.38 236.154 107.205 236.25 107.028C236.259 107.012 236.268 106.996 236.276 106.98C236.369 106.808 236.458 106.634 236.542 106.46C236.552 106.44 236.562 106.42 236.572 106.4C236.655 106.226 236.735 106.052 236.811 105.878C236.819 105.86 236.827 105.842 236.835 105.824C236.915 105.642 236.99 105.461 237.063 105.282C237.089 105.22 237.113 105.159 237.137 105.097C237.175 105.003 237.214 104.908 237.25 104.815C237.265 104.778 237.279 104.74 237.294 104.703C237.296 104.696 237.299 104.689 237.301 104.683C237.305 104.672 237.309 104.662 237.313 104.651C237.535 104.082 237.751 103.491 237.967 102.864C237.974 102.844 237.981 102.824 237.988 102.804C238.034 102.67 238.08 102.533 238.126 102.395C238.275 101.952 238.422 101.497 238.567 101.03C238.578 100.998 238.588 100.966 238.598 100.933C238.625 100.845 238.652 100.755 238.68 100.666C238.715 100.55 238.751 100.436 238.786 100.317C238.925 99.86 239.058 99.3945 239.187 98.9204C239.207 98.85 239.226 98.7795 239.245 98.7085C239.262 98.6473 239.278 98.5854 239.294 98.5239C239.441 97.9716 239.583 97.4023 239.721 96.8106C239.808 96.4403 239.893 96.0635 239.977 95.6775C240.115 95.0426 240.244 94.393 240.367 93.7238C240.654 92.1835 240.9 90.5467 241.115 88.7321C241.124 88.6534 241.132 88.5754 241.141 88.4968C241.18 88.1654 241.217 87.8338 241.252 87.5018C241.402 86.0889 241.52 84.692 241.604 83.3357C241.612 83.2049 241.618 83.0742 241.626 82.9434C241.654 82.4893 241.68 82.0339 241.704 81.5771C241.786 79.9607 241.835 78.4592 241.855 76.9869C241.856 76.9073 241.856 76.8311 241.857 76.752C241.879 75.3111 241.881 73.8108 241.861 72.2714C241.86 72.2284 241.859 72.1849 241.859 72.1417C241.858 72.1072 241.858 72.0723 241.858 72.0378C241.856 71.9171 241.853 71.8024 241.851 71.6833C241.851 71.6411 241.85 71.599 241.849 71.5568C241.825 70.114 241.782 68.7744 241.717 67.4886C241.71 67.3472 241.702 67.2114 241.695 67.0737C241.688 66.9377 241.682 66.8027 241.675 66.6652C241.629 65.7691 241.566 64.834 241.486 63.8474C241.455 63.4615 241.424 63.0866 241.39 62.7202C241.344 62.2191 241.297 61.7441 241.25 61.2866C241.249 61.2743 241.247 61.2625 241.246 61.2502C241.239 61.1834 241.232 61.1159 241.225 61.0488C241.214 60.9529 241.204 60.8559 241.194 60.7616C241.179 60.6255 241.164 60.4887 241.148 60.3517C241.137 60.2583 241.127 60.1656 241.116 60.0736C241.107 60.0006 241.098 59.9277 241.09 59.8545C241.013 59.2173 240.933 58.6108 240.847 58.0229C240.808 57.7624 240.77 57.5083 240.731 57.2574C240.72 57.1865 240.709 57.1146 240.697 57.0434C240.677 56.9154 240.657 56.7872 240.637 56.6616C240.591 56.3743 240.543 56.085 240.494 55.7912C240.48 55.712 240.465 55.6341 240.451 55.5551C240.41 55.3243 240.369 55.0982 240.328 54.8749C240.27 54.5639 240.21 54.255 240.148 53.947C240.133 53.8712 240.118 53.7959 240.102 53.7208C239.92 52.829 239.719 51.9527 239.503 51.0962C239.485 51.0278 239.468 50.9593 239.451 50.891C239.423 50.7838 239.398 50.674 239.37 50.5674C239.339 50.4513 239.305 50.333 239.273 50.2164C239.193 49.9164 239.111 49.6184 239.027 49.3215C239.017 49.2877 239.008 49.2539 238.998 49.2201C238.945 49.0358 238.894 48.8501 238.84 48.6673C238.42 47.2476 237.993 45.9586 237.54 44.7452C237.084 43.4873 236.615 42.3351 235.98 41.3021C235.938 41.2337 235.897 41.1649 235.854 41.0974C235.812 41.0329 235.768 40.9701 235.724 40.9066C235.652 40.7993 235.578 40.6926 235.5 40.5884C235.485 40.568 235.471 40.5465 235.456 40.5262C235.423 40.4828 235.385 40.4414 235.351 40.3984C235.302 40.3368 235.256 40.2731 235.206 40.2128C235.18 40.1827 235.152 40.1542 235.126 40.1244C235.088 40.0815 235.05 40.0394 235.011 39.9971C234.916 39.8925 234.817 39.7896 234.715 39.6885C234.683 39.6568 234.651 39.6251 234.618 39.5937C234.498 39.4785 234.373 39.3659 234.244 39.2556C234.223 39.2384 234.204 39.2209 234.184 39.2038C233.72 38.8153 233.202 38.4564 232.628 38.1304C232.56 38.0915 232.488 38.0549 232.419 38.0169C232.304 37.9547 232.188 37.8926 232.07 37.8329C231.981 37.7883 231.89 37.7455 231.8 37.7026C231.735 37.6719 231.673 37.6396 231.608 37.6096C231.552 37.5842 231.494 37.561 231.437 37.5362C231.4 37.5199 231.365 37.5018 231.327 37.4858C231.302 37.4751 231.276 37.4655 231.25 37.4555C231.172 37.4225 231.093 37.3901 231.013 37.3585C230.992 37.3479 230.973 37.3368 230.957 37.3252C230.847 37.2011 230.726 37.0921 230.612 36.9934C230.56 36.9478 230.508 36.9025 230.459 36.8566C230.443 36.8423 230.427 36.8275 230.412 36.8131C230.411 36.8125 230.41 36.812 230.41 36.8114C230.327 36.7347 230.239 36.6532 230.149 36.5697C230.123 36.5461 230.097 36.5226 230.072 36.4989C229.981 36.4155 229.887 36.3306 229.79 36.2439C229.773 36.2284 229.756 36.213 229.738 36.1976C229.636 36.1067 229.532 36.0154 229.426 35.9242C229.416 35.9158 229.406 35.9069 229.396 35.8984C229.384 35.8886 229.373 35.8789 229.361 35.869C228.808 35.398 228.146 34.8744 227.38 34.4872C225.808 33.6924 223.887 33.5075 222.485 33.3724C222.477 33.3716 222.468 33.371 222.46 33.3701C222.458 33.37 222.456 33.3698 222.454 33.3695C222.444 33.3686 222.433 33.3678 222.423 33.3668C220.897 33.2215 219.248 33.1348 217.238 33.0948C217.238 33.0948 217.237 33.0948 217.238 33.0948C216.415 33.0738 215.58 33.0593 214.743 33.0531C214.695 33.0527 214.646 33.0527 214.599 33.0524C213.659 33.0426 212.723 33.0403 211.785 33.0531L211.532 33.0566C211.276 33.0602 211.018 33.0639 210.76 33.0676C210.748 33.0677 210.736 33.0678 210.724 33.0679C210.712 33.0681 210.701 33.0684 210.689 33.0685C209.204 33.0897 207.688 33.116 206.191 33.1746C206.172 33.1754 206.152 33.1762 206.133 33.1769C205.318 33.2024 204.482 33.237 203.602 33.2815C202.642 33.3248 201.654 33.3754 200.67 33.4388C200.353 33.4593 200.035 33.4781 199.717 33.4969C198.193 33.5875 196.619 33.6816 195.09 33.9518C195.086 33.9524 195.083 33.9527 195.08 33.9532C195.079 33.9535 195.077 33.9538 195.076 33.9541C195.062 33.9565 195.048 33.9585 195.034 33.961C194.88 33.9886 194.733 34.0183 194.59 34.049C194.57 34.0534 194.55 34.0579 194.53 34.0624C193.757 34.2319 193.123 34.4491 192.569 34.7361C192.529 34.757 192.49 34.7799 192.451 34.8015C192.447 34.8038 192.443 34.8061 192.438 34.8084C192.335 34.8655 192.234 34.925 192.136 34.9869C192.115 35.0001 192.094 35.0133 192.073 35.0268C192.048 35.0429 192.022 35.0581 191.997 35.0745C191.97 35.0933 191.941 35.115 191.913 35.1373C191.896 35.1494 191.878 35.1611 191.861 35.1734C191.811 35.177 191.725 35.1692 191.664 35.1635C191.602 35.1578 191.541 35.1526 191.487 35.1515L175.142 34.8216C175.131 34.8216 175.117 34.8221 175.105 34.8223L174.813 34.8155C174.764 34.7169 174.714 34.6185 174.665 34.5214L174.62 34.4327C174.826 33.5714 174.667 32.683 174.398 31.9235C174.244 31.473 174.035 31.0291 173.777 30.6077C173.773 30.6004 173.768 30.5932 173.764 30.5858C173.716 30.5095 173.67 30.4326 173.62 30.3578C173.333 29.9307 172.973 29.5181 172.549 29.1221C172.519 29.094 172.488 29.0664 172.458 29.0385C172.375 28.9636 172.29 28.8893 172.202 28.8157C172.155 28.7756 172.108 28.7353 172.059 28.6957C171.973 28.6262 171.884 28.5577 171.794 28.4894C171.718 28.4316 171.64 28.3745 171.561 28.3178C171.481 28.2599 171.401 28.2018 171.317 28.1448C171.293 28.1287 171.268 28.1127 171.244 28.0966C171.232 28.0889 171.222 28.0809 171.21 28.0732C171.18 28.0531 171.148 28.0325 171.116 28.012C171.05 27.9689 170.982 27.9266 170.914 27.8843C170.897 27.8736 170.88 27.8629 170.862 27.8522C170.806 27.8182 170.75 27.7848 170.693 27.7519C170.689 27.7499 170.686 27.7481 170.682 27.7461C170.591 27.6938 170.499 27.6436 170.404 27.5955C169.664 27.2139 168.803 26.9547 168.042 27.3012C167.345 27.6184 167.2 28.2931 167.227 28.9212C167.228 28.9321 167.228 28.9429 167.229 28.9537C167.233 29.0412 167.241 29.1273 167.251 29.2115C167.256 29.2536 167.261 29.2942 167.268 29.3354C167.274 29.3775 167.28 29.4181 167.287 29.4586C167.301 29.5342 167.314 29.6073 167.329 29.679C167.334 29.7008 167.338 29.7218 167.343 29.7427C167.35 29.7746 167.357 29.8086 167.364 29.8396C167.393 29.9687 167.425 30.0973 167.455 30.2262C167.545 30.6056 167.635 30.9852 167.723 31.3651C167.882 32.046 168.046 32.7412 168.216 33.4359C168.317 33.8543 168.422 34.2739 168.534 34.6915C168.537 34.7035 168.54 34.7156 168.543 34.7276C168.544 34.7302 168.545 34.7328 168.545 34.7354C168.524 34.7352 168.503 34.7352 168.48 34.7349L156.357 34.6911C155.509 34.6879 154.663 34.6921 153.815 34.6963L153.662 34.697L140.419 34.7583C140.417 34.7583 140.416 34.7584 140.415 34.7584L140.145 34.7597C140.149 34.6262 140.126 34.4941 140.07 34.3679C140.011 34.238 139.925 34.1248 139.824 34.0253C139.82 34.021 139.817 34.0156 139.813 34.0114C139.547 33.7417 139.202 33.5978 138.858 33.491C138.857 33.4907 138.855 33.4902 138.854 33.4899C138.851 33.4889 138.848 33.4881 138.844 33.487C138.806 33.4752 138.767 33.4635 138.729 33.4524C138.71 33.447 138.69 33.4428 138.671 33.4375C138.549 33.4026 138.426 33.3706 138.303 33.3418C138.298 33.3406 138.293 33.3395 138.288 33.3383C138.162 33.3091 138.036 33.2826 137.909 33.2589C137.878 33.2528 137.846 33.2465 137.814 33.2407C137.756 33.2303 137.697 33.2207 137.638 33.2113C136.831 33.0765 136.022 33.0261 135.297 32.9994C135.271 32.9985 135.244 32.999 135.218 32.9981C135.118 32.9949 135.016 32.9949 134.915 32.9932C134.768 32.9906 134.621 32.9868 134.471 32.9876C133.976 32.9898 133.473 33.0091 132.964 33.0458C132.939 33.0476 132.913 33.0501 132.888 33.052C132.863 33.0538 132.837 33.0561 132.812 33.0581C132.116 33.1105 131.391 33.1819 130.671 33.3116C130.539 33.3348 130.41 33.3592 130.285 33.3851C130.177 33.4074 130.063 33.4332 129.948 33.4615C129.498 33.5697 128.841 33.7605 128.511 34.3217C128.414 34.4855 128.339 34.684 128.3 34.8887L112.267 35.0533C111.374 34.4855 110.272 34.2238 109.195 34.0183C108.8 33.9403 108.402 33.8736 108.001 33.8161C107.975 33.8122 107.949 33.8081 107.923 33.8044C107.862 33.7957 107.8 33.7874 107.739 33.7791C106.719 33.6376 105.747 33.5509 104.953 33.4894C104.91 33.486 104.862 33.4824 104.817 33.479C103.746 33.3899 102.695 33.3239 101.679 33.2822C101.509 33.2747 101.339 33.2681 101.168 33.262C101.125 33.2605 101.08 33.2582 101.036 33.2568L100.503 33.2393C100.247 33.2309 99.9911 33.2224 99.7351 33.2139C98.8008 33.1824 97.8663 33.1508 96.9318 33.1294L91.5804 33.0083C91.214 33.0001 90.8476 32.9907 90.4813 32.9813C89.6094 32.9589 88.7078 32.9358 87.8197 32.929L87.7952 32.9288C87.6766 32.9279 87.5559 32.9271 87.4367 32.9262C87.0095 32.921 86.5837 32.917 86.1562 32.9161C85.3322 32.9145 84.4222 32.9169 83.4786 32.9348C83.4646 32.9351 83.4505 32.9351 83.4364 32.9354C83.4163 32.9358 83.3951 32.9363 83.3749 32.9367C83.2828 32.9386 83.1907 32.9406 83.098 32.9428C82.4725 32.9568 81.8053 32.9777 81.1175 33.0169C80.0883 33.069 78.9718 33.138 77.8926 33.3624C77.4391 33.4441 76.9872 33.5625 76.5653 33.7507C76.5382 33.7629 76.5116 33.7757 76.4846 33.7884C76.3878 33.8343 76.2931 33.8846 76.2003 33.939C76.1664 33.9588 76.1331 33.9791 76.0998 34C76.0635 34.0229 76.0254 34.0421 75.99 34.0665C75.9596 34.0874 75.9323 34.1119 75.9026 34.1336C75.8184 34.1932 75.7368 34.2563 75.6564 34.3224C75.64 34.3363 75.6234 34.3499 75.6071 34.3639C75.1082 34.7875 74.6881 35.3302 74.4176 35.9412C74.2702 36.2734 74.1638 36.6301 74.1009 37.0007C74.0999 37.0066 74.0996 37.0133 74.0987 37.0191C74.0987 37.019 74.0986 37.0193 74.0987 37.0191C74.0757 37.1565 74.0583 37.2986 74.0467 37.4434C74.046 37.4519 74.0443 37.4594 74.0437 37.4679C74.0399 37.5173 74.0394 37.5668 74.039 37.615C74.0389 37.6227 74.0389 37.6313 74.0389 37.6397C74.0376 37.6684 74.0363 37.6968 74.0354 37.7256C74.0268 37.735 74.0173 37.7458 74.0086 37.7552C73.5435 38.2096 73.1624 38.7235 72.8482 39.2298C72.8439 39.2366 72.8393 39.2425 72.8351 39.2493C72.8283 39.2603 72.8224 39.2716 72.8157 39.2825C72.7315 39.4201 72.6521 39.5556 72.5776 39.6899C72.5469 39.7445 72.5162 39.799 72.4863 39.854C72.4642 39.8953 72.444 39.9348 72.4228 39.9755C71.7908 41.1671 71.3527 42.4168 71.0042 43.5172C70.9878 43.569 70.9739 43.6213 70.9577 43.6731C70.8665 43.9683 70.7808 44.2567 70.7006 44.5366C70.6706 44.6415 70.6402 44.7459 70.6111 44.8509C70.6066 44.867 70.6016 44.884 70.5971 44.9C70.2725 46.0572 70.0017 47.2106 69.7717 48.263C69.7708 48.2668 69.7698 48.2708 69.769 48.2745C69.5748 49.1397 69.3985 50.0048 69.2292 50.8748C69.0955 51.551 68.9717 52.2045 68.8573 52.841C68.8438 52.9141 68.8301 52.9863 68.8166 53.0595C68.5874 54.2978 68.3892 55.6209 68.2225 56.9937C68.2074 57.1155 68.1924 57.2383 68.1776 57.3618C68.1706 57.4224 68.1626 57.4814 68.1557 57.5421C68.1536 57.5601 68.1518 57.5784 68.1498 57.5963C68.12 57.8513 68.0905 58.1088 68.0619 58.3718C67.9155 59.7165 67.8019 61.0565 67.7205 62.3638C67.7164 62.4247 67.7114 62.4855 67.7074 62.5464C67.5981 64.1998 67.5336 65.86 67.4801 67.4078C67.473 67.6156 67.4664 67.8265 67.46 68.0392C67.4315 68.964 67.4142 69.8676 67.4027 70.7119C67.402 70.7644 67.4013 70.8181 67.4006 70.8712C67.3994 70.9632 67.3983 71.0545 67.3972 71.1449C67.3936 71.4388 67.3903 71.7381 67.3876 72.0498C67.373 73.7114 67.373 75.2366 67.3875 76.7111C67.3875 76.7153 67.3876 76.7192 67.3876 76.7234C67.3877 76.7282 67.3877 76.7327 67.3877 76.7374C67.3879 76.7524 67.388 76.7678 67.3881 76.7827C67.3882 76.7926 67.3883 76.8019 67.3884 76.8118C67.4014 78.3967 67.4275 79.7845 67.4684 81.0492C67.4728 81.1871 67.4783 81.3247 67.483 81.4626C67.4851 81.5274 67.4871 81.5932 67.4893 81.6576C67.5385 83.0892 67.6007 84.7545 67.718 86.402C67.7194 86.4225 67.7209 86.4424 67.7224 86.4628C67.8047 87.7435 67.9157 89.0599 68.0565 90.3883C68.1075 90.8692 68.1635 91.3427 68.2218 91.8121C68.3607 92.9704 68.5407 94.1734 68.7581 95.4019C68.951 96.5123 69.1685 97.6556 69.4076 98.8167C69.4145 98.8507 69.4216 98.8852 69.4286 98.9194C69.4532 99.0386 69.4767 99.1569 69.5018 99.2764C69.5092 99.3121 69.5173 99.3498 69.5248 99.3857C69.5526 99.5188 69.581 99.6526 69.6096 99.7868C69.6104 99.7908 69.6112 99.7947 69.6121 99.7987C69.6473 99.9643 69.6829 100.13 69.7193 100.297C69.8579 100.934 70.0106 101.606 70.1777 102.291C70.1985 102.376 70.2192 102.461 70.2405 102.547C70.2534 102.599 70.2666 102.652 70.2798 102.704C70.4593 103.422 70.6593 104.163 70.8851 104.901C71.0957 105.597 71.3063 106.22 71.5255 106.799C71.7699 107.454 72.047 108.111 72.3793 108.748C72.6075 109.193 72.888 109.674 73.2272 110.139C73.24 110.157 73.253 110.172 73.2657 110.19C73.349 110.302 73.4336 110.414 73.5242 110.523C73.5268 110.526 73.5294 110.53 73.532 110.533C73.6276 110.649 73.7272 110.762 73.8304 110.871C73.8326 110.874 73.8357 110.876 73.838 110.879C73.9008 110.945 73.9692 111.006 74.0352 111.07C74.042 111.316 74.0606 111.556 74.0985 111.783C74.1033 111.811 74.1117 111.839 74.117 111.867C74.1213 111.894 74.1227 111.92 74.1282 111.947C74.2057 112.33 74.33 112.695 74.4974 113.031C74.7733 113.586 75.1645 114.072 75.6255 114.456C75.7417 114.555 75.8633 114.649 75.99 114.736C76.6349 115.182 77.4114 115.371 78.1694 115.487C78.173 115.488 78.1764 115.488 78.1799 115.489C78.1892 115.49 78.1986 115.492 78.2079 115.493C79.1468 115.661 80.1128 115.734 81.0963 115.785C81.5317 115.81 81.98 115.828 82.4467 115.842C83.5777 115.88 84.8 115.894 86.2242 115.886C86.4892 115.885 86.7528 115.882 87.0164 115.879C87.2767 115.878 87.5376 115.876 87.7952 115.874L87.8197 115.874C88.7078 115.867 89.6094 115.844 90.4813 115.821C90.8207 115.813 91.16 115.804 91.4994 115.796L96.8049 115.676C96.8177 115.676 96.8308 115.676 96.8437 115.675L96.9318 115.673C97.4343 115.662 97.9368 115.647 98.4394 115.631C99.3295 115.605 100.226 115.575 101.137 115.543C101.202 115.541 101.268 115.537 101.332 115.535C101.543 115.527 101.754 115.518 101.963 115.508C102.85 115.466 103.761 115.408 104.714 115.332C104.794 115.326 104.876 115.319 104.953 115.313C105.607 115.263 106.38 115.195 107.2 115.094C107.903 115.011 108.631 114.903 109.359 114.753C110.407 114.547 111.408 114.294 112.247 113.764C112.249 113.763 112.251 113.762 112.254 113.76C112.259 113.757 112.264 113.753 112.269 113.75L128.3 113.914C128.309 113.962 128.321 114.009 128.334 114.055C128.336 114.064 128.338 114.072 128.34 114.08C128.352 114.12 128.365 114.158 128.379 114.196C128.385 114.214 128.392 114.231 128.399 114.248C128.432 114.33 128.469 114.41 128.511 114.481C128.569 114.58 128.64 114.664 128.716 114.742C128.732 114.758 128.749 114.773 128.765 114.789C128.811 114.832 128.858 114.872 128.908 114.908C128.927 114.923 128.945 114.938 128.965 114.951C128.972 114.955 128.979 114.958 128.985 114.962C129.046 115.002 129.108 115.039 129.172 115.071C129.809 115.413 130.579 115.505 131.267 115.586L131.309 115.591C131.667 115.639 132.023 115.679 132.375 115.709C132.469 115.718 132.561 115.724 132.654 115.732C132.757 115.74 132.862 115.75 132.964 115.757C132.992 115.759 133.02 115.76 133.049 115.762C133.229 115.774 133.408 115.783 133.585 115.791C133.689 115.796 133.792 115.8 133.894 115.803C134.062 115.809 134.227 115.811 134.391 115.813C134.447 115.813 134.505 115.816 134.561 115.816C134.608 115.816 134.653 115.814 134.699 115.814C134.768 115.813 134.839 115.815 134.908 115.814C135.645 115.802 136.318 115.758 136.942 115.684C137.49 115.625 138.042 115.538 138.58 115.391C138.666 115.369 138.755 115.343 138.844 115.316C138.848 115.315 138.851 115.314 138.855 115.313C138.892 115.301 138.933 115.287 138.976 115.271C139.394 115.126 139.808 114.909 140.015 114.56C140.101 114.415 140.144 114.256 140.145 114.092C140.146 114.076 140.147 114.061 140.147 114.045C140.147 114.045 140.147 114.044 140.147 114.043L141.107 114.048L153.498 114.106C154.028 114.109 154.559 114.11 155.089 114.111C155.298 114.111 155.507 114.113 155.715 114.113C155.727 114.113 155.739 114.113 155.751 114.113C155.808 114.113 155.866 114.114 155.923 114.113L166.685 114.073C166.692 114.073 166.7 114.073 166.708 114.073L168.545 114.066C168.537 114.098 168.529 114.131 168.52 114.163C168.486 114.29 168.453 114.417 168.42 114.544C168.112 115.72 167.836 116.909 167.57 118.067L167.385 118.875C167.378 118.904 167.37 118.933 167.364 118.963C167.358 118.989 167.352 119.017 167.346 119.044C167.336 119.091 167.326 119.139 167.316 119.187C167.31 119.215 167.305 119.242 167.3 119.27C167.218 119.693 167.175 120.153 167.3 120.605C167.452 121.152 167.879 121.513 168.455 121.616C168.468 121.618 168.481 121.622 168.494 121.624C168.581 121.637 168.67 121.645 168.763 121.647C168.775 121.647 168.786 121.65 168.798 121.65C168.813 121.65 168.829 121.649 168.844 121.649ZM95.2977 108.016C93.5502 107.788 92.21 107.591 90.9526 107.377C89.4123 107.114 88.1502 106.843 86.9805 106.524C86.0177 106.262 84.7823 105.872 83.7649 105.186C83.3272 104.891 82.933 104.528 82.5813 104.106L94.2557 99.8351C94.5379 99.9561 94.8125 100.059 95.0637 100.146C96.0276 100.477 97.0187 100.74 98.0085 100.924C99.1679 101.141 100.315 101.26 101.184 101.34C102.112 101.425 103.134 101.491 104.399 101.548C105.476 101.597 106.549 101.626 107.549 101.651C108.562 101.676 109.566 101.69 110.592 101.703C110.936 101.708 111.28 101.713 111.625 101.718C112.304 101.729 112.983 101.739 113.662 101.743C113.779 101.744 113.896 101.744 114.014 101.744C114.13 101.744 114.247 101.744 114.363 101.744L127.205 101.743L127.205 109.607L126.807 109.605C126.386 109.605 125.964 109.605 125.542 109.596C124.265 109.572 122.987 109.546 121.71 109.521L120.273 109.492C119.207 109.471 118.098 109.442 116.883 109.403C116.435 109.389 115.988 109.377 115.541 109.364C114.597 109.337 113.621 109.31 112.664 109.266L107.404 109.025C106.437 108.981 105.454 108.917 104.502 108.855C104.084 108.828 103.666 108.8 103.248 108.775C101.884 108.691 100.49 108.564 99.26 108.452C97.912 108.33 96.5788 108.183 95.2977 108.016ZM77.7478 82.1C77.6822 80.6011 77.6492 79.0671 77.6233 77.7469C77.5991 76.4959 77.5915 75.2087 77.6007 73.921L77.6059 73.0849C77.6129 71.9046 77.6203 70.6842 77.6546 69.4862C77.6972 68.0111 77.7422 66.568 77.8249 65.1324C77.9023 63.7915 77.9944 62.3484 78.1418 60.8801C78.2988 59.3157 78.4787 57.92 78.6913 56.6132C78.9228 55.1922 79.1957 53.9031 79.5255 52.6719C79.8509 51.457 80.2413 50.141 80.7188 48.6489C80.785 48.4422 80.8538 48.2292 80.9249 48.0143L91.2515 51.8185C91.1611 52.0063 91.0799 52.1896 91.008 52.3616C90.6035 53.3298 90.2778 54.35 89.9788 55.3118C89.6781 56.2795 89.4264 57.2852 89.2308 58.3009C89.0415 59.283 88.8863 60.3185 88.7558 61.4673C88.6367 62.5165 88.5416 63.5685 88.4731 64.5939C88.401 65.6777 88.3422 66.8039 88.2981 67.9409C88.2567 69.0127 88.2348 70.0946 88.2174 71.104C88.1992 72.1433 88.1893 73.2455 88.1882 74.3806C88.1875 75.4336 88.195 76.406 88.2115 77.3535C88.2308 78.4599 88.2543 79.6452 88.2965 80.8168C88.3356 81.9048 88.3982 82.9731 88.4644 84.0628C88.5213 85.0043 88.6073 85.9996 88.7198 87.0205C88.8564 88.255 89.0005 89.2642 89.1736 90.1964C89.3758 91.2858 89.615 92.2839 89.9049 93.2476C90.1542 94.0764 90.4952 95.1645 90.9234 96.2337C91.0209 96.4767 91.1298 96.7298 91.2518 96.9839L80.916 100.773C80.7164 100.184 80.5352 99.5894 80.3574 99.0043L80.2842 98.7639C79.9143 97.5499 79.4938 96.1376 79.1853 94.7413C78.9098 93.4925 78.6675 92.1191 78.445 90.5422C78.2767 89.3497 78.1408 88.0728 78.0175 86.5237C77.9037 85.0903 77.8128 83.602 77.7478 82.1ZM84.8075 43.0385C85.896 42.5405 87.0502 42.2297 88.4486 41.9161C89.9319 41.5831 91.3939 41.3446 92.6284 41.1551C94.1273 40.9253 95.6107 40.744 96.864 40.5973C98.0992 40.4523 99.3942 40.3251 100.822 40.2083C102.28 40.0892 103.729 39.9976 105.337 39.8987C106.512 39.8264 107.764 39.7605 109.278 39.691C109.659 39.6736 110.04 39.655 110.421 39.6366C111.352 39.5914 112.314 39.5446 113.26 39.5144L118.515 39.3466C119.423 39.3176 120.348 39.3025 121.242 39.2879C121.673 39.2809 122.105 39.2738 122.537 39.2653C122.884 39.2585 123.232 39.25 123.58 39.2416C124.305 39.2241 125.055 39.2062 125.791 39.2029L127.205 39.1966L127.205 47.0602L114.464 47.0594C114.202 47.0589 113.942 47.0584 113.681 47.0598C113.07 47.0627 112.459 47.0723 111.848 47.0817L110.411 47.1017C109.575 47.1121 108.738 47.1225 107.903 47.1432C106.883 47.1684 105.678 47.2011 104.462 47.252C103.408 47.296 102.343 47.3636 101.296 47.4533C100.126 47.5531 99.1552 47.6748 98.2412 47.8359C97.2494 48.0106 96.2615 48.2597 95.3046 48.5759C94.9682 48.6871 94.6124 48.8142 94.2554 48.9673L82.5863 44.6798C83.1661 44.001 83.909 43.4496 84.8075 43.0385ZM147.913 39.1038L170.184 39.1038C170.993 39.1043 171.801 39.1081 172.61 39.1118L174.736 39.1196C175.858 39.1222 177.018 39.125 178.157 39.1481C179.213 39.1694 180.145 39.2069 181.04 39.2959C180.239 39.6198 179.439 39.9434 178.64 40.2698C177.029 40.9274 175.382 41.6321 173.746 42.3644C171.811 43.2304 169.931 44.0943 168.159 44.9318C166.502 45.7144 164.837 46.541 163.223 47.3418C163.004 47.3277 162.786 47.3156 162.572 47.3047C161.628 47.2567 160.669 47.2334 159.742 47.211L159.201 47.1976C158.545 47.1809 157.889 47.1726 157.233 47.1658L148.151 47.0709C147.809 47.0667 147.468 47.0624 147.127 47.0612C146.856 47.0603 146.584 47.0608 146.313 47.0608L145.908 47.0612L131.207 47.0604L131.207 40.8711C131.207 40.7635 131.211 40.6545 131.214 40.545C131.227 40.1147 131.24 39.6336 131.059 39.1794L147.909 39.1038L147.913 38.7422L147.913 39.1038ZM182.079 105.451C180.971 105.029 179.883 104.591 178.872 104.181C177.482 103.618 176.341 103.147 175.281 102.7C174.095 102.2 173.194 101.813 172.359 101.444L168.613 99.7915C169.126 99.4031 169.619 98.9314 170.106 98.3605C170.689 97.6758 171.246 96.8828 171.858 95.8647C172.433 94.9069 172.899 94.006 173.28 93.1099C173.667 92.2006 174 91.2387 174.297 90.1698C174.561 89.2221 174.784 88.2305 174.979 87.1385C175.161 86.1242 175.314 85.051 175.448 83.8577C175.558 82.8796 175.646 81.8643 175.708 80.8399C175.784 79.6178 175.83 78.6099 175.855 77.668C175.88 76.6878 175.895 75.6504 175.901 74.403L175.901 74.4011C175.901 73.4204 175.889 72.4358 175.864 71.4742C175.833 70.3157 175.79 69.28 175.73 68.3082C175.659 67.1474 175.57 66.0775 175.459 65.0375C175.347 63.9919 175.199 62.933 175.02 61.8904C174.84 60.8431 174.616 59.8175 174.354 58.8422C174.073 57.7971 173.743 56.8105 173.371 55.9099C173 55.0126 172.538 54.091 171.997 53.1711C171.389 52.1374 170.831 51.3225 170.243 50.6063C169.713 49.9615 169.176 49.4362 168.614 49.0109L172.359 47.3584C173.202 46.9864 174.104 46.5991 175.281 46.1027C176.344 45.6546 177.485 45.184 178.872 44.6217C179.883 44.2118 180.971 43.7741 182.079 43.3521C183.23 42.9138 185.453 42.2559 186.796 41.7708C187.298 42.2661 187.734 42.7806 188.099 43.2349C188.887 44.2163 189.618 45.3271 190.273 46.5367C190.876 47.6527 191.459 48.8914 192.057 50.3237C192.538 51.4765 193.001 52.7232 193.561 54.3662C194.025 55.7276 194.429 57.0711 194.764 58.3598C195.098 59.643 195.385 61.0122 195.619 62.4294C195.84 63.7677 196.021 65.1635 196.155 66.5781C196.277 67.8569 196.368 69.2564 196.433 70.8573C196.486 72.1344 196.505 73.4595 196.493 74.9085C196.48 76.5327 196.439 77.9788 196.369 79.3296C196.297 80.725 196.186 82.0826 196.038 83.3651C195.862 84.881 195.654 86.2666 195.4 87.6012C195.138 88.9793 194.815 90.3381 194.44 91.6397C194.072 92.9163 193.638 94.2556 193.113 95.734C192.627 97.103 192.102 98.421 191.553 99.6515C190.929 101.052 190.319 102.243 189.688 103.294C189.006 104.432 188.216 105.496 187.341 106.458C187.13 106.69 186.922 106.903 186.716 107.102C185.366 106.612 183.206 105.88 182.079 105.451ZM131.214 108.258C131.211 108.148 131.207 108.039 131.207 107.932L131.207 101.742L143.013 101.742L146.2 101.742L147.091 101.742C147.381 101.741 147.672 101.738 147.963 101.734L157.327 101.636C157.848 101.631 158.37 101.626 158.891 101.613L159.547 101.597C160.458 101.575 161.4 101.552 162.328 101.51C162.621 101.496 162.92 101.48 163.222 101.46L163.566 101.631C165.523 102.603 167.326 103.478 169.079 104.306C170.74 105.091 172.424 105.859 174.085 106.59C175.833 107.359 177.67 108.137 179.545 108.903C180.043 109.106 180.543 109.304 181.043 109.503C181.007 109.506 180.97 109.51 180.935 109.513C179.841 109.613 178.648 109.664 177.18 109.673C175.998 109.681 174.817 109.684 173.635 109.687L171.58 109.694C170.963 109.697 170.348 109.699 169.732 109.699L148.696 109.699C148.368 109.699 148.04 109.699 147.711 109.698L138.727 109.657L131.059 109.624C131.24 109.17 131.227 108.688 131.214 108.258ZM231.519 107.014C230.997 107.73 230.383 108.309 229.693 108.737C228.725 109.335 227.676 109.574 226.74 109.412C225.916 109.268 225.168 108.783 224.688 108.082C224.118 107.249 223.892 106.119 224.053 104.9L224.053 104.892C224.073 104.779 224.205 104.134 224.223 104.064C224.472 103.153 224.919 102.273 225.518 101.518C226.077 100.812 226.727 100.256 227.448 99.8653C228.46 99.3174 229.528 99.1627 230.455 99.4302C231.277 99.6678 231.985 100.261 232.394 101.058C232.859 101.961 232.979 103.115 232.732 104.307C232.534 105.262 232.114 106.198 231.519 107.014ZM232.732 44.4953C232.979 45.6878 232.859 46.8418 232.394 47.7448C231.985 48.5416 231.277 49.1349 230.455 49.3725C229.528 49.64 228.461 49.4855 227.448 48.9371C226.727 48.5467 226.077 47.9908 225.518 47.2845C224.919 46.5294 224.472 45.6492 224.223 44.7401C224.205 44.6686 224.073 44.0244 224.053 43.9109L224.053 43.9029C223.892 42.6839 224.118 41.5537 224.688 40.7207C225.168 40.0193 225.916 39.5345 226.74 39.3908C227.677 39.2288 228.725 39.4678 229.693 40.0661C230.383 40.4937 230.998 41.0729 231.519 41.7882C232.114 42.6048 232.534 43.541 232.732 44.4953ZM76.7768 39.6906L76.9108 39.7179C77.6791 39.8733 78.5496 40.0496 79.0991 40.5295C79.3301 40.7313 79.4434 41.0183 79.4549 41.4325C79.4641 41.7673 79.4128 42.1289 79.283 42.6229C79.1801 43.0164 79.0737 43.4232 78.8766 43.7451C78.5915 44.2118 78.0243 44.4948 77.4757 44.7684C77.2944 44.8588 77.1067 44.9525 76.9323 45.0514C76.0579 45.5475 75.2402 46.1023 74.5082 46.6308C74.7296 45.5653 75.0013 44.3291 75.3526 43.0929C75.7361 41.7425 76.1289 40.6486 76.5864 39.6538C76.6499 39.6661 76.7134 39.6776 76.7768 39.6906ZM76.9322 103.751C77.1065 103.85 77.2937 103.943 77.4747 104.034C78.0238 104.307 78.5913 104.591 78.8769 105.058C79.0737 105.379 79.1801 105.786 79.2877 106.198C79.4128 106.674 79.4641 107.035 79.4549 107.37C79.4434 107.784 79.3301 108.071 79.0991 108.273C78.5496 108.753 77.6791 108.929 76.9108 109.085L76.7768 109.112C76.7145 109.125 76.6515 109.137 76.5873 109.149C76.3661 108.668 76.1556 108.153 75.9542 107.595C75.5798 106.558 75.2471 105.413 74.9076 103.991C74.763 103.386 74.6278 102.776 74.5021 102.168C75.2356 102.697 76.0555 103.254 76.9322 103.751Z" fill="#BFF5F0"/>
<path d="M219.801 119.106L219.801 124.464C219.801 125.569 218.905 126.464 217.801 126.464L203.407 126.464C202.302 126.464 201.407 125.569 201.407 124.464L201.407 119.106L219.801 119.106Z" fill="#A6C9C6"/>
<path d="M102.08 119.106L102.08 124.464C102.08 125.569 101.185 126.464 100.08 126.464L85.686 126.464C84.5814 126.464 83.686 125.569 83.686 124.464L83.686 119.106L102.08 119.106Z" fill="#FF7676"/>
<path d="M219.801 28.9756L219.801 23.6179C219.801 22.5134 218.905 21.6179 217.801 21.6179L203.407 21.6179C202.302 21.6179 201.407 22.5134 201.407 23.6179L201.407 28.9756L219.801 28.9756Z" fill="#A6C9C6"/>
<path d="M102.08 28.9756L102.08 23.6179C102.08 22.5134 101.185 21.6179 100.08 21.6179L85.686 21.6179C84.5814 21.6179 83.686 22.5134 83.686 23.6179L83.686 28.9756L102.08 28.9756Z" fill="#A6C9C6"/>
<path d="M5.44883 0.895999C6.28883 0.895999 7.00883 1.046 7.60883 1.346C8.20883 1.634 8.65883 2.036 8.95883 2.552C9.27083 3.068 9.42683 3.644 9.42683 4.28C9.42683 5.084 9.19883 5.756 8.74283 6.296C8.29883 6.824 7.66883 7.142 6.85283 7.25V7.34C7.72883 7.592 8.41283 7.97 8.90483 8.474C9.40883 8.966 9.66083 9.65 9.66083 10.526C9.66083 11.594 9.30683 12.464 8.59883 13.136C7.89083 13.796 6.87683 14.126 5.55683 14.126C4.20083 14.126 3.10883 13.784 2.28083 13.1C1.45283 12.404 0.978828 11.378 0.858828 10.022H2.89283C2.96483 10.742 3.22283 11.318 3.66683 11.75C4.11083 12.17 4.71083 12.38 5.46683 12.38C6.17483 12.38 6.71483 12.194 7.08683 11.822C7.47083 11.45 7.66283 10.97 7.66283 10.382C7.66283 9.674 7.38683 9.134 6.83483 8.762C6.29483 8.39 5.50883 8.204 4.47683 8.204H3.99083V6.512H4.47683C6.43283 6.536 7.41083 5.87 7.41083 4.514C7.41083 3.926 7.23083 3.464 6.87083 3.128C6.51083 2.792 6.01883 2.624 5.39483 2.624C4.77083 2.624 4.24883 2.816 3.82883 3.2C3.40883 3.572 3.15683 4.118 3.07283 4.838H1.05683C1.14083 3.59 1.56083 2.624 2.31683 1.94C3.07283 1.244 4.11683 0.895999 5.44883 0.895999ZM18.6383 4.712C18.4223 3.296 17.6843 2.588 16.4243 2.588C15.5123 2.588 14.8283 2.954 14.3723 3.686C13.9163 4.406 13.6883 5.54 13.6883 7.088L13.7063 7.7C13.8863 7.052 14.2763 6.536 14.8763 6.152C15.4763 5.768 16.1843 5.576 17.0003 5.576C18.2483 5.576 19.2263 5.948 19.9343 6.692C20.6423 7.436 20.9963 8.486 20.9963 9.842C20.9963 10.658 20.8343 11.39 20.5103 12.038C20.1863 12.674 19.7003 13.184 19.0523 13.568C18.4043 13.94 17.6063 14.126 16.6583 14.126C14.8223 14.126 13.5623 13.556 12.8783 12.416C12.1943 11.276 11.8523 9.71 11.8523 7.718C11.8523 5.438 12.2183 3.734 12.9503 2.606C13.6823 1.478 14.8823 0.913999 16.5503 0.913999C17.7983 0.913999 18.7523 1.268 19.4123 1.976C20.0843 2.684 20.4743 3.596 20.5823 4.712H18.6383ZM13.8863 9.608C13.8863 10.388 14.1143 11.042 14.5703 11.57C15.0263 12.086 15.6983 12.344 16.5863 12.344C17.3423 12.344 17.9423 12.122 18.3863 11.678C18.8423 11.234 19.0703 10.616 19.0703 9.824C19.0703 8.972 18.8423 8.318 18.3863 7.862C17.9303 7.406 17.3123 7.178 16.5323 7.178C15.8243 7.178 15.2063 7.388 14.6783 7.808C14.1503 8.228 13.8863 8.828 13.8863 9.608Z" fill="black"/>
<path d="M27.2058 9.37606V12.6641H25.8378V4.19206H28.7178C29.6938 4.19206 30.4258 4.42406 30.9138 4.88806C31.4098 5.35206 31.6578 5.98806 31.6578 6.79606C31.6578 7.59606 31.4058 8.22806 30.9018 8.69206C30.3978 9.14806 29.6698 9.37606 28.7178 9.37606H27.2058ZM28.5738 8.26006C29.7018 8.26006 30.2658 7.77206 30.2658 6.79606C30.2658 6.31606 30.1298 5.95206 29.8578 5.70406C29.5938 5.44806 29.1658 5.32006 28.5738 5.32006H27.2058V8.26006H28.5738ZM38.4253 10.4081C38.4253 10.8241 38.3253 11.2121 38.1253 11.5721C37.9253 11.9241 37.6213 12.2081 37.2133 12.4241C36.8053 12.6401 36.3053 12.7481 35.7133 12.7481C35.1373 12.7481 34.6213 12.6481 34.1653 12.4481C33.7093 12.2401 33.3453 11.9521 33.0733 11.5841C32.8013 11.2161 32.6453 10.7921 32.6053 10.3121H34.0693C34.1093 10.6801 34.2653 10.9961 34.5373 11.2601C34.8173 11.5241 35.1893 11.6561 35.6533 11.6561C36.0693 11.6561 36.3893 11.5441 36.6133 11.3201C36.8453 11.0961 36.9613 10.8081 36.9613 10.4561C36.9613 10.1521 36.8773 9.90406 36.7093 9.71206C36.5413 9.51206 36.3333 9.35606 36.0853 9.24406C35.8373 9.13206 35.4973 9.00406 35.0653 8.86006C34.5373 8.69206 34.1053 8.52406 33.7693 8.35606C33.4413 8.18806 33.1613 7.94406 32.9293 7.62406C32.6973 7.30406 32.5813 6.88406 32.5813 6.36406C32.5813 5.90806 32.6933 5.50806 32.9173 5.16406C33.1413 4.82006 33.4613 4.55606 33.8773 4.37206C34.2933 4.18006 34.7733 4.08406 35.3173 4.08406C36.1813 4.08406 36.8653 4.29206 37.3693 4.70806C37.8813 5.12406 38.1733 5.66806 38.2453 6.34006H36.7693C36.7133 6.02006 36.5613 5.74806 36.3133 5.52406C36.0733 5.29206 35.7413 5.17606 35.3173 5.17606C34.9333 5.17606 34.6253 5.27606 34.3933 5.47606C34.1613 5.66806 34.0453 5.94806 34.0453 6.31606C34.0453 6.60406 34.1253 6.84406 34.2853 7.03606C34.4453 7.22006 34.6453 7.36806 34.8853 7.48006C35.1333 7.58406 35.4693 7.70806 35.8933 7.85206C36.4293 8.02006 36.8653 8.19206 37.2013 8.36806C37.5453 8.53606 37.8333 8.78406 38.0653 9.11206C38.3053 9.44006 38.4253 9.87206 38.4253 10.4081ZM41.1628 4.19206V12.6641H39.7948V4.19206H41.1628Z" fill="#6C757E"/>
<path d="M265.44 131.896C266.28 131.896 267 132.046 267.6 132.346C268.2 132.634 268.65 133.036 268.95 133.552C269.262 134.068 269.418 134.644 269.418 135.28C269.418 136.084 269.19 136.756 268.734 137.296C268.29 137.824 267.66 138.142 266.844 138.25V138.34C267.72 138.592 268.404 138.97 268.896 139.474C269.4 139.966 269.652 140.65 269.652 141.526C269.652 142.594 269.298 143.464 268.59 144.136C267.882 144.796 266.868 145.126 265.548 145.126C264.192 145.126 263.1 144.784 262.272 144.1C261.444 143.404 260.97 142.378 260.85 141.022H262.884C262.956 141.742 263.214 142.318 263.658 142.75C264.102 143.17 264.702 143.38 265.458 143.38C266.166 143.38 266.706 143.194 267.078 142.822C267.462 142.45 267.654 141.97 267.654 141.382C267.654 140.674 267.378 140.134 266.826 139.762C266.286 139.39 265.5 139.204 264.468 139.204H263.982V137.512H264.468C266.424 137.536 267.402 136.87 267.402 135.514C267.402 134.926 267.222 134.464 266.862 134.128C266.502 133.792 266.01 133.624 265.386 133.624C264.762 133.624 264.24 133.816 263.82 134.2C263.4 134.572 263.148 135.118 263.064 135.838H261.048C261.132 134.59 261.552 133.624 262.308 132.94C263.064 132.244 264.108 131.896 265.44 131.896ZM280.466 133.912H274.184V137.692C274.472 137.32 274.88 137.026 275.408 136.81C275.936 136.582 276.518 136.468 277.154 136.468C278.042 136.468 278.78 136.66 279.368 137.044C279.956 137.416 280.388 137.914 280.664 138.538C280.952 139.162 281.096 139.852 281.096 140.608C281.096 141.94 280.724 143.02 279.98 143.848C279.236 144.664 278.156 145.072 276.74 145.072C275.408 145.072 274.334 144.718 273.518 144.01C272.702 143.302 272.258 142.36 272.186 141.184H274.202C274.31 141.832 274.574 142.342 274.994 142.714C275.426 143.086 275.972 143.272 276.632 143.272C277.448 143.272 278.06 143.026 278.468 142.534C278.876 142.042 279.08 141.388 279.08 140.572C279.08 139.804 278.87 139.204 278.45 138.772C278.03 138.328 277.43 138.106 276.65 138.106C276.098 138.106 275.612 138.226 275.192 138.466C274.784 138.706 274.484 139.024 274.292 139.42H272.294V132.094H280.466V133.912Z" fill="black"/>
<path d="M265.058 0.351999C265.804 0.351999 266.444 0.485333 266.978 0.752C267.511 1.008 267.911 1.36533 268.178 1.824C268.455 2.28267 268.594 2.79467 268.594 3.36C268.594 4.07467 268.391 4.672 267.986 5.152C267.591 5.62133 267.031 5.904 266.306 6V6.08C267.084 6.304 267.692 6.64 268.13 7.088C268.578 7.52533 268.802 8.13333 268.802 8.912C268.802 9.86133 268.487 10.6347 267.858 11.232C267.228 11.8187 266.327 12.112 265.154 12.112C263.948 12.112 262.978 11.808 262.242 11.2C261.506 10.5813 261.084 9.66933 260.978 8.464H262.786C262.85 9.104 263.079 9.616 263.474 10C263.868 10.3733 264.402 10.56 265.074 10.56C265.703 10.56 266.183 10.3947 266.514 10.064C266.855 9.73333 267.026 9.30667 267.026 8.784C267.026 8.15467 266.78 7.67467 266.29 7.344C265.81 7.01333 265.111 6.848 264.194 6.848H263.762V5.344H264.194C265.932 5.36533 266.802 4.77333 266.802 3.568C266.802 3.04533 266.642 2.63467 266.322 2.336C266.002 2.03733 265.564 1.888 265.01 1.888C264.455 1.888 263.991 2.05867 263.618 2.4C263.244 2.73067 263.02 3.216 262.946 3.856H261.154C261.228 2.74667 261.602 1.888 262.274 1.28C262.946 0.661333 263.874 0.351999 265.058 0.351999ZM278.414 2.144H272.83V5.504C273.086 5.17333 273.448 4.912 273.918 4.72C274.387 4.51733 274.904 4.416 275.47 4.416C276.259 4.416 276.915 4.58667 277.438 4.928C277.96 5.25867 278.344 5.70133 278.59 6.256C278.846 6.81067 278.974 7.424 278.974 8.096C278.974 9.28 278.643 10.24 277.982 10.976C277.32 11.7013 276.36 12.064 275.102 12.064C273.918 12.064 272.963 11.7493 272.238 11.12C271.512 10.4907 271.118 9.65333 271.054 8.608H272.846C272.942 9.184 273.176 9.63733 273.55 9.968C273.934 10.2987 274.419 10.464 275.006 10.464C275.731 10.464 276.275 10.2453 276.638 9.808C277 9.37067 277.182 8.78933 277.182 8.064C277.182 7.38133 276.995 6.848 276.622 6.464C276.248 6.06933 275.715 5.872 275.022 5.872C274.531 5.872 274.099 5.97867 273.726 6.192C273.363 6.40533 273.096 6.688 272.926 7.04H271.15V0.528H278.414V2.144Z" fill="black"/>
<path d="M286.206 141.038V144.326H284.838V135.854H287.718C288.694 135.854 289.426 136.086 289.914 136.55C290.41 137.014 290.658 137.65 290.658 138.458C290.658 139.258 290.406 139.89 289.902 140.354C289.398 140.81 288.67 141.038 287.718 141.038H286.206ZM287.574 139.922C288.702 139.922 289.266 139.434 289.266 138.458C289.266 137.978 289.13 137.614 288.858 137.366C288.594 137.11 288.166 136.982 287.574 136.982H286.206V139.922H287.574ZM297.425 142.07C297.425 142.486 297.325 142.874 297.125 143.234C296.925 143.586 296.621 143.87 296.213 144.086C295.805 144.302 295.305 144.41 294.713 144.41C294.137 144.41 293.621 144.31 293.165 144.11C292.709 143.902 292.345 143.614 292.073 143.246C291.801 142.878 291.645 142.454 291.605 141.974H293.069C293.109 142.342 293.265 142.658 293.537 142.922C293.817 143.186 294.189 143.318 294.653 143.318C295.069 143.318 295.389 143.206 295.613 142.982C295.845 142.758 295.961 142.47 295.961 142.118C295.961 141.814 295.877 141.566 295.709 141.374C295.541 141.174 295.333 141.018 295.085 140.906C294.837 140.794 294.497 140.666 294.065 140.522C293.537 140.354 293.105 140.186 292.769 140.018C292.441 139.85 292.161 139.606 291.929 139.286C291.697 138.966 291.581 138.546 291.581 138.026C291.581 137.57 291.693 137.17 291.917 136.826C292.141 136.482 292.461 136.218 292.877 136.034C293.293 135.842 293.773 135.746 294.317 135.746C295.181 135.746 295.865 135.954 296.369 136.37C296.881 136.786 297.173 137.33 297.245 138.002H295.769C295.713 137.682 295.561 137.41 295.313 137.186C295.073 136.954 294.741 136.838 294.317 136.838C293.933 136.838 293.625 136.938 293.393 137.138C293.161 137.33 293.045 137.61 293.045 137.978C293.045 138.266 293.125 138.506 293.285 138.698C293.445 138.882 293.645 139.03 293.885 139.142C294.133 139.246 294.469 139.37 294.893 139.514C295.429 139.682 295.865 139.854 296.201 140.03C296.545 140.198 296.833 140.446 297.065 140.774C297.305 141.102 297.425 141.534 297.425 142.07ZM300.163 135.854V144.326H298.795V135.854H300.163Z" fill="#6C757E"/>
<path d="M286.206 8.03817V11.3262H284.838V2.85417H287.718C288.694 2.85417 289.426 3.08617 289.914 3.55017C290.41 4.01417 290.658 4.65017 290.658 5.45817C290.658 6.25817 290.406 6.89017 289.902 7.35417C289.398 7.81017 288.67 8.03817 287.718 8.03817H286.206ZM287.574 6.92217C288.702 6.92217 289.266 6.43417 289.266 5.45817C289.266 4.97817 289.13 4.61417 288.858 4.36617C288.594 4.11017 288.166 3.98217 287.574 3.98217H286.206V6.92217H287.574ZM297.425 9.07017C297.425 9.48617 297.325 9.87417 297.125 10.2342C296.925 10.5862 296.621 10.8702 296.213 11.0862C295.805 11.3022 295.305 11.4102 294.713 11.4102C294.137 11.4102 293.621 11.3102 293.165 11.1102C292.709 10.9022 292.345 10.6142 292.073 10.2462C291.801 9.87817 291.645 9.45417 291.605 8.97417H293.069C293.109 9.34217 293.265 9.65817 293.537 9.92217C293.817 10.1862 294.189 10.3182 294.653 10.3182C295.069 10.3182 295.389 10.2062 295.613 9.98217C295.845 9.75817 295.961 9.47017 295.961 9.11817C295.961 8.81417 295.877 8.56617 295.709 8.37417C295.541 8.17417 295.333 8.01817 295.085 7.90617C294.837 7.79417 294.497 7.66617 294.065 7.52217C293.537 7.35417 293.105 7.18617 292.769 7.01817C292.441 6.85017 292.161 6.60617 291.929 6.28617C291.697 5.96617 291.581 5.54617 291.581 5.02617C291.581 4.57017 291.693 4.17017 291.917 3.82617C292.141 3.48217 292.461 3.21817 292.877 3.03417C293.293 2.84217 293.773 2.74617 294.317 2.74617C295.181 2.74617 295.865 2.95417 296.369 3.37017C296.881 3.78617 297.173 4.33017 297.245 5.00217H295.769C295.713 4.68217 295.561 4.41017 295.313 4.18617C295.073 3.95417 294.741 3.83817 294.317 3.83817C293.933 3.83817 293.625 3.93817 293.393 4.13817C293.161 4.33017 293.045 4.61017 293.045 4.97817C293.045 5.26617 293.125 5.50617 293.285 5.69817C293.445 5.88217 293.645 6.03017 293.885 6.14217C294.133 6.24617 294.469 6.37017 294.893 6.51417C295.429 6.68217 295.865 6.85417 296.201 7.03017C296.545 7.19817 296.833 7.44617 297.065 7.77417C297.305 8.10217 297.425 8.53417 297.425 9.07017ZM300.163 2.85417V11.3262H298.795V2.85417H300.163Z" fill="#6C757E"/>
<path d="M5.44883 134.896C6.28883 134.896 7.00883 135.046 7.60883 135.346C8.20883 135.634 8.65883 136.036 8.95883 136.552C9.27083 137.068 9.42683 137.644 9.42683 138.28C9.42683 139.084 9.19883 139.756 8.74283 140.296C8.29883 140.824 7.66883 141.142 6.85283 141.25V141.34C7.72883 141.592 8.41283 141.97 8.90483 142.474C9.40883 142.966 9.66083 143.65 9.66083 144.526C9.66083 145.594 9.30683 146.464 8.59883 147.136C7.89083 147.796 6.87683 148.126 5.55683 148.126C4.20083 148.126 3.10883 147.784 2.28083 147.1C1.45283 146.404 0.978828 145.378 0.858828 144.022H2.89283C2.96483 144.742 3.22283 145.318 3.66683 145.75C4.11083 146.17 4.71083 146.38 5.46683 146.38C6.17483 146.38 6.71483 146.194 7.08683 145.822C7.47083 145.45 7.66283 144.97 7.66283 144.382C7.66283 143.674 7.38683 143.134 6.83483 142.762C6.29483 142.39 5.50883 142.204 4.47683 142.204H3.99083V140.512H4.47683C6.43283 140.536 7.41083 139.87 7.41083 138.514C7.41083 137.926 7.23083 137.464 6.87083 137.128C6.51083 136.792 6.01883 136.624 5.39483 136.624C4.77083 136.624 4.24883 136.816 3.82883 137.2C3.40883 137.572 3.15683 138.118 3.07283 138.838H1.05683C1.14083 137.59 1.56083 136.624 2.31683 135.94C3.07283 135.244 4.11683 134.896 5.44883 134.896ZM12.7523 146.326C12.0323 145.174 11.6723 143.584 11.6723 141.556C11.6723 139.54 12.0323 137.962 12.7523 136.822C13.4723 135.682 14.6723 135.112 16.3523 135.112C18.0323 135.112 19.2323 135.688 19.9523 136.84C20.6723 137.98 21.0323 139.552 21.0323 141.556C21.0323 143.572 20.6723 145.156 19.9523 146.308C19.2323 147.46 18.0323 148.036 16.3523 148.036C14.6723 148.036 13.4723 147.466 12.7523 146.326ZM18.4403 144.922C18.8003 144.142 18.9803 143.02 18.9803 141.556C18.9803 140.116 18.8003 139.012 18.4403 138.244C18.0803 137.464 17.3843 137.074 16.3523 137.074C15.3083 137.074 14.6063 137.458 14.2463 138.226C13.8863 138.994 13.7063 140.104 13.7063 141.556C13.7063 143.02 13.8863 144.142 14.2463 144.922C14.6063 145.702 15.3083 146.092 16.3523 146.092C17.3843 146.092 18.0803 145.702 18.4403 144.922Z" fill="#FF7676"/>
</svg>
