<svg width="175" height="106" viewBox="0 0 175 106" fill="none" xmlns="http://www.w3.org/2000/svg">
<path d="M101.844 100.649C101.852 100.649 101.86 100.647 101.868 100.647C101.89 100.646 101.912 100.647 101.934 100.645C101.985 100.642 102.036 100.634 102.086 100.629C102.892 100.539 103.632 100.118 104.262 99.6939C104.358 99.6303 104.452 99.5631 104.546 99.496C104.602 99.4557 104.659 99.4155 104.714 99.3747C104.779 99.3264 104.843 99.277 104.907 99.2269C105.023 99.1362 105.136 99.0446 105.245 98.9518C105.253 98.9448 105.261 98.9382 105.269 98.9311C105.818 98.4599 106.272 97.9628 106.62 97.4448C106.65 97.3998 106.678 97.353 106.707 97.3073C106.717 97.2916 106.727 97.2756 106.737 97.2598C106.78 97.1911 106.823 97.1228 106.863 97.0529C107.399 96.1416 107.702 95.1447 107.71 94.1944C107.712 94.0244 107.702 93.8589 107.682 93.7025C107.673 93.6359 107.655 93.5643 107.636 93.4925C107.634 93.4848 107.632 93.4759 107.63 93.4672C107.624 93.4406 107.617 93.4141 107.611 93.3875L107.665 93.2813C107.714 93.1839 107.764 93.0854 107.813 92.9865L108.124 92.9793C108.135 92.9795 108.15 92.9805 108.161 92.9806L124.564 92.6496C124.61 92.6486 124.665 92.6437 124.722 92.6378C124.765 92.6336 124.83 92.6271 124.856 92.6247C124.908 92.6618 124.961 92.6956 125.014 92.7305C125.054 92.762 125.094 92.7921 125.131 92.8156C125.308 92.9276 125.497 93.0326 125.691 93.1278C126.075 93.3164 126.493 93.4718 126.967 93.6034C128.477 94.0225 130.063 94.1254 131.597 94.225L132.099 94.258C132.171 94.2628 132.239 94.2668 132.311 94.2716C132.496 94.2837 132.683 94.2958 132.874 94.3078C133.67 94.3588 134.448 94.4053 135.209 94.4463C135.537 94.4647 135.874 94.4833 136.228 94.5024C137.32 94.5612 138.461 94.6078 139.619 94.6406C139.693 94.6427 139.771 94.6449 139.846 94.647C141.034 94.6866 142.1 94.7126 143.109 94.7263C143.299 94.7289 143.494 94.7315 143.691 94.7339C143.773 94.7351 143.855 94.7365 143.937 94.7376C144.802 94.7496 145.619 94.7555 146.405 94.7555C146.868 94.7555 147.32 94.7534 147.765 94.7493C149.246 94.7359 150.455 94.7098 151.568 94.6672C152.542 94.63 153.568 94.5835 154.594 94.5055C156.075 94.4024 157.623 94.25 159.094 93.8098C159.151 93.793 159.208 93.7781 159.265 93.7604C159.306 93.748 159.345 93.7328 159.386 93.7195C159.425 93.7065 159.465 93.6962 159.504 93.6827C161.125 93.1292 162.392 91.9488 163.51 90.8975C163.528 90.8805 163.548 90.862 163.566 90.8453C163.692 90.7268 163.814 90.6112 163.93 90.4821C163.934 90.4791 163.938 90.4758 163.942 90.473C164.11 90.4073 164.276 90.3392 164.438 90.2679C164.439 90.2675 164.44 90.267 164.441 90.2665C164.443 90.2657 164.446 90.265 164.447 90.2642C164.476 90.2515 164.504 90.2369 164.533 90.224C164.707 90.1463 164.877 90.0666 165.043 89.9839C165.071 89.9698 165.098 89.9551 165.126 89.9409C166.324 89.3324 167.32 88.5909 168.086 87.7274C168.106 87.7052 168.123 87.6814 168.143 87.659C168.153 87.6464 168.163 87.6332 168.174 87.6205C168.309 87.4631 168.436 87.3007 168.557 87.1343C168.564 87.1247 168.57 87.1149 168.577 87.1052C168.699 86.9362 168.815 86.7638 168.924 86.5881C168.931 86.5764 168.939 86.5645 168.946 86.5527C169.052 86.3797 169.154 86.205 169.25 86.028C169.259 86.0121 169.268 85.9963 169.276 85.9804C169.369 85.8076 169.458 85.6342 169.542 85.4598C169.552 85.4399 169.562 85.4202 169.572 85.4003C169.655 85.2259 169.735 85.0517 169.811 84.8781C169.819 84.86 169.827 84.842 169.835 84.824C169.915 84.6419 169.99 84.461 170.063 84.2823C170.089 84.2199 170.113 84.1589 170.137 84.0968C170.175 84.0027 170.214 83.9077 170.25 83.8153C170.265 83.7781 170.279 83.74 170.294 83.7026C170.296 83.6962 170.299 83.6894 170.301 83.683C170.305 83.6725 170.309 83.6617 170.313 83.6512C170.535 83.0819 170.751 82.4912 170.967 81.8641C170.974 81.8441 170.981 81.8242 170.988 81.804C171.034 81.6698 171.08 81.5326 171.126 81.3949C171.275 80.9517 171.422 80.4971 171.567 80.0299C171.578 79.9975 171.588 79.966 171.598 79.9334C171.625 79.8448 171.652 79.7553 171.68 79.6657C171.715 79.5499 171.751 79.4361 171.786 79.3174C171.925 78.86 172.058 78.3945 172.187 77.9204C172.207 77.85 172.226 77.7795 172.245 77.7085C172.262 77.6473 172.278 77.5854 172.294 77.5239C172.441 76.9716 172.583 76.4023 172.721 75.8106C172.808 75.4403 172.893 75.0635 172.977 74.6775C173.115 74.0426 173.244 73.393 173.367 72.7238C173.654 71.1835 173.9 69.5467 174.115 67.7321C174.124 67.6534 174.132 67.5754 174.141 67.4968C174.18 67.1654 174.217 66.8338 174.252 66.5018C174.402 65.0889 174.52 63.692 174.604 62.3357C174.612 62.2049 174.618 62.0742 174.626 61.9434C174.654 61.4893 174.68 61.0339 174.704 60.5771C174.786 58.9607 174.835 57.4592 174.855 55.9869C174.856 55.9073 174.856 55.8311 174.857 55.752C174.879 54.3111 174.881 52.8108 174.861 51.2714C174.86 51.2284 174.859 51.1849 174.859 51.1417C174.858 51.1072 174.858 51.0723 174.858 51.0378C174.856 50.9171 174.853 50.8024 174.851 50.6833C174.851 50.6411 174.85 50.599 174.849 50.5568C174.825 49.114 174.782 47.7744 174.717 46.4886C174.71 46.3472 174.702 46.2114 174.695 46.0737C174.688 45.9377 174.682 45.8027 174.675 45.6652C174.629 44.7691 174.566 43.834 174.486 42.8474C174.455 42.4615 174.424 42.0866 174.39 41.7202C174.344 41.2191 174.297 40.7441 174.25 40.2866C174.249 40.2743 174.247 40.2625 174.246 40.2502C174.239 40.1834 174.232 40.1159 174.225 40.0488C174.214 39.9529 174.204 39.8559 174.194 39.7616C174.179 39.6255 174.164 39.4887 174.148 39.3517C174.137 39.2583 174.127 39.1656 174.116 39.0736C174.107 39.0006 174.098 38.9277 174.09 38.8545C174.013 38.2173 173.933 37.6108 173.847 37.0229C173.808 36.7624 173.77 36.5083 173.731 36.2574C173.72 36.1865 173.709 36.1146 173.697 36.0434C173.677 35.9154 173.657 35.7872 173.637 35.6616C173.591 35.3743 173.543 35.085 173.494 34.7912C173.48 34.712 173.465 34.6341 173.451 34.5551C173.41 34.3243 173.369 34.0982 173.328 33.8749C173.27 33.5639 173.21 33.255 173.148 32.947C173.133 32.8712 173.118 32.7959 173.102 32.7208C172.92 31.829 172.719 30.9527 172.503 30.0962C172.485 30.0278 172.468 29.9593 172.451 29.891C172.423 29.7838 172.398 29.674 172.37 29.5674C172.339 29.4513 172.305 29.333 172.273 29.2164C172.193 28.9164 172.111 28.6184 172.027 28.3215C172.017 28.2877 172.008 28.2539 171.998 28.2201C171.945 28.0358 171.894 27.8501 171.84 27.6673C171.42 26.2476 170.993 24.9586 170.54 23.7452C170.084 22.4873 169.615 21.3351 168.98 20.3021C168.938 20.2337 168.897 20.1649 168.854 20.0974C168.812 20.0329 168.768 19.9701 168.724 19.9066C168.652 19.7993 168.578 19.6926 168.5 19.5884C168.485 19.568 168.471 19.5465 168.456 19.5262C168.423 19.4828 168.385 19.4414 168.351 19.3984C168.302 19.3368 168.256 19.2731 168.206 19.2128C168.18 19.1827 168.152 19.1542 168.126 19.1244C168.088 19.0815 168.05 19.0394 168.011 18.9971C167.916 18.8925 167.817 18.7896 167.715 18.6885C167.683 18.6568 167.651 18.6251 167.618 18.5937C167.498 18.4785 167.373 18.3659 167.244 18.2556C167.223 18.2384 167.204 18.2209 167.184 18.2038C166.72 17.8153 166.202 17.4564 165.628 17.1304C165.56 17.0915 165.488 17.0549 165.419 17.0169C165.304 16.9547 165.188 16.8926 165.07 16.8329C164.981 16.7883 164.89 16.7455 164.8 16.7026C164.735 16.6719 164.673 16.6396 164.608 16.6096C164.552 16.5842 164.494 16.561 164.437 16.5362C164.4 16.5199 164.365 16.5018 164.327 16.4858C164.302 16.4751 164.276 16.4655 164.25 16.4555C164.172 16.4225 164.093 16.3901 164.013 16.3585C163.992 16.3479 163.973 16.3368 163.957 16.3252C163.847 16.2011 163.726 16.0921 163.612 15.9934C163.56 15.9478 163.508 15.9025 163.459 15.8566C163.443 15.8423 163.427 15.8275 163.412 15.8131C163.411 15.8125 163.41 15.812 163.41 15.8114C163.327 15.7347 163.239 15.6532 163.149 15.5697C163.123 15.5461 163.097 15.5226 163.072 15.4989C162.981 15.4155 162.887 15.3306 162.79 15.2439C162.773 15.2284 162.756 15.213 162.738 15.1976C162.636 15.1067 162.532 15.0154 162.426 14.9242C162.416 14.9158 162.406 14.9069 162.396 14.8984C162.384 14.8886 162.373 14.8789 162.361 14.869C161.808 14.398 161.146 13.8744 160.38 13.4872C158.808 12.6924 156.887 12.5075 155.485 12.3724C155.477 12.3716 155.468 12.371 155.46 12.3701C155.458 12.37 155.456 12.3698 155.454 12.3695C155.444 12.3686 155.433 12.3678 155.423 12.3668C153.897 12.2215 152.248 12.1348 150.238 12.0948C150.238 12.0948 150.237 12.0948 150.238 12.0948C149.415 12.0738 148.58 12.0593 147.743 12.0531C147.695 12.0527 147.646 12.0527 147.599 12.0524C146.659 12.0426 145.723 12.0403 144.785 12.0531L144.532 12.0566C144.276 12.0602 144.018 12.0639 143.76 12.0676C143.748 12.0677 143.736 12.0678 143.724 12.0679C143.712 12.0681 143.701 12.0684 143.689 12.0685C142.204 12.0897 140.688 12.116 139.191 12.1746C139.172 12.1754 139.152 12.1762 139.133 12.1769C138.318 12.2024 137.482 12.237 136.602 12.2815C135.642 12.3248 134.654 12.3754 133.67 12.4388C133.353 12.4593 133.035 12.4781 132.717 12.4969C131.193 12.5875 129.619 12.6816 128.09 12.9518C128.086 12.9524 128.083 12.9527 128.08 12.9532C128.079 12.9535 128.077 12.9538 128.076 12.9541C128.062 12.9565 128.048 12.9585 128.034 12.961C127.88 12.9886 127.733 13.0183 127.59 13.049C127.57 13.0534 127.55 13.0579 127.53 13.0624C126.757 13.2319 126.123 13.4491 125.569 13.7361C125.529 13.757 125.49 13.7799 125.451 13.8015C125.447 13.8038 125.443 13.8061 125.438 13.8084C125.335 13.8655 125.234 13.925 125.136 13.9869C125.115 14.0001 125.094 14.0133 125.073 14.0268C125.048 14.0429 125.022 14.0581 124.997 14.0745C124.97 14.0933 124.941 14.115 124.913 14.1373C124.896 14.1494 124.878 14.1611 124.861 14.1734C124.811 14.177 124.725 14.1692 124.664 14.1635C124.602 14.1578 124.541 14.1526 124.487 14.1515L108.142 13.8216C108.131 13.8216 108.117 13.8221 108.105 13.8223L107.813 13.8155C107.764 13.7169 107.714 13.6185 107.665 13.5214L107.62 13.4327C107.826 12.5714 107.667 11.683 107.398 10.9235C107.244 10.473 107.035 10.0291 106.777 9.60771C106.773 9.60036 106.768 9.59317 106.764 9.58582C106.716 9.50947 106.67 9.43259 106.62 9.35784C106.333 8.93072 105.973 8.51809 105.549 8.12205C105.519 8.09403 105.488 8.06637 105.458 8.03852C105.375 7.96359 105.29 7.8893 105.202 7.81567C105.155 7.77558 105.108 7.73532 105.059 7.6957C104.973 7.62619 104.884 7.55767 104.794 7.48939C104.718 7.43164 104.64 7.37448 104.561 7.3178C104.481 7.25993 104.401 7.20178 104.317 7.1448C104.293 7.12873 104.268 7.11271 104.244 7.09659C104.232 7.08893 104.222 7.08087 104.21 7.07322C104.18 7.05309 104.148 7.03248 104.116 7.012C104.05 6.96885 103.982 6.92659 103.914 6.88427C103.897 6.87355 103.88 6.8629 103.862 6.85218C103.806 6.81816 103.75 6.78484 103.693 6.75194C103.689 6.74994 103.686 6.74806 103.682 6.74605C103.591 6.69384 103.499 6.64357 103.404 6.59554C102.664 6.21393 101.803 5.95469 101.042 6.30116C100.345 6.61838 100.2 7.29313 100.227 7.92121C100.228 7.9321 100.228 7.94287 100.229 7.9537C100.233 8.04117 100.241 8.12735 100.251 8.21153C100.256 8.25355 100.261 8.29423 100.268 8.33538C100.274 8.37746 100.28 8.41808 100.287 8.45858C100.301 8.53422 100.314 8.60733 100.329 8.67902C100.334 8.7008 100.338 8.72176 100.343 8.74265C100.35 8.77462 100.357 8.80864 100.364 8.8396C100.393 8.96875 100.425 9.09731 100.455 9.22622C100.545 9.60559 100.635 9.98521 100.723 10.3651C100.882 11.046 101.046 11.7412 101.216 12.4359C101.317 12.8543 101.422 13.2739 101.534 13.6915C101.537 13.7035 101.54 13.7156 101.543 13.7276C101.544 13.7302 101.545 13.7328 101.545 13.7354C101.524 13.7352 101.503 13.7352 101.48 13.7349L89.3566 13.6911C88.5088 13.6879 87.6625 13.6921 86.8151 13.6963L86.6616 13.697L73.4187 13.7583C73.4174 13.7583 73.4161 13.7584 73.4148 13.7584L73.145 13.7597C73.1491 13.6262 73.1261 13.4941 73.0695 13.3679C73.0114 13.238 72.9251 13.1248 72.824 13.0253C72.8199 13.021 72.8168 13.0156 72.8126 13.0114C72.5472 12.7417 72.2024 12.5978 71.8576 12.491C71.8566 12.4907 71.8553 12.4902 71.8543 12.4899C71.851 12.4889 71.8476 12.4881 71.8443 12.487C71.8058 12.4752 71.7672 12.4635 71.7288 12.4524C71.7098 12.447 71.6903 12.4428 71.6713 12.4375C71.5492 12.4026 71.4264 12.3706 71.3028 12.3418C71.298 12.3406 71.2931 12.3395 71.2882 12.3383C71.1624 12.3091 71.0361 12.2826 70.9093 12.2589C70.8776 12.2528 70.846 12.2465 70.8142 12.2407C70.7556 12.2303 70.697 12.2207 70.6383 12.2113C69.8309 12.0765 69.0217 12.0261 68.2966 11.9994C68.2709 11.9985 68.2439 11.999 68.2181 11.9981C68.118 11.9949 68.0162 11.9949 67.9152 11.9932C67.7677 11.9906 67.6213 11.9868 67.4706 11.9876C66.9758 11.9898 66.4725 12.0091 65.9642 12.0458C65.9392 12.0476 65.9132 12.0501 65.8881 12.052C65.8631 12.0538 65.8372 12.0561 65.8121 12.0581C65.1163 12.1105 64.391 12.1819 63.6707 12.3116C63.5386 12.3348 63.4104 12.3592 63.2854 12.3851C63.1771 12.4074 63.0632 12.4332 62.9475 12.4615C62.4982 12.5697 61.8406 12.7605 61.5108 13.3217C61.4145 13.4855 61.3389 13.684 61.2997 13.8887L45.2673 14.0533C44.3743 13.4855 43.272 13.2238 42.1953 13.0183C41.7996 12.9403 41.4016 12.8736 41.0014 12.8161C40.9753 12.8122 40.9492 12.8081 40.9231 12.8044C40.8617 12.7957 40.8002 12.7874 40.7386 12.7791C39.7186 12.6376 38.7473 12.5509 37.9533 12.4894C37.9095 12.486 37.8619 12.4824 37.817 12.479C36.7456 12.3899 35.6954 12.3239 34.6787 12.2822C34.509 12.2747 34.339 12.2681 34.1683 12.262C34.1246 12.2605 34.0796 12.2582 34.036 12.2568L33.5032 12.2393C33.2471 12.2309 32.9911 12.2224 32.7351 12.2139C31.8008 12.1824 30.8663 12.1508 29.9318 12.1294L24.5804 12.0083C24.214 12.0001 23.8476 11.9907 23.4813 11.9813C22.6094 11.9589 21.7078 11.9358 20.8197 11.929L20.7952 11.9288C20.6766 11.9279 20.5559 11.9271 20.4367 11.9262C20.0095 11.921 19.5837 11.917 19.1562 11.9161C18.3322 11.9145 17.4222 11.9169 16.4786 11.9348C16.4646 11.9351 16.4505 11.9351 16.4364 11.9354C16.4163 11.9358 16.3951 11.9363 16.3749 11.9367C16.2828 11.9386 16.1907 11.9406 16.098 11.9428C15.4725 11.9568 14.8053 11.9777 14.1175 12.0169C13.0883 12.069 11.9718 12.138 10.8926 12.3624C10.4391 12.4441 9.98723 12.5625 9.56529 12.7507C9.53822 12.7629 9.51155 12.7757 9.48465 12.7884C9.38776 12.8343 9.29311 12.8846 9.20027 12.939C9.16643 12.9588 9.1331 12.9791 9.09979 13C9.06354 13.0229 9.02539 13.0421 8.98996 13.0665C8.95958 13.0874 8.93233 13.1119 8.9026 13.1336C8.81842 13.1932 8.73685 13.2563 8.65643 13.3224C8.63995 13.3363 8.62341 13.3499 8.6071 13.3639C8.10818 13.7875 7.68813 14.3302 7.41759 14.9412C7.27019 15.2734 7.16376 15.6301 7.10091 16.0007C7.0999 16.0066 7.09959 16.0133 7.09866 16.0191C7.09866 16.019 7.0986 16.0193 7.09866 16.0191C7.0757 16.1565 7.05829 16.2986 7.04668 16.4434C7.04597 16.4519 7.04434 16.4594 7.04367 16.4679C7.03992 16.5173 7.03944 16.5668 7.03897 16.615C7.03892 16.6227 7.03892 16.6313 7.03886 16.6397C7.03761 16.6684 7.03633 16.6968 7.03545 16.7256C7.02679 16.735 7.0173 16.7458 7.00861 16.7552C6.54346 17.2096 6.16238 17.7235 5.84816 18.2298C5.84392 18.2366 5.83932 18.2425 5.8351 18.2493C5.82832 18.2603 5.82243 18.2716 5.81572 18.2825C5.73149 18.4201 5.65208 18.5556 5.57762 18.6899C5.54689 18.7445 5.51616 18.799 5.48627 18.854C5.46425 18.8953 5.444 18.9348 5.42281 18.9755C4.79085 20.1671 4.35266 21.4168 4.0042 22.5172C3.98784 22.569 3.97388 22.6213 3.95775 22.6731C3.86652 22.9683 3.78081 23.2567 3.70058 23.5366C3.67061 23.6415 3.64018 23.7459 3.6111 23.8509C3.60657 23.867 3.60156 23.884 3.59711 23.9C3.27252 25.0572 3.00174 26.2106 2.77165 27.263C2.77077 27.2668 2.76982 27.2708 2.769 27.2745C2.57475 28.1397 2.39845 29.0048 2.22916 29.8748C2.09547 30.551 1.97174 31.2045 1.85725 31.841C1.84376 31.9141 1.83012 31.9863 1.81659 32.0595C1.58742 33.2978 1.38924 34.6209 1.22253 35.9937C1.20741 36.1155 1.19244 36.2383 1.17761 36.3618C1.17061 36.4224 1.16255 36.4814 1.15567 36.5421C1.15359 36.5601 1.15184 36.5784 1.14984 36.5963C1.11999 36.8513 1.09048 37.1088 1.06195 37.3718C0.915541 38.7165 0.801939 40.0565 0.720488 41.3638C0.716353 41.4247 0.711363 41.4855 0.707365 41.5464C0.598112 43.1998 0.533583 44.86 0.480147 46.4078C0.47296 46.6156 0.466368 46.8265 0.460005 47.0392C0.431517 47.964 0.414213 48.8676 0.402739 49.7119C0.402037 49.7644 0.40132 49.8181 0.400618 49.8712C0.399427 49.9632 0.398252 50.0545 0.3972 50.1449C0.393614 50.4388 0.390318 50.7381 0.387602 51.0498C0.373014 52.7114 0.372953 54.2366 0.387541 55.7111C0.387541 55.7153 0.387602 55.7192 0.387602 55.7234C0.387663 55.7282 0.387724 55.7327 0.387724 55.7374C0.387892 55.7524 0.387953 55.7678 0.388075 55.7827C0.388197 55.7926 0.388303 55.8019 0.388426 55.8118C0.40138 57.3967 0.427457 58.7845 0.468366 60.0492C0.472776 60.1871 0.478254 60.3247 0.482969 60.4626C0.485075 60.5274 0.487089 60.5932 0.489316 60.6576C0.538541 62.0892 0.60069 63.7545 0.717954 65.402C0.719419 65.4225 0.720945 65.4424 0.72241 65.4628C0.804715 66.7435 0.915677 68.0599 1.05653 69.3883C1.10751 69.8692 1.1635 70.3427 1.22175 70.8121C1.36073 71.9704 1.54074 73.1734 1.75807 74.4019C1.95097 75.5123 2.16847 76.6556 2.40757 77.8167C2.41446 77.8507 2.42158 77.8852 2.42859 77.9194C2.45324 78.0386 2.47668 78.1569 2.50175 78.2764C2.50923 78.3121 2.5173 78.3498 2.52484 78.3857C2.55261 78.5188 2.58104 78.6526 2.6096 78.7868C2.61041 78.7908 2.61123 78.7947 2.61207 78.7987C2.64732 78.9643 2.68293 79.13 2.71931 79.2966C2.85794 79.9342 3.01063 80.6064 3.17775 81.2908C3.19845 81.3761 3.21919 81.4612 3.24049 81.5473C3.25345 81.5994 3.26663 81.6516 3.27975 81.7038C3.45935 82.4216 3.65925 83.1629 3.88505 83.9005C4.09567 84.5969 4.30629 85.2202 4.52554 85.7986C4.76989 86.4542 5.04696 87.1106 5.37925 87.7483C5.60746 88.1933 5.88795 88.6738 6.22725 89.139C6.23996 89.1566 6.25302 89.1723 6.26574 89.1896C6.34896 89.3019 6.43356 89.4136 6.52415 89.5229C6.52681 89.5261 6.52938 89.5299 6.53204 89.5331C6.62764 89.6489 6.72723 89.7617 6.83036 89.8712C6.83259 89.8736 6.83566 89.8761 6.83801 89.8785C6.90075 89.9447 6.9692 90.0063 7.0352 90.0702C7.04203 90.3158 7.06062 90.5561 7.09854 90.7829C7.10325 90.8112 7.11172 90.8386 7.11703 90.8668C7.12126 90.8937 7.12274 90.9197 7.12822 90.9467C7.20568 91.3301 7.32998 91.695 7.4974 92.031C7.77334 92.5858 8.16446 93.0717 8.62547 93.456C8.74173 93.5551 8.86328 93.6487 8.98996 93.7362C9.63487 94.1815 10.4114 94.3706 11.1694 94.4872C11.173 94.4878 11.1764 94.4883 11.1799 94.4889C11.1892 94.4904 11.1986 94.4921 11.2079 94.4935C12.1468 94.6613 13.1128 94.7343 14.0963 94.7849C14.5317 94.8097 14.98 94.8281 15.4467 94.8424C16.5777 94.88 17.8 94.8944 19.2242 94.8864C19.4892 94.885 19.7528 94.8821 20.0164 94.8794C20.2767 94.8777 20.5376 94.8759 20.7952 94.8739L20.8197 94.8737C21.7078 94.8668 22.6094 94.8438 23.4813 94.8214C23.8207 94.8127 24.16 94.8041 24.4994 94.7963L29.8049 94.6764C29.8177 94.6761 29.8308 94.6756 29.8437 94.6753L29.9318 94.6733C30.4343 94.6618 30.9368 94.6472 31.4394 94.6314C32.3295 94.6047 33.2256 94.5753 34.1372 94.5431C34.2016 94.5408 34.2676 94.5372 34.3321 94.5348C34.5434 94.5267 34.7538 94.5178 34.9626 94.5078C35.8495 94.4665 36.7609 94.4084 37.7135 94.3316C37.7938 94.3255 37.8763 94.3193 37.9533 94.3133C38.6066 94.2627 39.3802 94.1947 40.2001 94.094C40.9028 94.011 41.631 93.9032 42.3594 93.7526C43.4074 93.5475 44.4084 93.2936 45.2472 92.7639C45.2493 92.7626 45.2514 92.7615 45.2536 92.7602C45.2592 92.7568 45.2636 92.7533 45.269 92.7499L61.2997 92.9143C61.3089 92.9621 61.3206 93.0087 61.3337 93.0554C61.3359 93.0636 61.3381 93.0717 61.3404 93.0799C61.3521 93.1195 61.3647 93.1581 61.3789 93.1965C61.3854 93.2139 61.3922 93.2311 61.3993 93.2483C61.4325 93.3303 61.4689 93.4095 61.5108 93.4807C61.5691 93.58 61.6402 93.6639 61.7162 93.7416C61.7319 93.7581 61.749 93.7732 61.7654 93.7889C61.8112 93.8317 61.8582 93.8719 61.9079 93.9084C61.9272 93.9225 61.9454 93.938 61.9654 93.9512C61.9717 93.9553 61.9785 93.9583 61.9848 93.9624C62.0459 94.0025 62.1082 94.0386 62.1723 94.0712C62.8093 94.4128 63.5786 94.5054 64.2668 94.5857L64.3089 94.5908C64.6672 94.6395 65.0234 94.6788 65.375 94.7094C65.4689 94.7181 65.5608 94.7242 65.654 94.7319C65.7573 94.7401 65.8623 94.7495 65.9642 94.7569C65.9925 94.759 66.0204 94.7596 66.0487 94.7615C66.2294 94.7737 66.4078 94.783 66.5854 94.791C66.6887 94.7956 66.7917 94.8001 66.8945 94.8033C67.0617 94.8086 67.2266 94.8112 67.3906 94.8126C67.4472 94.813 67.5049 94.8158 67.5613 94.8158C67.6076 94.8158 67.6529 94.8138 67.699 94.8135C67.768 94.813 67.8393 94.8153 67.9076 94.8141C68.6445 94.8016 69.3178 94.7578 69.9422 94.6838C70.4902 94.6252 71.0424 94.5376 71.5801 94.3912C71.6661 94.369 71.7547 94.3435 71.8442 94.3156C71.8476 94.3145 71.8511 94.3137 71.8546 94.3126C71.8916 94.3009 71.9332 94.2866 71.9755 94.2715C72.3943 94.1264 72.8084 93.9091 73.0154 93.5598C73.1015 93.4146 73.1437 93.256 73.1454 93.0919C73.1459 93.0763 73.1473 93.061 73.1469 93.0454C73.1469 93.0447 73.147 93.0441 73.147 93.0434L74.1072 93.0478L86.4984 93.1059C87.0285 93.1093 87.5587 93.1097 88.0889 93.1108C88.2977 93.1114 88.5066 93.1129 88.7155 93.1129C88.7273 93.1129 88.739 93.1129 88.7508 93.1129C88.8082 93.1128 88.8657 93.1136 88.9232 93.1134L99.6846 93.0734C99.6923 93.0734 99.6999 93.0731 99.7076 93.0731L101.545 93.0663C101.537 93.0982 101.529 93.1305 101.52 93.1626C101.486 93.2898 101.453 93.4168 101.42 93.5444C101.112 94.7196 100.836 95.9085 100.57 97.0672L100.385 97.8748C100.378 97.9042 100.37 97.9335 100.364 97.9628C100.358 97.9887 100.352 98.0173 100.346 98.0439C100.336 98.0911 100.326 98.1387 100.316 98.1871C100.31 98.2147 100.305 98.2415 100.3 98.2696C100.218 98.6928 100.175 99.1533 100.3 99.6054C100.452 100.152 100.879 100.513 101.455 100.616C101.468 100.618 101.481 100.622 101.494 100.624C101.581 100.637 101.67 100.645 101.763 100.647C101.775 100.647 101.786 100.65 101.798 100.65C101.813 100.65 101.829 100.649 101.844 100.649ZM28.2977 87.0161C26.5502 86.7884 25.21 86.5913 23.9526 86.3768C22.4123 86.1143 21.1502 85.8435 19.9805 85.5245C19.0177 85.2619 17.7823 84.8725 16.7649 84.1861C16.3272 83.8907 15.933 83.5283 15.5813 83.106L27.2557 78.8351C27.5379 78.9561 27.8125 79.0589 28.0637 79.1455C29.0276 79.4775 30.0187 79.7396 31.0085 79.9244C32.1679 80.141 33.3146 80.2601 34.1839 80.3397C35.1123 80.4247 36.1337 80.4909 37.3985 80.5481C38.4755 80.5966 39.549 80.6263 40.5487 80.651C41.5616 80.676 42.5663 80.6899 43.5919 80.7033C43.9362 80.7078 44.2804 80.7129 44.6246 80.7181C45.3037 80.7287 45.9828 80.7391 46.6616 80.7431C46.7788 80.7438 46.8961 80.744 47.0136 80.744C47.1301 80.744 47.2467 80.7438 47.3632 80.7435L60.2049 80.7427L60.2049 88.6069L59.8073 88.6051C59.3856 88.6049 58.9636 88.6047 58.5422 88.5964C57.2648 88.572 55.9875 88.5463 54.7099 88.5206L53.2727 88.4917C52.2072 88.4707 51.0985 88.4417 49.8826 88.4034C49.4355 88.389 48.9881 88.3765 48.5407 88.3638C47.597 88.3374 46.6213 88.3099 45.664 88.2661L40.4037 88.025C39.4373 87.9807 38.4536 87.9167 37.5024 87.8548C37.0845 87.8277 36.6663 87.8004 36.2481 87.7747C34.8836 87.6906 33.4897 87.564 32.26 87.4521C30.912 87.3297 29.5788 87.1828 28.2977 87.0161ZM10.7478 61.1C10.6822 59.6011 10.6492 58.0671 10.6233 56.7469C10.5991 55.4959 10.5915 54.2087 10.6007 52.921L10.6059 52.0849C10.6129 50.9046 10.6203 49.6842 10.6546 48.4862C10.6972 47.0111 10.7422 45.568 10.8249 44.1324C10.9023 42.7915 10.9944 41.3484 11.1418 39.8801C11.2988 38.3157 11.4787 36.92 11.6913 35.6132C11.9228 34.1922 12.1957 32.9031 12.5255 31.6719C12.8509 30.457 13.2413 29.141 13.7188 27.6489C13.785 27.4422 13.8538 27.2292 13.9249 27.0143L24.2515 30.8185C24.1611 31.0063 24.0799 31.1896 24.008 31.3616C23.6035 32.3298 23.2778 33.35 22.9788 34.3118C22.6781 35.2795 22.4264 36.2852 22.2308 37.3009C22.0415 38.283 21.8863 39.3185 21.7558 40.4673C21.6367 41.5165 21.5416 42.5685 21.4731 43.5939C21.401 44.6777 21.3422 45.8039 21.2981 46.9409C21.2567 48.0127 21.2348 49.0946 21.2174 50.104C21.1992 51.1433 21.1893 52.2455 21.1882 53.3806C21.1875 54.4336 21.195 55.406 21.2115 56.3535C21.2308 57.4599 21.2543 58.6452 21.2965 59.8168C21.3356 60.9048 21.3982 61.9731 21.4644 63.0628C21.5213 64.0043 21.6073 64.9996 21.7198 66.0205C21.8564 67.255 22.0005 68.2642 22.1736 69.1964C22.3758 70.2858 22.615 71.2839 22.9049 72.2476C23.1542 73.0764 23.4952 74.1645 23.9234 75.2337C24.0209 75.4767 24.1298 75.7298 24.2518 75.9839L13.916 79.7729C13.7164 79.1844 13.5352 78.5894 13.3574 78.0043L13.2842 77.7639C12.9143 76.5499 12.4938 75.1376 12.1853 73.7413C11.9098 72.4925 11.6675 71.1191 11.445 69.5422C11.2767 68.3497 11.1408 67.0728 11.0175 65.5237C10.9037 64.0903 10.8128 62.602 10.7478 61.1ZM17.8075 22.0385C18.896 21.5405 20.0502 21.2297 21.4486 20.9161C22.9319 20.5831 24.3939 20.3446 25.6284 20.1551C27.1273 19.9253 28.6107 19.744 29.864 19.5973C31.0992 19.4523 32.3942 19.3251 33.8225 19.2083C35.2799 19.0892 36.7291 18.9976 38.3368 18.8987C39.5122 18.8264 40.7644 18.7605 42.2779 18.691C42.6591 18.6736 43.0403 18.655 43.4212 18.6366C44.352 18.5914 45.3143 18.5446 46.2597 18.5144L51.5155 18.3466C52.4229 18.3176 53.3476 18.3025 54.2416 18.2879C54.6734 18.2809 55.1052 18.2738 55.5366 18.2653C55.8844 18.2585 56.2321 18.25 56.5799 18.2416C57.3051 18.2241 58.055 18.2062 58.7908 18.2029L60.2049 18.1966L60.2049 26.0602L47.4638 26.0594C47.2024 26.0589 46.9418 26.0584 46.6813 26.0598C46.0703 26.0627 45.4591 26.0723 44.8481 26.0817L43.4106 26.1017C42.5746 26.1121 41.7384 26.1225 40.9026 26.1432C39.8833 26.1684 38.6775 26.2011 37.4621 26.252C36.4077 26.296 35.3425 26.3636 34.2962 26.4533C33.126 26.5531 32.1552 26.6748 31.2412 26.8359C30.2494 27.0106 29.2615 27.2597 28.3046 27.5759C27.9682 27.6871 27.6124 27.8142 27.2554 27.9673L15.5863 23.6798C16.1661 23.001 16.909 22.4496 17.8075 22.0385ZM80.9132 18.1038L103.184 18.1038C103.993 18.1043 104.801 18.1081 105.61 18.1118L107.736 18.1196C108.858 18.1222 110.018 18.125 111.157 18.1481C112.213 18.1694 113.145 18.2069 114.04 18.2959C113.239 18.6198 112.439 18.9434 111.64 19.2698C110.029 19.9274 108.382 20.6321 106.746 21.3644C104.811 22.2304 102.931 23.0943 101.159 23.9318C99.5024 24.7144 97.8367 25.541 96.2234 26.3418C96.004 26.3277 95.7863 26.3156 95.5719 26.3047C94.6275 26.2567 93.6692 26.2334 92.7425 26.211L92.2014 26.1976C91.5452 26.1809 90.8894 26.1726 90.233 26.1658L81.1508 26.0709C80.8094 26.0667 80.4682 26.0624 80.127 26.0612C79.8558 26.0603 79.5843 26.0608 79.3131 26.0608L78.9076 26.0612L64.2074 26.0604L64.2075 19.8711C64.2075 19.7635 64.2108 19.6545 64.214 19.545C64.2268 19.1147 64.24 18.6336 64.0592 18.1794L80.9092 18.1038L80.9132 17.7422L80.9132 18.1038ZM115.079 84.4506C113.971 84.0286 112.883 83.5909 111.872 83.181C110.482 82.6175 109.341 82.1469 108.281 81.6997C107.095 81.1999 106.194 80.8128 105.359 80.4443L101.613 78.7915C102.126 78.4031 102.619 77.9314 103.106 77.3605C103.689 76.6758 104.246 75.8828 104.858 74.8647C105.433 73.9069 105.899 73.006 106.28 72.1099C106.667 71.2006 107 70.2387 107.297 69.1698C107.561 68.2221 107.784 67.2305 107.979 66.1385C108.161 65.1242 108.314 64.051 108.448 62.8577C108.558 61.8796 108.646 60.8643 108.708 59.8399C108.784 58.6178 108.83 57.6099 108.855 56.668C108.88 55.6878 108.895 54.6504 108.901 53.403L108.901 53.4011C108.901 52.4204 108.889 51.4358 108.864 50.4742C108.833 49.3157 108.79 48.28 108.73 47.3082C108.659 46.1474 108.57 45.0775 108.459 44.0375C108.347 42.9919 108.199 41.933 108.02 40.8904C107.84 39.8431 107.616 38.8175 107.354 37.8422C107.073 36.7971 106.743 35.8105 106.371 34.9099C106 34.0126 105.538 33.091 104.997 32.1711C104.389 31.1374 103.831 30.3225 103.243 29.6063C102.713 28.9615 102.176 28.4362 101.614 28.0109L105.359 26.3584C106.202 25.9864 107.104 25.5991 108.281 25.1027C109.344 24.6546 110.485 24.184 111.872 23.6217C112.883 23.2118 113.971 22.7741 115.079 22.3521C116.23 21.9138 118.453 21.2559 119.796 20.7708C120.298 21.2661 120.734 21.7806 121.099 22.2349C121.887 23.2163 122.618 24.3271 123.273 25.5367C123.876 26.6527 124.459 27.8914 125.057 29.3237C125.538 30.4765 126.001 31.7232 126.561 33.3662C127.025 34.7276 127.429 36.0711 127.764 37.3598C128.098 38.643 128.385 40.0122 128.619 41.4294C128.84 42.7677 129.021 44.1635 129.155 45.5781C129.277 46.8569 129.368 48.2564 129.433 49.8573C129.486 51.1344 129.505 52.4595 129.493 53.9085C129.48 55.5327 129.439 56.9788 129.369 58.3296C129.297 59.725 129.186 61.0826 129.038 62.3651C128.862 63.881 128.654 65.2666 128.4 66.6012C128.138 67.9793 127.815 69.3381 127.44 70.6397C127.072 71.9163 126.638 73.2556 126.113 74.734C125.627 76.103 125.102 77.421 124.553 78.6515C123.929 80.0518 123.319 81.2434 122.688 82.294C122.006 83.4315 121.216 84.496 120.341 85.4578C120.13 85.6905 119.922 85.9027 119.716 86.1021C118.366 85.6119 116.206 84.8801 115.079 84.4506ZM64.214 87.2576C64.2108 87.1482 64.2074 87.0391 64.2074 86.9315L64.2074 80.7425L76.0127 80.7417L79.1998 80.7419L80.0908 80.7417C80.3813 80.7412 80.6719 80.7377 80.9627 80.7339L90.3267 80.6364C90.8482 80.6312 91.3695 80.6263 91.8908 80.6131L92.5471 80.5969C93.4583 80.575 94.4003 80.5521 95.328 80.5095C95.6212 80.4961 95.9204 80.4797 96.2219 80.4602L96.5663 80.6315C98.5229 81.6032 100.326 82.4781 102.079 83.3065C103.74 84.0905 105.424 84.8588 107.085 85.5901C108.833 86.3591 110.67 87.1371 112.545 87.9026C113.043 88.1057 113.543 88.304 114.043 88.5027C114.007 88.506 113.97 88.5101 113.935 88.5133C112.841 88.6132 111.648 88.664 110.18 88.673C108.998 88.6807 107.817 88.684 106.635 88.6873L104.58 88.6939C103.963 88.6965 103.348 88.6989 102.732 88.6989L81.6961 88.6991C81.3681 88.6991 81.0397 88.6993 80.7112 88.6979L71.7272 88.6574L64.0589 88.6238C64.24 88.1696 64.2269 87.6882 64.214 87.2576ZM164.519 86.0144C163.997 86.7298 163.383 87.3092 162.693 87.7366C161.725 88.3349 160.676 88.5741 159.74 88.4118C158.916 88.2682 158.168 87.7834 157.688 87.0818C157.118 86.2487 156.892 85.1188 157.053 83.8998L157.053 83.8921C157.073 83.7786 157.205 83.1341 157.223 83.0639C157.472 82.1534 157.919 81.2733 158.518 80.5182C159.077 79.8121 159.727 79.2559 160.448 78.8653C161.46 78.3174 162.528 78.1627 163.455 78.4302C164.277 78.6678 164.985 79.2611 165.394 80.0577C165.859 80.9609 165.979 82.1148 165.732 83.3074C165.534 84.2617 165.114 85.1979 164.519 86.0144ZM165.732 23.4953C165.979 24.6878 165.859 25.8418 165.394 26.7448C164.985 27.5416 164.277 28.1349 163.455 28.3725C162.528 28.64 161.461 28.4855 160.448 27.9371C159.727 27.5467 159.077 26.9908 158.518 26.2845C157.919 25.5294 157.472 24.6492 157.223 23.7401C157.205 23.6686 157.073 23.0244 157.053 22.9109L157.053 22.9029C156.892 21.6839 157.118 20.5537 157.688 19.7207C158.168 19.0193 158.916 18.5345 159.74 18.3908C160.677 18.2288 161.725 18.4678 162.693 19.0661C163.383 19.4937 163.998 20.0729 164.519 20.7882C165.114 21.6048 165.534 22.541 165.732 23.4953ZM9.77684 18.6906L9.91083 18.7179C10.6791 18.8733 11.5496 19.0496 12.0991 19.5295C12.3301 19.7313 12.4434 20.0183 12.4549 20.4325C12.4641 20.7673 12.4128 21.1289 12.283 21.6229C12.1801 22.0164 12.0737 22.4232 11.8766 22.7451C11.5915 23.2118 11.0243 23.4948 10.4757 23.7684C10.2944 23.8588 10.1067 23.9525 9.93225 24.0514C9.05789 24.5475 8.24016 25.1023 7.50818 25.6308C7.72963 24.5653 8.00134 23.3291 8.35257 22.0929C8.73614 20.7425 9.12888 19.6486 9.58643 18.6538C9.64989 18.6661 9.71338 18.6776 9.77684 18.6906ZM9.93225 82.7513C10.1065 82.8502 10.2937 82.9434 10.4747 83.0338C11.0238 83.3074 11.5913 83.5907 11.8769 84.0576C12.0737 84.3794 12.1801 84.7863 12.2877 85.1979C12.4128 85.6737 12.4641 86.0354 12.4549 86.3702C12.4434 86.7844 12.3301 87.0714 12.0991 87.2732C11.5496 87.753 10.6791 87.9294 9.91082 88.0848L9.77684 88.1121C9.7145 88.1249 9.65147 88.1371 9.58731 88.1494C9.36609 87.6679 9.15559 87.1527 8.95416 86.5946C8.57978 85.5577 8.2471 84.4126 7.90757 82.991C7.763 82.3856 7.62777 81.7764 7.5021 81.1676C8.23556 81.6974 9.05548 82.2539 9.93225 82.7513Z" fill="#BFF5F0"/>
<path d="M152.801 98.1064L152.801 103.464C152.801 104.569 151.905 105.464 150.801 105.464L136.407 105.464C135.302 105.464 134.407 104.569 134.407 103.464L134.407 98.1064L152.801 98.1064Z" fill="#A6C9C6"/>
<path d="M35.0801 98.1064L35.0801 103.464C35.0801 104.569 34.1846 105.464 33.0801 105.464L18.686 105.464C17.5814 105.464 16.686 104.569 16.686 103.464L16.686 98.1064L35.0801 98.1064Z" fill="#FF7676"/>
<path d="M152.801 7.97559L152.801 2.61795C152.801 1.51338 151.905 0.617948 150.801 0.617948L136.407 0.617948C135.302 0.617948 134.407 1.51338 134.407 2.61795L134.407 7.97559L152.801 7.97559Z" fill="#A6C9C6"/>
<path d="M35.0801 7.97559L35.0801 2.61795C35.0801 1.51338 34.1846 0.617948 33.0801 0.617948L18.686 0.617948C17.5814 0.617948 16.686 1.51338 16.686 2.61795L16.686 7.97559L35.0801 7.97559Z" fill="#A6C9C6"/>
</svg>
