<svg width="11.5" height="12.5" viewBox="0 0 23 25" fill="none" xmlns="http://www.w3.org/2000/svg">
<path d="M1.25584 24.8098C0.441528 24.4392 -0.121589 23.417 0.0225358 22.5666C0.146072 21.8347 0.485795 21.3869 1.35775 20.8114C2.44281 20.0939 2.60444 19.9291 2.99151 19.1426L3.32197 18.4725L3.37345 10.2336C3.42492 2.02571 3.42595 1.99483 3.64831 1.57893C3.92833 1.05596 4.43482 0.551518 4.96912 0.262239C5.3737 0.0439919 5.47047 0.039874 10.7743 0.0110489C16.8368 -0.021894 16.7678 -0.0291002 17.6151 0.716233C17.8694 0.939627 18.1854 1.34215 18.3182 1.61084L18.5581 2.0988L18.6095 10.2831L18.661 18.4673L18.939 19.0335C19.3034 19.7747 19.815 20.2586 20.8229 20.8135C21.4838 21.1769 21.7072 21.3642 21.9553 21.7637C22.5987 22.7993 22.2405 24.2117 21.1925 24.7645C20.5686 25.095 19.6864 25.0796 17.6274 24.7059C14.4999 24.1376 13.4704 24.0336 10.9915 24.0336C8.48886 24.0347 7.83618 24.1016 4.98971 24.6503C2.89166 25.0559 1.89102 25.0981 1.25584 24.8098ZM4.19702 23.9708C4.70866 23.8627 4.84352 23.7701 5.59503 23.0124C6.21065 22.3916 6.52464 21.9726 6.80363 21.4013C7.57984 19.8118 7.54278 20.3728 7.54278 10.0772V0.863446H6.60803C5.74739 0.863446 5.63312 0.888154 5.17604 1.17229C4.68293 1.47907 4.33497 1.97012 4.27732 2.43956C4.25158 2.65163 4.36379 2.72678 5.27796 3.11283C6.06962 3.44638 6.31463 3.59668 6.33831 3.76242C6.38978 4.11759 6.14168 4.10215 5.1431 3.68624L4.19084 3.2899L4.21967 4.44084L4.24849 5.59178L5.27796 6.02313C6.07065 6.35462 6.31463 6.50389 6.34037 6.67066C6.3939 7.02171 6.15197 7.01244 5.24399 6.62948C4.77249 6.4308 4.34423 6.26814 4.29173 6.26814C4.23923 6.26814 4.19702 6.76846 4.19702 7.37996V8.49076L5.27796 8.93549C6.12212 9.28139 6.3589 9.42242 6.3589 9.57684C6.3589 9.90936 6.08815 9.90627 5.27178 9.56655C4.84249 9.38742 4.42453 9.2155 4.3432 9.18462C4.22275 9.13829 4.19702 9.32257 4.19702 10.2583V11.3877L5.25222 11.8406C6.09741 12.203 6.3136 12.3389 6.34037 12.5232C6.38052 12.8042 6.14786 12.8269 5.594 12.5963C5.38605 12.5088 4.98559 12.3471 4.70352 12.236L4.18981 12.0331L4.21967 13.1831L4.24849 14.3319L5.27796 14.754C6.08094 15.0824 6.31463 15.2224 6.33831 15.3923C6.38875 15.7444 6.13962 15.7392 5.27178 15.3738C4.8219 15.1843 4.39674 15.0268 4.3257 15.0237C4.22996 15.0196 4.19702 15.3048 4.19805 16.1253L4.19908 17.2319L5.25325 17.6592C6.07476 17.9917 6.31463 18.1338 6.34037 18.3026C6.39493 18.6639 6.10874 18.6557 5.22957 18.2696C4.7694 18.0668 4.35762 17.9011 4.31541 17.9011C4.2732 17.9011 4.18158 18.177 4.11157 18.5147C4.04157 18.8513 3.84906 19.3856 3.68229 19.7016L3.38065 20.2771L3.60816 20.3646C4.64278 20.7651 4.71175 20.8073 4.71175 21.0523C4.71175 21.3735 4.49042 21.3714 3.74405 21.041C3.42389 20.8989 3.11093 20.7836 3.05019 20.7836C2.92872 20.7836 1.52041 21.6957 1.52041 21.774C1.52041 21.8007 1.7788 22.0632 2.09382 22.3577C2.51899 22.754 2.64973 22.9414 2.59826 23.0742C2.48193 23.3717 2.23897 23.2821 1.65115 22.7262C1.02626 22.1353 0.893464 22.1549 0.884198 22.8384C0.876992 23.3552 1.12098 23.7371 1.63056 24.0079C1.91778 24.1603 2.13706 24.186 2.80724 24.1428C3.26021 24.1129 3.88509 24.0357 4.19702 23.9708ZM20.7611 24.0316C20.9197 23.9492 21.1276 23.7629 21.2234 23.6177C21.4344 23.2945 21.4642 22.5481 21.2769 22.2485C21.1431 22.0334 21.1245 22.0426 20.5007 22.6418C19.8346 23.2811 19.4331 23.4314 19.4331 23.0412C19.4331 22.9136 19.6617 22.6191 19.9993 22.3103C20.3112 22.0251 20.5655 21.7585 20.5655 21.7173C20.5655 21.6762 20.4379 21.5773 20.2824 21.4991C20.127 21.4208 19.8058 21.2273 19.569 21.0698C19.0429 20.7198 18.9874 20.7187 18.2595 21.041C17.5543 21.3529 17.2712 21.3714 17.2712 21.1048C17.2712 20.8608 17.4082 20.7548 18.0207 20.5252C18.2914 20.4243 18.5354 20.3049 18.5632 20.2606C18.591 20.2153 18.4788 19.9662 18.313 19.7058C18.1483 19.4453 17.9527 18.9326 17.8807 18.5661C17.8076 18.2007 17.7201 17.9011 17.6871 17.9011C17.6532 17.9011 17.2362 18.0648 16.7616 18.2655C15.8526 18.6485 15.5881 18.6588 15.6426 18.3077C15.6673 18.1461 15.9237 17.9907 16.705 17.6612L17.7345 17.2268L17.7633 16.1222C17.786 15.2749 17.7623 15.0196 17.6604 15.0237C17.5883 15.0268 17.1611 15.1843 16.7112 15.3738C15.8434 15.7392 15.5942 15.7444 15.6447 15.3923C15.6684 15.2224 15.902 15.0824 16.705 14.754L17.7345 14.3319L17.7633 13.1831L17.7932 12.0331L17.2795 12.236C16.9974 12.3471 16.5969 12.5088 16.389 12.5963C15.8753 12.8104 15.6241 12.7991 15.6241 12.5602C15.6241 12.3018 15.7239 12.238 16.8337 11.7799L17.786 11.3877V10.2686C17.786 9.65405 17.7716 9.15064 17.7541 9.15064C17.7376 9.15064 17.3145 9.31536 16.8152 9.51713C15.8712 9.89804 15.6241 9.91039 15.6241 9.5789C15.6241 9.42654 15.865 9.28344 16.705 8.9396L17.786 8.49693V7.38305C17.786 6.76949 17.7438 6.26814 17.6913 6.26814C17.6388 6.26814 17.2105 6.4308 16.739 6.62948C15.831 7.01244 15.5891 7.02171 15.6426 6.67066C15.6684 6.50389 15.9123 6.35462 16.705 6.02313L17.7345 5.59178L17.7633 4.48819C17.786 3.643 17.7623 3.38667 17.6604 3.38976C17.5883 3.39078 17.159 3.54829 16.7081 3.73771C15.8351 4.10317 15.5942 4.10935 15.6447 3.76242C15.6684 3.59668 15.9082 3.44946 16.6741 3.12827C17.2239 2.89767 17.7026 2.68045 17.7386 2.64442C17.8632 2.51883 17.4051 1.68393 17.0324 1.35759C16.5403 0.925214 16.0523 0.791384 15.1094 0.830504L14.3373 0.863446V10.0772C14.3373 18.5507 14.3517 19.3444 14.5184 19.96C14.8365 21.1336 15.3564 22.0457 16.2212 22.9455L17.0139 23.7691L18.1463 23.9657C19.5361 24.2076 20.3792 24.2292 20.7611 24.0316ZM9.31861 23.2029L10.4768 23.1287V11.9704V0.811973H9.45038H8.424L8.39518 10.2573L8.36635 19.7027L8.0256 20.6796C7.68382 21.6576 7.31012 22.3618 6.7573 23.0628C6.59464 23.2698 6.46184 23.4571 6.46184 23.4808C6.46184 23.5035 6.84377 23.4674 7.31115 23.3995C7.77853 23.3326 8.68137 23.244 9.31861 23.2029ZM15.342 23.3315C14.5318 22.3052 14.0418 21.3755 13.701 20.2174C13.5343 19.6512 13.5168 18.8245 13.4869 10.2058L13.454 0.811973H12.4286H11.4033V11.9673V23.1236L12.5614 23.1977C13.1987 23.2379 13.9975 23.3079 14.3373 23.3521C15.3214 23.4808 15.4583 23.4787 15.342 23.3315Z" fill="black"/>
</svg>
