<svg width="29" height="23" viewBox="0 0 29 23" fill="none" xmlns="http://www.w3.org/2000/svg">
<path fill-rule="evenodd" clip-rule="evenodd" d="M2.90323 7.94906L4.8871 2.66555C5.6129 1.28518 6.72581 0.428392 8.03226 0H20.4677C21.7742 0.428392 22.8387 1.28518 23.6129 2.66555L25.5968 7.94906H28.1613C28.3548 7.94906 28.5 8.09186 28.5 8.28225V9.32944C28.5 9.51983 28.3548 9.71023 28.1613 9.71023H26.6613C27.0968 10.2338 27.5323 10.8526 27.9677 11.6618C27.9677 14.8509 28.0161 18.0401 28.0161 21.2768C28.0161 22.086 27.3387 22.8 26.4677 22.8H25.4032C24.5323 22.8 23.8548 22.086 23.8548 21.2768V19.3253H4.64516V21.2768C4.64516 22.086 3.96774 22.8 3.09677 22.8H2.03226C1.16129 22.8 0.483871 22.086 0.483871 21.2768C0.483871 18.0401 0.532258 14.8509 0.532258 11.6618C0.967742 10.8526 1.40323 10.2338 1.83871 9.71023H0.33871C0.145161 9.71023 0 9.51983 0 9.32944V8.28225C0 8.09186 0.145161 7.94906 0.33871 7.94906H2.90323ZM8.27419 2.09436C7.45161 2.23716 6.91935 2.76075 6.62903 3.42714C6.04839 4.99791 5.41935 6.80668 4.8871 8.37745H23.6129C23.0806 6.80668 22.4032 4.99791 21.871 3.42714C21.5323 2.76075 21.0484 2.23716 20.2258 2.09436H8.27419ZM23.0806 11.8046C22.1129 11.8046 21.3387 12.5662 21.3387 13.5182C21.3387 14.4701 22.1129 15.2317 23.0806 15.2317C24 15.2317 24.7742 14.4701 24.7742 13.5182C24.7742 12.5662 24 11.8046 23.0806 11.8046ZM5.41935 11.8046C6.3871 11.8046 7.16129 12.5662 7.16129 13.5182C7.16129 14.4701 6.3871 15.2317 5.41935 15.2317C4.5 15.2317 3.72581 14.4701 3.72581 13.5182C3.72581 12.5662 4.5 11.8046 5.41935 11.8046Z" fill="#102C53"/>
</svg>
