<svg width="27" height="22" viewBox="0 0 27 22" fill="none" xmlns="http://www.w3.org/2000/svg">
<path fill-rule="evenodd" clip-rule="evenodd" d="M2.69949 7.99084L4.54414 3.07811C5.21902 1.7946 6.25382 0.997939 7.46859 0.599609H19.0314C20.2462 0.997939 21.236 1.7946 21.9559 3.07811L23.8005 7.99084H26.1851C26.365 7.99084 26.5 8.12362 26.5 8.30065V9.27435C26.5 9.45138 26.365 9.62842 26.1851 9.62842H24.7903C25.1952 10.1153 25.6002 10.6906 26.0051 11.443C26.0051 14.4084 26.0501 17.3737 26.0501 20.3833C26.0501 21.1357 25.4202 21.7996 24.6104 21.7996H23.6205C22.8107 21.7996 22.1808 21.1357 22.1808 20.3833V18.5687H4.31919V20.3833C4.31919 21.1357 3.6893 21.7996 2.87946 21.7996H1.88964C1.0798 21.7996 0.449915 21.1357 0.449915 20.3833C0.449915 17.3737 0.494907 14.4084 0.494907 11.443C0.89983 10.6906 1.30475 10.1153 1.70968 9.62842H0.314941C0.134975 9.62842 0 9.45138 0 9.27435V8.30065C0 8.12362 0.134975 7.99084 0.314941 7.99084H2.69949ZM7.69355 2.547C6.92869 2.67978 6.43379 3.16662 6.16384 3.78625C5.62394 5.24679 5.03905 6.92863 4.54414 8.38917H21.9559C21.461 6.92863 20.8311 5.24679 20.3362 3.78625C20.0212 3.16662 19.5713 2.67978 18.8065 2.547H7.69355ZM21.461 11.5758C20.5611 11.5758 19.8413 12.284 19.8413 13.1691C19.8413 14.0543 20.5611 14.7624 21.461 14.7624C22.3158 14.7624 23.0357 14.0543 23.0357 13.1691C23.0357 12.284 22.3158 11.5758 21.461 11.5758ZM5.03905 11.5758C5.93888 11.5758 6.65874 12.284 6.65874 13.1691C6.65874 14.0543 5.93888 14.7624 5.03905 14.7624C4.18421 14.7624 3.46435 14.0543 3.46435 13.1691C3.46435 12.284 4.18421 11.5758 5.03905 11.5758Z" fill="#102C53"/>
</svg>
