<svg width="27" height="25" viewBox="0 0 27 25" fill="none" xmlns="http://www.w3.org/2000/svg">
<path d="M2.74389 13.2334C3.07553 13.6246 3.64811 13.7352 4.07329 13.4234L7.47476 10.8723C7.89428 10.5576 7.97932 9.96236 7.66468 9.54285C7.35004 9.12333 6.75479 9.03829 6.33527 9.35293L4.67139 10.603C5.00586 8.97026 5.74568 7.44527 6.81998 6.16972C8.73331 3.87373 11.5707 2.54999 14.5612 2.55566C17.2597 2.55566 19.7994 3.60728 21.7099 5.51494C25.6528 9.45781 25.6528 15.8724 21.7099 19.8153C19.7994 21.7258 17.2597 22.7746 14.5612 22.7746C11.8627 22.7746 9.32006 21.7229 7.4124 19.8153C6.54219 18.9479 5.84206 17.9275 5.34318 16.8021C5.13058 16.3231 4.56934 16.1077 4.0903 16.3203C3.61126 16.5329 3.39583 17.0941 3.60843 17.5731C5.53593 21.8958 9.82745 24.6765 14.5612 24.6709C17.7472 24.6765 20.8 23.4123 23.0507 21.1589C27.7334 16.4762 27.7334 8.85972 23.0507 4.17703C18.1412 -0.78912 9.82745 -0.431965 5.36869 4.94519C4.09881 6.45318 3.22576 8.25029 2.82325 10.1778L1.70927 8.68964C1.39464 8.27013 0.79938 8.18509 0.379865 8.49973C-0.0396494 8.81436 -0.124686 9.40962 0.18995 9.82913L2.74389 13.2334ZM14.2182 8.2021C13.6938 8.2021 13.2686 8.62728 13.2686 9.15168V12.8083C13.2686 13.1654 13.4699 13.4942 13.7873 13.6558L17.4439 15.5039C17.9116 15.742 18.4842 15.5549 18.7195 15.0872C18.9576 14.6195 18.7705 14.0498 18.3028 13.8117L15.1649 12.2243V9.15168C15.1649 8.62728 14.7426 8.2021 14.2182 8.2021Z" fill="#F9F9F9"/>
</svg>
